<?xml version="1.0" encoding="utf-8"?>
<!-- Generator: Adobe Illustrator 26.0.2, SVG Export Plug-In . SVG Version: 6.00 Build 0)  -->
<svg version="1.1" id="Capa_1" xmlns="http://www.w3.org/2000/svg" xmlns:xlink="http://www.w3.org/1999/xlink" x="0px" y="0px"
	 viewBox="0 0 170 170" style="enable-background:new 0 0 170 170;" xml:space="preserve">
<style type="text/css">
	.st0{fill:#FFFFFF;}
</style>
<g>
	<path class="st0" d="M37.1,80.4c0,1.7,0,3.4,0,5.1h-2.8v9.9h-7.4V82.8H17v-2.3H9.6v-2.3h9.9v2.3h10.2V67.9H32v-2.4h2.3v-4.7h2.8V58
		h2.3v-7.4h5.1v-2.4H47v-2.3h4.7V43h2.8v-2.3h4.8v-2.3h5.1v-2.8h9.8v-2.3h2.8v-5.1h-2.8V10.8h2.8V8.5h2.3v19.7h2.3v5.1h17.8v2.3h7.1
		v2.8h5.1v2.3h5.1V43h2.3v2.8h5.1v2.3h2.3v2.4h2.4v2.7h2.7V58h2.4v2.8h2.3v4.7h2.8v5.1h2.3v9.9h2.3v2.3h7.5v-2.3h9.2v2.3h-6.9v2.8
		h-9.9v15c-0.8,0-1.6,0-2.3,0c0-0.9,0-1.9,0-2.8c-4.2,0-8.4,0-12.5,0c0-0.8,0-1.6,0-2.3h-2.4V93H124v2.4h-2.8V93h-2.3v-2.7h-2.3
		v-2.4h-2.8v-2.3c-0.8,0-1.6,0-2.3,0c0-1.7,0-3.4,0-5.1c-1.7,0-3.4,0-5.1,0c0,1.7,0,3.4,0,5.1h-2.4v-5.1c0.8,0,1.6,0,2.4,0
		c0-0.8,0-1.6,0-2.3h5.1c0,0.8,0,1.6,0,2.3c0.8,0,1.6,0,2.3,0v2.3h2.8v2.8c1.6,0,3.1,0,4.7,0c0,1.6,0,3.2,0,4.8h2.8v-2.4h2.3v-2.3
		c-1.7,0-3.4,0-5.1,0c0-0.9,0-1.9,0-2.8h-2.3v-2.3h-2.3v-2.3h-2.8v-2.8h-2.3c0-1.6,0-3.2,0-4.8c0.8,0,1.6,0,2.3,0V73h2.8v2.3h2.3
		v2.8c0.8,0,1.6,0,2.3,0c0,0.8,0,1.6,0,2.3c1.7,0,3.4,0,5.1,0c0,0.8,0,1.6,0,2.3h2.4v-2.3c-0.8,0-1.6,0-2.4,0c0-0.8,0-1.6,0-2.3
		c-1.7,0-3.4,0-5.1,0c0-1.7,0-3.4,0-5.1h-2.3v-2.4h-2.3v-2.7h-2.8c0-1.6,0-3.2,0-4.8c0.9,0,1.9,0,2.8,0c0,0.8,0,1.6,0,2.3
		c1.6,0,3.1,0,4.7,0c0,1.7,0,3.4,0,5.1c0.9,0,1.9,0,2.8,0c0,0.8,0,1.6,0,2.4c0.8,0,1.6,0,2.3,0c0,0.8,0,1.6,0,2.3h2.4V73
		c-0.8,0-1.6,0-2.4,0c0-0.8,0-1.6,0-2.4c-0.8,0-1.6,0-2.3,0c0-1.7,0-3.4,0-5.1c-0.9,0-1.9,0-2.8,0c0-0.8,0-1.6,0-2.3
		c-1.6,0-3.1,0-4.7,0c0-1.7,0-3.4,0-5.1c0.8,0,1.6,0,2.3,0v-2.3h-2.3c0,0.8,0,1.6,0,2.3c-0.9,0-1.9,0-2.8,0c0-0.8,0-1.6,0-2.3h-2.3
		v-2.4c-0.8,0-1.6,0-2.4,0c0-1.7,0-3.4,0-5.1c-0.9,0-1.8,0-2.7,0c0-0.8,0-1.6,0-2.3h-2.4v2.3c0.8,0,1.6,0,2.4,0c0,1.7,0,3.4,0,5.1
		c0.9,0,1.8,0,2.7,0c0,1.6,0,3.2,0,4.8c-0.9,0-1.8,0-2.7,0v-2.3h-2.4v-5.1h-2.3v-4.8h-2.3V43h-5.1v2.8h2.3v2.3h2.8
		c0,1.7,0,3.4,0,5.1c-0.9,0-1.9,0-2.8,0v-2.7h-2.3v-2.4h-2.3V43h-2.8v-2.3h-7.5V43h5.2c0,0.9,0,1.9,0,2.8c0.8,0,1.6,0,2.3,0
		c0,1.6,0,3.2,0,4.8c0.9,0,1.9,0,2.8,0v2.7h-2.8c0-0.9,0-1.8,0-2.7c-0.8,0-1.6,0-2.3,0c0-1.6,0-3.2,0-4.8c-1.7,0-3.5,0-5.2,0v2.3
		h-2.3v2.4c-0.8,0-1.6,0-2.3,0c0,0.9,0,1.8,0,2.7h-2.8v-2.7c0.9,0,1.9,0,2.8,0c0-3.3,0-6.6,0-9.9h-5.1c0,1.7,0,3.4,0,5.1
		c0.8,0,1.6,0,2.3,0v2.3h-2.3c0-0.8,0-1.6,0-2.3c-0.8,0-1.6,0-2.3,0V43h-5.1c0,0.9,0,1.9,0,2.8c0.8,0,1.6,0,2.3,0c0,0.8,0,1.6,0,2.3
		c0.9,0,1.9,0,2.8,0v2.4h-2.8c0-0.8,0-1.6,0-2.4c-0.8,0-1.6,0-2.3,0c0-0.8,0-1.6,0-2.3c-1.7,0-3.4,0-5.1,0c0,0.8,0,1.6,0,2.3
		c0.9,0,1.8,0,2.7,0c0,0.8,0,1.6,0,2.4c0.8,0,1.6,0,2.4,0v2.7h-2.4c0-0.9,0-1.8,0-2.7c-0.9,0-1.8,0-2.7,0c0-0.8,0-1.6,0-2.4
		c-1.6,0-3.2,0-4.8,0c0,0.8,0,1.6,0,2.4c0.8,0,1.6,0,2.3,0v5.1h-2.3c0-1.7,0-3.4,0-5.1c-1.7,0-3.4,0-5.1,0v2.7H47v2.4h-2.4
		c0,1.7,0,3.4,0,5.1c0.8,0,1.6,0,2.4,0c0,0.8,0,1.6,0,2.3c0.8,0,1.6,0,2.3,0v2.3H47c0-0.8,0-1.6,0-2.3c-0.8,0-1.6,0-2.4,0
		c0-0.8,0-1.6,0-2.3c-0.9,0-1.8,0-2.7,0c0,1.6,0,3.1,0,4.7c0.9,0,1.8,0,2.7,0v2.4h-2.7c0-0.8,0-1.6,0-2.4c-0.8,0-1.6,0-2.4,0
		c0,1.7,0,3.4,0,5.1c0.8,0,1.6,0,2.4,0c0,1.6,0,3.2,0,4.8c0.9,0,1.8,0,2.7,0v2.8h-2.7c0-0.9,0-1.9,0-2.8c-0.8,0-1.6,0-2.4,0
		c0-1.6,0-3.2,0-4.8c-1.7,0-3.4,0-5.1,0V73h2.8c0,1.7,0,3.4,0,5.1c-0.9,0-1.9,0-2.8,0v2.3C35.2,80.4,36.2,80.5,37.1,80.4z
		 M94.2,38.4h-2.3v2.3h2.3V38.4z M116.6,50.6h-2.8v2.7h2.8V50.6z M124,58h-2.8v2.8h2.8V58z M133.9,78.1h-2.4v2.3h2.4V78.1z
		 M131.5,87.9h-2.7v2.4h2.7V87.9z M133.9,93h-2.4v2.4h2.4V93z"/>
	<path class="st0" d="M111.5,85.6c0,1.6,0,3.2,0,4.8c-1.7,0-3.4,0-5.1,0c0-0.8,0-1.6,0-2.4h2.7v-2.3
		C109.8,85.6,110.7,85.6,111.5,85.6z"/>
	<path class="st0" d="M99.3,53.2c0.8,0,1.6,0,2.3,0c0,1.6,0,3.2,0,4.8c-0.8,0-1.6,0-2.3,0C99.3,56.4,99.3,54.8,99.3,53.2z"/>
	<path class="st0" d="M109,65.5c0.8,0,1.6,0,2.4,0c0,1.7,0,3.4,0,5.1c-0.8,0-1.6,0-2.4,0C109,68.9,109,67.2,109,65.5z"/>
	<path class="st0" d="M113.8,93c0.9,0,1.9,0,2.8,0v2.4c-0.9,0-1.9,0-2.8,0C113.8,94.6,113.8,93.8,113.8,93z"/>
	<path class="st0" d="M101.6,58c0.8,0,1.6,0,2.3,0c0,1.7,0,3.4,0,5.1c-0.8,0-1.6,0-2.3,0C101.6,61.4,101.6,59.7,101.6,58z"/>
	<path class="st0" d="M113.8,58c0,1.7,0,3.4,0,5.1c-1.6,0-3.2,0-4.8,0c0-1.7,0-3.4,0-5.1C110.6,58,112.2,58,113.8,58z"/>
	<path class="st0" d="M111.5,90.3c0.8,0,1.6,0,2.3,0c0,0.9,0,1.8,0,2.7c-0.8,0-1.6,0-2.3,0C111.5,92.1,111.5,91.2,111.5,90.3z"/>
	<path class="st0" d="M37.1,78.1c0.8,0,1.6,0,2.3,0v2.3c-0.8,0-1.6,0-2.3,0C37.1,79.7,37.1,78.9,37.1,78.1z"/>
	<path class="st0" d="M56.7,115.1c1.7,0,3.4,0,5.1,0c0,0.9,0,1.9,0,2.8c-1.7,0-3.4,0-5.1,0C56.7,116.9,56.8,116,56.7,115.1z"/>
	<path class="st0" d="M96.5,115.1c-1.6,0-3.1,0-4.7,0v-2.4h2.3v-2.3h2.3C96.5,111.9,96.5,113.5,96.5,115.1c1.7,0,3.4,0,5.1,0
		c0,0.9,0,1.9,0,2.8h-2.3c0,0.8,0,1.6,0,2.3c-1.7,0-3.4,0-5.1,0c0-0.8,0-1.6,0-2.3h2.3C96.5,116.9,96.5,116,96.5,115.1z"/>
	<path class="st0" d="M47,108c0.8,0,1.6,0,2.3,0v2.3h2.3c0,0.8,0,1.6,0,2.3c-1.6,0-3.1,0-4.7,0C47,111.1,47,109.5,47,108z"/>
	<path class="st0" d="M41.9,82.8c0-0.8,0-1.6,0-2.3h2.7v2.3C43.6,82.8,42.8,82.8,41.9,82.8c0,1.7,0,3.4,0,5.1c-0.8,0-1.6,0-2.4,0
		c0,1.7,0,3.4,0,5.1c1.7,0,3.4,0,5.1,0c0,0.8,0,1.6,0,2.4c2.4,0,4.7,0,7.1,0V93h2.8v4.8h-2.8v2.8h-7.1v2.3H47c0,1.7,0,3.4,0,5.1
		c-0.8,0-1.6,0-2.4,0c0-0.9,0-1.9,0-2.8h-2.7v-2.3h-2.4c0,1.7,0,3.4,0,5.1c-0.8,0-1.6,0-2.3,0v2.3h2.3c0-0.8,0-1.6,0-2.3
		c1.7,0,3.4,0,5.1,0c0,1.6,0,3.1,0,4.7c0.8,0,1.6,0,2.4,0c0,0.8,0,1.6,0,2.4c-0.8,0-1.6,0-2.4,0v5.1H47c0-1.7,0-3.4,0-5.1
		c1.6,0,3.1,0,4.7,0c0,1.7,0,3.4,0,5.1c-0.8,0-1.6,0-2.3,0v5.1h2.3c0-1.7,0-3.4,0-5.1c0.9,0,1.9,0,2.8,0v-2.3c0.8,0,1.6,0,2.3,0
		c0,1.6,0,3.1,0,4.7c-0.8,0-1.6,0-2.3,0v5.1c0.8,0,1.6,0,2.3,0c0,0.8,0,1.6,0,2.3h2.4v-2.3c-0.8,0-1.6,0-2.4,0c0-1.7,0-3.4,0-5.1
		c0.8,0,1.6,0,2.4,0v-2.3h2.7c0-0.8,0-1.6,0-2.3c0.8,0,1.6,0,2.4,0c0,1.6,0,3.1,0,4.7c-0.8,0-1.6,0-2.4,0v5.1h2.4c0-1.7,0-3.4,0-5.1
		c0.8,0,1.6,0,2.3,0v-2.3h2.8v2.3h2.3v5.1h2.3v2.3c1.7,0,3.4,0,5.1,0c0,0.9,0,1.9,0,2.8h2.3V130c-0.8,0-1.6,0-2.3,0
		c0-0.8,0-1.6,0-2.3h-2.3v-2.3h-2.8v-5.1h-2.3c0-0.8,0-1.6,0-2.3c-1.7,0-3.4,0-5.1,0c0-0.9,0-1.9,0-2.8c-0.8,0-1.6,0-2.3,0
		c0-0.8,0-1.6,0-2.4c-1.7,0-3.4,0-5.1,0c0-0.8,0-1.6,0-2.3c-1.6,0-3.2,0-4.8,0c0-0.8,0-1.6,0-2.3c-0.9,0-1.9,0-2.8,0
		c0-0.9,0-1.9,0-2.8c-0.8,0-1.6,0-2.3,0v-2.3h2.3c0,0.8,0,1.6,0,2.3c0.9,0,1.9,0,2.8,0c0,0.9,0,1.9,0,2.8c1.6,0,3.2,0,4.8,0
		c0,0.8,0,1.6,0,2.3c1.7,0,3.4,0,5.1,0c0,0.8,0,1.6,0,2.3c0.8,0,1.6,0,2.3,0c0,0.8,0,1.6,0,2.4c1.7,0,3.4,0,5.1,0c0,0.9,0,1.9,0,2.8
		c1.7,0,3.4,0,5.1,0v4.7h2.3v2.8h2.3v2.3c0.9,0,1.9,0,2.8,0c0,0.8,0,1.6,0,2.3h2.4v-2.3c-0.8,0-1.6,0-2.4,0c0-1.7,0-3.4,0-5.1
		c-0.9,0-1.9,0-2.8,0v-2.3h-2.3c0-1.7,0-3.4,0-5.1c-0.8,0-1.6,0-2.3,0v-4.8h2.3c0,1.6,0,3.2,0,4.8c0.8,0,1.6,0,2.3,0v2.8h2.8
		c0,1.6,0,3.1,0,4.7c1.6,0,3.2,0,4.8,0c0,1.7,0,3.4,0,5.1c0.9,0,1.9,0,2.8,0c0,1.7,0,3.4,0,5.1h2.3v-5.1c-0.8,0-1.6,0-2.3,0
		c0-1.7,0-3.4,0-5.1c-0.9,0-1.9,0-2.8,0c0-0.8,0-1.6,0-2.3h-2.3c0-1.7,0-3.4,0-5.1c-0.8,0-1.6,0-2.4,0c0-1.6,0-3.2,0-4.8
		c-0.9,0-1.9,0-2.8,0V108c0.9,0,1.9,0,2.8,0c0-0.9,0-1.9,0-2.8h2.4v2.8c-0.8,0-1.6,0-2.4,0c0,0.8,0,1.6,0,2.3c1.6,0,3.2,0,4.8,0
		c0-0.8,0-1.6,0-2.3h2.8v2.3c-0.9,0-1.9,0-2.8,0c0,0.8,0,1.6,0,2.3h-2.3c0,0.8,0,1.6,0,2.4c0.8,0,1.6,0,2.3,0v2.8h2.8v2.3
		c0.8,0,1.6,0,2.3,0c0,1.7,0,3.4,0,5.1h2.3v-2.8h2.8c0-0.8,0-1.6,0-2.3c1.6,0,3.1,0,4.7,0c0,1.7,0,3.4,0,5.1h2.4v-5.1
		c-0.8,0-1.6,0-2.4,0c0-1.7,0-3.4,0-5.1c1.7,0,3.4,0,5.1,0c0,1.7,0,3.4,0,5.1h2.4v-5.1c-0.8,0-1.6,0-2.4,0c0-0.8,0-1.6,0-2.4h-2.7
		c0-1.6,0-3.1,0-4.7c-0.8,0-1.6,0-2.4,0v-2.8h-2.3c0-1.6,0-3.1,0-4.7c-0.8,0-1.6,0-2.3,0v-2.8h-2.8c0-1.6,0-3.2,0-4.8
		c-1.6,0-3.1,0-4.7,0v-2.7h-2.8v-2.4h5.1v2.4h2.3c0,0.9,0,1.8,0,2.7c0.9,0,1.9,0,2.8,0v2.4h2.3c0,1.7,0,3.4,0,5.1c0.8,0,1.6,0,2.3,0
		v2.3h2.4c0,1.7,0,3.4,0,5.1c1.7,0,3.4,0,5.1,0c0,1.6,0,3.1,0,4.7h2.3c0-1.6,0-3.1,0-4.7c0.9,0,1.9,0,2.8,0v-5.1c-0.9,0-1.9,0-2.8,0
		c0-0.8,0-1.6,0-2.3h-2.3v2.3c0.8,0,1.6,0,2.3,0c0,1.7,0,3.4,0,5.1c-0.8,0-1.6,0-2.3,0c0-0.9,0-1.9,0-2.8H109v-4.7h-2.7v-2.8h-2.4
		V93h-2.3c0-0.9,0-1.8,0-2.7c-0.8,0-1.6,0-2.3,0v-4.8h2.3c0,1.6,0,3.2,0,4.8c1.6,0,3.2,0,4.8,0c0,1.7,0,3.4,0,5.1c2.5,0,5,0,7.4,0
		c0,0.8,0,1.6,0,2.3c5,0,10,0,15,0c0,0.9,0,1.9,0,2.8c4.2,0,8.4,0,12.5,0c0,0.8,0,1.6,0,2.3h9.9v2.3h5.1v2.8h-15v4.7H139v5.2h-2.8
		v4.7h-2.3v2.8h-2.4v4.7h-2.7v2.8h-2.4v2.3H124v2.4h-5.1v2.7h-2.3v2.4h-5.1v2.3h-5.1v2.8h-9.9v2.3h-4.7v11.4h-2.8v-11.4h-15v-2.3
		h-9.8v-2.8h-5.1v-2.3h-4.8v-2.4h-2.8v-2.7H47v-2.4h-2.4v-2.3h-2.7V130h-2.4v-4.7h-2.3v-2.8h-2.8v-4.7H32v-5.2h-2.3v-9.8h-2.8v2.3
		H9.6v-4.7h17.3v-2.8h17.7c0-0.8,0-1.6,0-2.3c-1.7,0-3.4,0-5.1,0c0-0.8,0-1.6,0-2.4c-0.8,0-1.6,0-2.3,0v-5.1c0.8,0,1.6,0,2.3,0
		c0-1.7,0-3.4,0-5.1C40.2,82.8,41.1,82.8,41.9,82.8z M124,105.2h-2.8v5.1h2.8V105.2z M118.9,110.3h-2.3v4.8h2.3V110.3z M41.9,112.6
		h-2.4v2.4h2.4V112.6z M126.4,112.6H124v2.4h2.3V112.6z M116.6,117.9h-2.8v4.7h2.8V117.9z M69.4,130c0-1.6,0-3.1,0-4.7h-2.8v4.7
		C67.6,130,68.5,130,69.4,130c0,0.9,0,1.9,0,2.8h2.3V130C71,130,70.2,130,69.4,130z M99.3,127.6c-0.9,0-1.9,0-2.8,0v2.3h2.8
		C99.3,129.2,99.3,128.4,99.3,127.6c0.8,0,1.6,0,2.3,0v-2.3h-2.3C99.3,126.1,99.3,126.9,99.3,127.6z M111.5,125.3H109v2.3h2.4V125.3
		z M54.4,130h-2.8v2.8h2.8V130z M64.3,132.7c0-0.9,0-1.9,0-2.8h-2.4v2.8C62.7,132.7,63.5,132.7,64.3,132.7c0,0.8,0,1.6,0,2.3h2.3
		v-2.3C65.9,132.7,65.1,132.7,64.3,132.7z M103.9,130h-2.3v2.8h2.3V130z M86.7,132.7h-2.4v2.3h2.4V132.7z M74.1,135.1h-2.3v2.4h2.3
		V135.1z M79.2,135.1h-2.3v2.4h2.3V135.1z M91.8,135.1h-2.8v2.4h2.8V135.1z M99.3,135.1h-2.8v2.4h2.8V135.1z M84.3,137.5h-2.8v2.7
		h2.8V137.5z"/>
	<path class="st0" d="M109,63.1c0,0.8,0,1.6,0,2.3c-1.7,0-3.4,0-5.1,0c0-0.8,0-1.6,0-2.3C105.6,63.1,107.3,63.1,109,63.1z"/>
	<path class="st0" d="M99.3,108c-1.7,0-3.4,0-5.1,0v-2.8h5.1C99.3,106.1,99.3,107.1,99.3,108c0.8,0,1.6,0,2.3,0v2.3h2.3
		c0,1.6,0,3.2,0,4.8c-0.8,0-1.6,0-2.3,0c0-0.8,0-1.6,0-2.4h-2.3C99.3,111.1,99.3,109.5,99.3,108z"/>
	<path class="st0" d="M51.6,112.6c1.7,0,3.4,0,5.1,0c0,0.8,0,1.6,0,2.4c-1.7,0-3.4,0-5.1,0C51.6,114.3,51.6,113.5,51.6,112.6z"/>
	<path class="st0" d="M79.2,90.3c-0.8,0-1.6,0-2.3,0v-2.4h2.3C79.2,88.7,79.2,89.5,79.2,90.3c2.5,0,5,0,7.5,0v5.1h-2.4V93h-5.1
		C79.2,92.1,79.2,91.2,79.2,90.3z"/>
	<rect x="69.4" y="90.3" class="st0" width="4.7" height="2.7"/>
	<path class="st0" d="M103.9,73c-0.8,0-1.6,0-2.3,0v-5.1h2.3C103.9,69.6,103.9,71.3,103.9,73c1.7,0,3.4,0,5.1,0v2.3h-5.1
		C103.9,74.6,103.9,73.8,103.9,73z"/>
	<rect x="49.3" y="55.7" class="st0" width="2.3" height="5.1"/>
	<path class="st0" d="M47,87.9c0-1.7,0-3.4,0-5.1h2.3v5.1C48.5,87.9,47.8,87.9,47,87.9c0,0.8,0,1.6,0,2.4h-2.4v-2.4
		C45.3,87.9,46.2,87.9,47,87.9z"/>
	<path class="st0" d="M91.8,102.9c0-0.8,0-1.6,0-2.3h4.7v2.3C94.9,102.9,93.4,102.9,91.8,102.9c0,0.8,0,1.6,0,2.3h-2.8v-2.3
		C90,102.9,90.9,102.9,91.8,102.9z"/>
	<rect x="69.4" y="110.3" class="st0" width="4.7" height="2.3"/>
	<rect x="66.6" y="105.2" class="st0" width="2.8" height="2.8"/>
	<rect x="74.1" y="105.2" class="st0" width="2.8" height="2.8"/>
	<path class="st0" d="M84.3,100.5c-0.9,0-1.9,0-2.8,0v-2.8h2.8C84.3,98.7,84.3,99.6,84.3,100.5c0.8,0,1.6,0,2.4,0v2.3h-2.4
		C84.3,102.1,84.3,101.3,84.3,100.5z"/>
	<path class="st0" d="M81.5,53.2c0-0.9,0-1.8,0-2.7h2.8v2.7C83.4,53.3,82.4,53.2,81.5,53.2c0,0.8,0,1.6,0,2.4h-2.3v-2.4
		C79.9,53.2,80.7,53.3,81.5,53.2z"/>
	<path class="st0" d="M59.2,97.8c-0.8,0-1.6,0-2.4,0v-2.3h2.4C59.2,96.2,59.2,97,59.2,97.8c0.9,0,1.8,0,2.7,0v2.8h-2.7
		C59.2,99.6,59.2,98.7,59.2,97.8z"/>
	<rect x="81.5" y="70.6" class="st0" width="2.8" height="2.4"/>
	<rect x="89.1" y="95.4" class="st0" width="2.8" height="2.3"/>
	<rect x="81.5" y="78.1" class="st0" width="2.8" height="2.3"/>
	<rect x="96.5" y="73" class="st0" width="2.8" height="2.3"/>
	<rect x="96.5" y="63.1" class="st0" width="2.8" height="2.3"/>
	<rect x="76.8" y="58" class="st0" width="2.3" height="2.8"/>
	<rect x="81.5" y="63.1" class="st0" width="2.8" height="2.3"/>
	<rect x="74.1" y="95.4" class="st0" width="2.8" height="2.3"/>
	<rect x="81.5" y="85.6" class="st0" width="2.8" height="2.3"/>
	<rect x="94.2" y="82.8" class="st0" width="2.3" height="2.8"/>
	<rect x="94.2" y="67.9" class="st0" width="2.3" height="2.7"/>
	<rect x="56.7" y="87.9" class="st0" width="2.4" height="2.4"/>
	<rect x="64.3" y="87.9" class="st0" width="2.3" height="2.4"/>
	<rect x="47" y="70.6" class="st0" width="2.3" height="2.4"/>
	<rect x="61.9" y="102.9" class="st0" width="2.4" height="2.3"/>
	<rect x="71.7" y="100.5" class="st0" width="2.3" height="2.3"/>
	<rect x="99.3" y="78.1" class="st0" width="2.3" height="2.3"/>
	<rect x="91.8" y="78.1" class="st0" width="2.3" height="2.3"/>
	<rect x="54.4" y="100.5" class="st0" width="2.3" height="2.3"/>
	<rect x="91.8" y="60.8" class="st0" width="2.3" height="2.3"/>
	<rect x="79.2" y="102.9" class="st0" width="2.3" height="2.3"/>
	<rect x="86.7" y="55.7" class="st0" width="2.3" height="2.3"/>
	<rect x="94.2" y="55.7" class="st0" width="2.3" height="2.3"/>
	<rect x="64.3" y="95.4" class="st0" width="2.3" height="2.3"/>
</g>
</svg>
