<?xml version="1.0" encoding="utf-8"?>
<!-- Generator: Adobe Illustrator 26.0.2, SVG Export Plug-In . SVG Version: 6.00 Build 0)  -->
<svg version="1.1" id="Capa_1" xmlns="http://www.w3.org/2000/svg" xmlns:xlink="http://www.w3.org/1999/xlink" x="0px" y="0px"
	 viewBox="0 0 250 100" style="enable-background:new 0 0 250 100;" xml:space="preserve">
<style type="text/css">
	.st0{fill:#FFFFFF;}
	.st1{fill:#EF4444;}
	.st2{fill:#6DFCFF;}
</style>
<g>
	<rect x="5" y="7.3" class="st0" width="239.9" height="85.5"/>
	<g>
		<g>
			<path d="M237.8,92.7H5V7.3H245v85.5h-3.2c-0.2-0.3-0.2-0.6-0.2-0.9c0-0.3,0.1-2.5,0-2.5h-3.7C237.6,89.3,237.9,92.4,237.8,92.7z
				 M237.6,11.2H11.8v3.4h3.9v3.2h3.2c0,0,0.3,0.2,0.3,0.3v3.7h204.5v3.4h3.2V22c0,0,0.2-0.3,0.3-0.3h3.8v-3.9h3.2v-3.2h3.4V11.2z
				 M11.7,14.6H8.4v74.6h3.2v-3.9h3.9v-3.2c0,0,0.2-0.3,0.3-0.3H19v-7.2h-3.4V18h-3.9V14.6z M220.3,25.3H19.2v46h201.1V25.3z
				 M231,25.3h-3.9v56.5h3.9V25.3z M223.7,71.5h-3.2v3.2h3.2V71.5z M26.3,78.6h-3.7v3.2h3.7V78.6z M33.1,78.6h-3.4v3.2h3.4V78.6z
				 M40.3,78.6H37v3.2h3.2V78.6z M47.6,78.6h-3.7v3.2h3.7V78.6z M54.4,78.6h-3.2v3.2h3.2V78.6z M194.9,78.6h-3.2v3.2h3.2V78.6z
				 M202.2,78.6H199v3.2h3.2V78.6z M209.5,78.6h-3.7v3.2h3.7V78.6z M216.4,78.6h-3.2v3.2h3.2V78.6z M223.7,78.6h-3.2v3.2h3.2V78.6z
				 M234.2,82H231v3.2h3.2V82z M237.6,85.4h-3.2v3.7h3.2V85.4z"/>
			<path class="st1" d="M237.8,92.7c0.1-0.3-0.2-3.4,0-3.4h3.7c0.1,0,0,2.2,0,2.5c0,0.4-0.1,0.6,0.2,0.9H237.8z"/>
			<path class="st1" d="M237.6,11.2v3.4h-3.4v3.2H231v3.9h-3.8c0,0-0.3,0.2-0.3,0.3v3.2h-3.2v-3.4H19.2v-3.7c0,0-0.2-0.3-0.3-0.3
				h-3.2v-3.2h-3.9v-3.4H237.6z"/>
			<path class="st2" d="M11.7,14.6V18h3.9v56.7H19v7.2h-3.2c0,0-0.3,0.2-0.3,0.3v3.2h-3.9v3.9H8.4V14.6H11.7z"/>
			<rect x="227.1" y="25.3" class="st1" width="3.9" height="56.5"/>
			<rect x="234.4" y="85.4" class="st1" width="3.2" height="3.7"/>
			<rect x="231" y="82" class="st1" width="3.2" height="3.2"/>
		</g>
		<g>
			<g>
				<path d="M77.1,32.7h6.3l9.6,31.1H86l-1.6-6.5h-8.5l-1.6,6.5h-6.7L77.1,32.7z M83,51.4l-2.8-11.5h0l-2.8,11.5H83z"/>
				<path d="M95,32.7h12.1c5.2,0,8.4,3.4,8.4,9.9c0,6.5-3.2,9.9-8.4,9.9h-5.8v11.3H95V32.7z M105.6,46.1c2.2,0,3.5-0.9,3.5-3.5
					c0-2.6-1.3-3.5-3.5-3.5h-4.4v7.1H105.6z"/>
				<path d="M118.3,32.7h12.1c5.2,0,8.4,3.4,8.4,9.9c0,6.5-3.2,9.9-8.4,9.9h-5.8v11.3h-6.3V32.7z M128.9,46.1c2.2,0,3.5-0.9,3.5-3.5
					c0-2.6-1.3-3.5-3.5-3.5h-4.4v7.1H128.9z"/>
				<path d="M141.5,32.7h6.3v24.7h11.1v6.4h-17.4V32.7z"/>
				<path d="M167.8,52.3l-8.5-19.6h6.7l4.8,13.2h0.1l4.9-13.2h6.6L174,52.3v11.5h-6.3V52.3z"/>
			</g>
		</g>
	</g>
</g>
</svg>
