<svg id="Capa_1" data-name="Capa 1" xmlns="http://www.w3.org/2000/svg" viewBox="0 0 250 100"><defs><style>.cls-1{fill:#ef4444;}.cls-2{fill:#fff;}.cls-3{fill:#6dfcff;}</style></defs><path d="M237.82,92.75H5V7.25H245v85.5h-3.23c-.24-.32-.16-.58-.17-.94a18.38,18.38,0,0,0,0-2.47h-3.75C237.65,89.34,238,92.41,237.82,92.75Zm-.17-81.58H11.84v3.41h3.92v3.23h3.15a2.06,2.06,0,0,1,.25.26v3.66H223.68v3.41h3.24V22a2.06,2.06,0,0,1,.26-.25H231V17.81h3.23V14.58h3.41Zm-226,3.41H8.43V89.17h3.24V85.25h3.92V82.1a1.48,1.48,0,0,1,.25-.25H19V74.69h-3.4V18H11.67ZM220.28,25.31H19.16v46H220.28Zm10.73,0h-3.92V81.85H231Zm-7.33,46.15h-3.23v3.23h3.23ZM26.32,78.61H22.57v3.24h3.75Zm6.81,0H29.72v3.24h3.41Zm7.15,0H37v3.24h3.24Zm7.32,0H43.86v3.24H47.6Zm6.82,0H51.18v3.24h3.24Zm140.48,0h-3.23v3.24h3.23Zm7.33,0H199v3.24h3.24Zm7.32,0H205.8v3.24h3.75Zm6.81,0h-3.23v3.24h3.23Zm7.32,0h-3.23v3.24h3.23ZM234.24,82H231v3.23h3.23Zm3.41,3.4h-3.24v3.75h3.24Z"/><path class="cls-1" d="M237.82,92.75c.13-.34-.17-3.41,0-3.41h3.75a18.38,18.38,0,0,1,0,2.47c0,.36-.07.62.17.94Z"/><rect class="cls-2" x="19.16" y="25.31" width="201.12" height="45.98"/><path class="cls-1" d="M237.65,11.17v3.41h-3.41v3.23H231v3.92h-3.83a2.06,2.06,0,0,0-.26.25v3.16h-3.24V21.73H19.16V18.07a2.06,2.06,0,0,0-.25-.26H15.76V14.58H11.84V11.17Z"/><path class="cls-3" d="M11.67,14.58V18h3.92V74.69H19v7.16H15.84a1.48,1.48,0,0,0-.25.25v3.15H11.67v3.92H8.43V14.58Z"/><rect class="cls-1" x="227.09" y="25.31" width="3.92" height="56.54"/><rect class="cls-2" x="182.49" y="78.61" width="3.92" height="3.24"/><rect class="cls-2" x="22.57" y="78.61" width="3.75" height="3.24"/><rect class="cls-2" x="43.86" y="78.61" width="3.75" height="3.24"/><rect class="cls-2" x="205.8" y="78.61" width="3.75" height="3.24"/><rect class="cls-1" x="234.41" y="85.42" width="3.24" height="3.75"/><rect class="cls-2" x="29.72" y="78.61" width="3.41" height="3.24"/><rect class="cls-2" x="220.45" y="71.46" width="3.24" height="3.24"/><rect class="cls-2" x="37.04" y="78.61" width="3.24" height="3.24"/><rect class="cls-2" x="51.18" y="78.61" width="3.24" height="3.24"/><rect class="cls-2" x="58.83" y="78.61" width="3.24" height="3.24"/><rect class="cls-2" x="66.48" y="78.61" width="3.24" height="3.24"/><rect class="cls-2" x="74.13" y="78.61" width="3.24" height="3.24"/><rect class="cls-2" x="81.78" y="78.61" width="3.24" height="3.24"/><rect class="cls-2" x="89.43" y="78.61" width="3.24" height="3.24"/><rect class="cls-2" x="97.08" y="78.61" width="3.24" height="3.24"/><rect class="cls-2" x="104.73" y="78.61" width="3.24" height="3.24"/><rect class="cls-2" x="112.38" y="78.61" width="3.24" height="3.24"/><rect class="cls-2" x="120.03" y="78.61" width="3.24" height="3.24"/><rect class="cls-2" x="127.68" y="78.61" width="3.24" height="3.24"/><rect class="cls-2" x="135.33" y="78.61" width="3.24" height="3.24"/><rect class="cls-2" x="142.98" y="78.61" width="3.24" height="3.24"/><rect class="cls-2" x="150.63" y="78.61" width="3.24" height="3.24"/><rect class="cls-2" x="158.28" y="78.61" width="3.24" height="3.24"/><rect class="cls-2" x="165.93" y="78.61" width="3.24" height="3.24"/><rect class="cls-2" x="173.58" y="78.61" width="3.24" height="3.24"/><rect class="cls-2" x="191.67" y="78.61" width="3.24" height="3.24"/><rect class="cls-2" x="198.99" y="78.61" width="3.24" height="3.24"/><rect class="cls-2" x="213.13" y="78.61" width="3.24" height="3.24"/><rect class="cls-2" x="220.45" y="78.61" width="3.24" height="3.24"/><rect class="cls-1" x="231.01" y="82.02" width="3.24" height="3.24"/></svg>