<?xml version="1.0" encoding="utf-8"?>
<!-- Generator: Adobe Illustrator 26.0.2, SVG Export Plug-In . SVG Version: 6.00 Build 0)  -->
<svg version="1.1" id="Capa_1" xmlns="http://www.w3.org/2000/svg" xmlns:xlink="http://www.w3.org/1999/xlink" x="0px" y="0px"
	 viewBox="0 0 250 100" style="enable-background:new 0 0 250 100;" xml:space="preserve">
<style type="text/css">
	.st0{fill:#6DFCFF;}
	.st1{fill:#FFFFFF;}
	.st2{fill:#EF4444;}
</style>
<g>
	<rect x="5" y="7.3" class="st0" width="239.9" height="85.5"/>
	<g>
		<g>
			<path d="M237.8,92.7H5V7.3H245v85.5h-3.2c-0.2-0.3-0.2-0.6-0.2-0.9c0-0.3,0.1-2.5,0-2.5h-3.7C237.6,89.3,237.9,92.4,237.8,92.7z
				 M237.6,11.2H11.8v3.4h3.9v3.2h3.2c0,0,0.3,0.2,0.3,0.3v3.7h204.5v3.4h3.2V22c0,0,0.2-0.3,0.3-0.3h3.8v-3.9h3.2v-3.2h3.4V11.2z
				 M11.7,14.6H8.4v74.6h3.2v-3.9h3.9v-3.2c0,0,0.2-0.3,0.3-0.3H19v-7.2h-3.4V18h-3.9V14.6z M220.3,25.3H19.2v46h201.1V25.3z
				 M231,25.3h-3.9v56.5h3.9V25.3z M223.7,71.5h-3.2v3.2h3.2V71.5z M26.3,78.6h-3.7v3.2h3.7V78.6z M33.1,78.6h-3.4v3.2h3.4V78.6z
				 M40.3,78.6H37v3.2h3.2V78.6z M47.6,78.6h-3.7v3.2h3.7V78.6z M54.4,78.6h-3.2v3.2h3.2V78.6z M194.9,78.6h-3.2v3.2h3.2V78.6z
				 M202.2,78.6H199v3.2h3.2V78.6z M209.5,78.6h-3.7v3.2h3.7V78.6z M216.4,78.6h-3.2v3.2h3.2V78.6z M223.7,78.6h-3.2v3.2h3.2V78.6z
				 M234.2,82H231v3.2h3.2V82z M237.6,85.4h-3.2v3.7h3.2V85.4z"/>
			<path class="st0" d="M237.8,92.7c0.1-0.3-0.2-3.4,0-3.4h3.7c0.1,0,0,2.2,0,2.5c0,0.4-0.1,0.6,0.2,0.9H237.8z"/>
			<path class="st1" d="M237.6,11.2v3.4h-3.4v3.2H231v3.9h-3.8c0,0-0.3,0.2-0.3,0.3v3.2h-3.2v-3.4H19.2v-3.7c0,0-0.2-0.3-0.3-0.3
				h-3.2v-3.2h-3.9v-3.4H237.6z"/>
			<path class="st2" d="M11.7,14.6V18h3.9v56.7H19v7.2h-3.2c0,0-0.3,0.2-0.3,0.3v3.2h-3.9v3.9H8.4V14.6H11.7z"/>
			<rect x="227.1" y="25.3" class="st1" width="3.9" height="56.5"/>
			<rect x="234.4" y="85.4" class="st0" width="3.2" height="3.7"/>
			<rect x="231" y="82" class="st0" width="3.2" height="3.2"/>
		</g>
		<g>
			<g>
				<path d="M75.8,32.7h7.7l5.1,19.9h0.1l5.1-19.9h7.7v31.1h-5.9V44.4h0l-4.7,19.4h-4.4l-4.6-19.4h-0.1v19.4h-5.9V32.7z"/>
				<path d="M105.7,32.7h18.9v6.4H112v5.5h10.9V51H112v6.4h12.8v6.4h-19.1V32.7z"/>
				<path d="M128.2,32.7h6.3l8.7,18.5h0.1V32.7h6.3v31.1h-6.3l-8.7-18.5h-0.1v18.5h-6.3V32.7z"/>
				<path d="M153.6,52.6V32.7h6.3v19.9c0,4,1.4,5.4,4.2,5.4c2.7,0,4.1-1.4,4.1-5.4V32.7h6.3v19.9c0,7.7-2.9,11.8-10.4,11.8
					C156.5,64.4,153.6,60.2,153.6,52.6z"/>
			</g>
		</g>
	</g>
</g>
</svg>
