<?xml version="1.0" encoding="utf-8"?>
<!-- Generator: Adobe Illustrator 26.0.2, SVG Export Plug-In . SVG Version: 6.00 Build 0)  -->
<svg version="1.1" id="Capa_1" xmlns="http://www.w3.org/2000/svg" xmlns:xlink="http://www.w3.org/1999/xlink" x="0px" y="0px"
	 viewBox="0 0 250 100" style="enable-background:new 0 0 250 100;" xml:space="preserve">
<style type="text/css">
	.st0{fill:#FFFFFF;}
	.st1{fill:#6DFCFF;}
	.st2{fill:#EF4444;}
</style>
<g>
	<rect x="19.2" y="23.6" class="st0" width="206.3" height="60.1"/>
	<g>
		<g>
			<path d="M237.8,92.7H5V7.3H245v85.5h-3.2c-0.2-0.3-0.2-0.6-0.2-0.9c0-0.3,0.1-2.5,0-2.5h-3.7C237.6,89.3,237.9,92.4,237.8,92.7z
				 M237.6,11.2H11.8v3.4h3.9v3.2h3.2c0,0,0.3,0.2,0.3,0.3v3.7h204.5v3.4h3.2V22c0,0,0.2-0.3,0.3-0.3h3.8v-3.9h3.2v-3.2h3.4V11.2z
				 M11.7,14.6H8.4v74.6h3.2v-3.9h3.9v-3.2c0,0,0.2-0.3,0.3-0.3H19v-7.2h-3.4V18h-3.9V14.6z M220.3,25.3H19.2v46h201.1V25.3z
				 M231,25.3h-3.9v56.5h3.9V25.3z M223.7,71.5h-3.2v3.2h3.2V71.5z M26.3,78.6h-3.7v3.2h3.7V78.6z M33.1,78.6h-3.4v3.2h3.4V78.6z
				 M40.3,78.6H37v3.2h3.2V78.6z M47.6,78.6h-3.7v3.2h3.7V78.6z M54.4,78.6h-3.2v3.2h3.2V78.6z M194.9,78.6h-3.2v3.2h3.2V78.6z
				 M202.2,78.6H199v3.2h3.2V78.6z M209.5,78.6h-3.7v3.2h3.7V78.6z M216.4,78.6h-3.2v3.2h3.2V78.6z M223.7,78.6h-3.2v3.2h3.2V78.6z
				 M234.2,82H231v3.2h3.2V82z M237.6,85.4h-3.2v3.7h3.2V85.4z"/>
			<path class="st1" d="M237.8,92.7c0.1-0.3-0.2-3.4,0-3.4h3.7c0.1,0,0,2.2,0,2.5c0,0.4-0.1,0.6,0.2,0.9H237.8z"/>
			<path class="st1" d="M237.6,11.2v3.4h-3.4v3.2H231v3.9h-3.8c0,0-0.3,0.2-0.3,0.3v3.2h-3.2v-3.4H19.2v-3.7c0,0-0.2-0.3-0.3-0.3
				h-3.2v-3.2h-3.9v-3.4H237.6z"/>
			<path class="st2" d="M11.7,14.6V18h3.9v56.7H19v7.2h-3.2c0,0-0.3,0.2-0.3,0.3v3.2h-3.9v3.9H8.4V14.6H11.7z"/>
			<rect x="227.1" y="25.3" class="st1" width="3.9" height="56.5"/>
			<rect x="234.4" y="85.4" class="st1" width="3.2" height="3.7"/>
			<rect x="231" y="82" class="st1" width="3.2" height="3.2"/>
		</g>
		<g>
			<g>
				<path d="M40.3,32.7H45v24.7h8.3v6.4h-13V32.7z"/>
				<path d="M55.3,32.7h14.1v6.4H60v5.5h8.1V51H60v6.4h9.6v6.4H55.3V32.7z"/>
				<path d="M77.8,32.7h4.7l7.1,31.1h-5.1l-1.2-6.5H77l-1.2,6.5h-5L77.8,32.7z M82.3,51.4l-2.1-11.5h0L78,51.4H82.3z"/>
				<path d="M91.4,32.7h8.8c4.1,0,6.7,3.2,6.7,8.9c0,4.4-1.5,6.9-3.8,7.8v0.1c4.7,1.3,3,13.4,4,13.9v0.4h-4.9
					C101.4,62.5,103.1,53,99,53h-2.9v10.8h-4.7V32.7z M99.3,46.6c1.9,0,2.9-1.1,2.9-3.7c0-2.6-1-3.7-2.9-3.7h-3.2v7.5H99.3z"/>
				<path d="M109.7,32.7h4.7l6.5,18.5h0V32.7h4.7v31.1h-4.7l-6.5-18.5h0v18.5h-4.7V32.7z"/>
				<path d="M134.9,32.7h5.7l3.8,19.9h0l3.9-19.9h5.7v31.1h-4.4V44.4h-0.1l-3.4,19.4h-3.3l-3.5-19.4h0v19.4h-4.4V32.7z"/>
				<path d="M156.7,48.2c0-9.2,3.4-16,9.3-16c5.9,0,9.2,6.7,9.2,16s-3.4,16-9.2,16C160.1,64.2,156.7,57.4,156.7,48.2z M166,57.8
					c3.4,0,4.4-4.4,4.4-9.6s-1-9.6-4.4-9.6c-3.4,0-4.4,4.3-4.4,9.6S162.6,57.8,166,57.8z"/>
				<path d="M177.9,32.7h8.8c4.1,0,6.7,3.2,6.7,8.9c0,4.4-1.5,6.9-3.8,7.8v0.1c4.7,1.3,3,13.4,4,13.9v0.4h-4.9
					c-0.9-1.3,0.8-10.8-3.2-10.8h-2.9v10.8h-4.7V32.7z M185.8,46.6c1.9,0,2.9-1.1,2.9-3.7c0-2.6-1-3.7-2.9-3.7h-3.2v7.5H185.8z"/>
				<path d="M196.1,32.7h14.1v6.4h-9.4v5.5h8.1V51h-8.1v6.4h9.6v6.4h-14.3V32.7z"/>
			</g>
		</g>
	</g>
</g>
</svg>
