<?xml version="1.0" encoding="utf-8"?>
<!-- Generator: Adobe Illustrator 26.0.2, SVG Export Plug-In . SVG Version: 6.00 Build 0)  -->
<svg version="1.1" id="Capa_1" xmlns="http://www.w3.org/2000/svg" xmlns:xlink="http://www.w3.org/1999/xlink" x="0px" y="0px"
	 viewBox="0 0 175 175" style="enable-background:new 0 0 175 175;" xml:space="preserve">
<style type="text/css">
	.st0{fill:#FFFFFF;}
</style>
<g>
	<g>
		<path class="st0" d="M70.4,98.9v4c-0.5,1-4.5,0.3-4.8,0.6l0.1,8.8l-0.2,0.3c-0.7,0.7-4.4-0.4-4.4,0.3v3.5h8l0.3-0.4
			c0-0.1-0.2-0.2-0.2-0.2v-3.6c0-1.2,4.2-0.2,4.6-0.5c0.7-1-0.2-3.3,0.2-4.2c0.7-1.5,3.3,0.1,4.5-0.8c0.5-1.2-0.7-3.8,0.6-4.5
			c0.5-0.3,4.2,0,4.3-0.1c0.1-1.5-0.6-3.2,0.4-4.6h9.6c0.9,0.8-0.2,4,0.6,4.7c1.4,0,3.2-0.6,4.3,0.5v13.9c-1,1-2.9,0.6-4.2,0.4
			l-0.3,0.3v4.1c-0.6,1.2-4.3,0.1-4.7,0.6l-0.1,4.3l-4.2,0l-0.4,0.3v3.8c0,0.1-0.3,0.4-0.2,0.6h-4l-0.4,0.4v3.6c0,0-0.4,0.4-0.5,0.5
			c-5.4,0.1-11,0.3-16.4,0.1c-0.4,0-1.8-0.5-1.8,0.1v4.1c0,0-0.6,0.6-0.6,0.6h-3.8c-1,0.7,0.4,4.6-0.7,4.6h-4.2v4.2
			c0,0.8-3.8,0.7-4.5,0.4l-0.3,0.3v4.1l-0.4,0.4h-3.8c-1,0.8,0.1,3.6-0.2,4.3c-0.5,1-3.5,0.1-4.3,0.5c-0.7,0.6,0.5,3.5-0.5,4.3
			c-1.4,0.5-2.8,0-4.2,0c-2,0-4,0-6,0c-1.4,0-3.2,0.6-4.4-0.4v-4c-1.6-0.6-3.1,0.5-4.8-0.2v-4.6h-4c-0.1,0-0.4-0.3-0.6-0.2v-5.2
			l0.4-0.4h3.8c0.1,0,0.5-0.4,0.5-0.6l0.1-13.2c0.4-0.7,3.5,0.2,4.4-0.3c0.7-0.9-0.3-3.8,0.3-4.4c0.8-0.8,3.6,0.2,4.5-0.7v-3.6
			c0.4-0.4,1.3-0.5,1.8-0.6c0.6-0.1,3,0.4,3-0.2v-3.8c0-1.1,3.9,0.1,4.5-0.6c-0.2-0.9,0.1-1.7,0.1-2.5c0-0.3-0.6-2.1,0.3-2.1H41
			c0.1,0,0.4-0.3,0.6-0.2c-0.2-0.6-0.3-3.9,0-4.3c1.2-0.5,2.7-0.4,3.9-0.1l0.4-0.3V93.7c0,0,0.6-0.6,0.6-0.6h3.8
			c0.8-1.3-0.2-3.5,0.7-4.8h4.2v-4c0-0.3,0.8-0.6,1.1-0.6c2.4-0.3,10.3-0.3,12.7,0c0.5,0.1,0.9,0.2,1.3,0.6l0.2,0.3
			c0,0.2-0.2,0.4-0.2,0.4v7.7l0.4,0.4h3.8l0.4,0.4v4.8C74.9,99.3,71.1,98.6,70.4,98.9z M69.2,94.1l-3.4,0.1
			c-0.4,0.3-0.2,2.7-0.1,3.3l3.5,0.2V94.1z M64.6,102.5V99l-0.4-0.3c-0.9,0.6-2.7-0.5-3.1,0.5c-0.2,0.4-0.3,3,0.1,3.3L64.6,102.5z
			 M56.2,103.4v7.8c0.5,0.4,3.4,0.9,3.7,0.4c0,0,0.1-1,0.1-1.1v-7C60.1,102.8,56.8,103.7,56.2,103.4z M92.7,103.5l-3.2-0.2l-0.6,0.6
			l0,12c0,0.9,3.6,0.7,3.8,0.1L92.7,103.5z M87.9,120.9l-0.1-3.3l-3.3-0.4c-0.2,0.1-0.5,3.6-0.4,3.7c0.3,0.5,2-0.1,2.6,0.2
			L87.9,120.9z M79.7,122.2l0.2,3.5c1.4-0.5,3.1,0.9,3.4-1C83.9,121.1,82.4,122.2,79.7,122.2z M61,126.5c0.1,0.9-0.5,3.6,0.6,3.8
			c0.3,0.1,0.9-0.2,1.4-0.2c5.1-0.1,10.2,0.2,15.3-0.1l0.2-0.3c0-0.7,0.3-3-0.4-3.2L61,126.5z M36.8,131.5l-3.4-0.1l-0.3,3.1
			c0.4,0.5,3.1,0.6,3.3,0.3C37.2,134.1,36.4,132.5,36.8,131.5z M59.8,134.9l0.2-3.3l-3.5-0.1l-0.1,3.3L59.8,134.9z M32.2,135.8h-3.6
			l0.1,3.4c0.3,0.4,2.7,0.2,3.3,0.1L32.2,135.8z M41.3,135.8H38l-0.1,3.4c0.3,0.4,3.3,0.4,3.6-0.2C41.5,138.8,41.4,136.3,41.3,135.8
			z M55.3,135.8h-3.6v3.6h3.6V135.8z M36.8,144c-0.4-0.8,0.1-2.3,0-2.9c-0.2-0.9-1.9-0.2-2.7-0.6c-1.7,0-0.8,2.7-0.6,3.7L36.8,144z
			 M50.7,140.7l-3.6-0.2L47,144l3.5,0.1L50.7,140.7z M45.9,145.2l-3.5,0.2l0.1,3.3l3.5-0.1L45.9,145.2z M22.6,150.1l-3.1-0.2
			l-0.3,3.4c0.3,0.4,3.5,0.2,3.6,0.1L22.6,150.1z M41.6,153.4l-0.1-3.1L38,150l-0.3,3.3C39,153.4,40.3,153.9,41.6,153.4z
			 M36.5,154.6H24.2c-0.6,0.4-0.5,3.2-0.1,3.5l12.3-0.2c0.7-0.2,0.2-0.8,0.2-1.3C36.6,155.9,37,155.4,36.5,154.6z"/>
		<path class="st0" d="M55.2,49.2c0.3,1.9,0.4,3.9,0,5.8h-4.3l-0.1,4.3c-0.1,0.1-0.5,0.3-0.5,0.3h-3.8l-0.3,0.6
			c-0.1,2.3,0.6,5.5,0.2,7.7c-0.1,0.3-0.7,1.1-0.8,1.1h-3.7c-0.2,0.8-0.4,1.9-0.2,2.8c0.2,1.4,2.1,0.6,3,0.6c0.5,0,0.9,0.2,1.4,0.2
			c2.5,0,5.2-0.4,7.7-0.2c2.9,0.3,1.7,3.7,1.5,5.8h-4c-1,0.7,0.4,4.6-0.7,4.6h-4.1l-0.3,0.4c0,0.3,0.2,0.6,0.2,0.9
			c0,0.7,0,3.5-0.6,3.5H37l-0.3,0.3c0.3,0.7,0.4,4.2-0.4,4.2h-3.8c-1,0.6,0.4,4.8-0.7,4.8H27c-1-0.7-0.3-1.5-0.4-2.3
			c0-0.6-0.7-3.5,0.4-3.5h4.2v-4.2c0-1.1,4.1-0.3,4.5-0.6c0.8-0.7-0.3-3.7,0.7-4.6h4.2c-0.1-0.7,0.4-3.3-0.4-3.6l-13.3,0.1
			c-0.3-0.3-0.4-0.7-0.5-1.2c0-0.4,0-4,0.1-4.2c0.7-1.1,3.8,0.1,4.7-0.6v-3.6c0-0.1,0.3-0.4,0.2-0.6h4.3c0-0.9,0.2-1.9,0.3-2.7
			c0-0.6-0.5-1.1,0-1.7c0.5-0.6,3.4-0.4,4.2-0.2l0.3-0.3v-3.8c0-1.6,3.8,0.1,4.6-1v-3.8c0,0,0.6-0.6,0.6-0.6h4l0-4.2
			c0-0.2,0.5-0.4,0.6-0.4H55.2z"/>
		<path class="st0" d="M132.8,97.5c0.3,1.9,0.4,3.9,0,5.8h-4.3l-0.1,4.3c-0.1,0.1-0.5,0.3-0.5,0.3H124l-0.3,0.6
			c-0.1,2.3,0.6,5.5,0.2,7.7c-0.1,0.3-0.7,1.1-0.8,1.1h-3.7c-0.2,0.8-0.4,1.9-0.2,2.8c0.2,1.4,2.1,0.6,3,0.6c0.5,0,0.9,0.2,1.4,0.2
			c2.5,0,5.2-0.4,7.7-0.2c2.9,0.3,1.7,3.7,1.5,5.8h-4c-1,0.7,0.4,4.6-0.7,4.6H124l-0.3,0.4c0,0.3,0.2,0.6,0.2,0.9
			c0,0.7,0,3.5-0.6,3.5h-8.6l-0.3,0.3c0.3,0.7,0.4,4.2-0.4,4.2h-3.8c-1,0.6,0.4,4.8-0.7,4.8h-4.8c-1-0.7-0.3-1.5-0.4-2.3
			c0-0.6-0.7-3.5,0.4-3.5h4.2V135c0-1.1,4.1-0.3,4.5-0.6c0.8-0.7-0.3-3.7,0.7-4.6h4.2c-0.1-0.7,0.4-3.3-0.4-3.6l-13.3,0.1
			c-0.3-0.3-0.4-0.7-0.5-1.2c0-0.4,0-4,0.1-4.2c0.7-1.1,3.8,0.1,4.7-0.6v-3.6c0-0.1,0.3-0.4,0.2-0.6h4.3c0-0.9,0.2-1.9,0.3-2.7
			c0-0.6-0.5-1.1,0-1.7c0.5-0.6,3.4-0.4,4.2-0.2l0.3-0.3v-3.8c0-1.6,3.8,0.1,4.6-1v-3.8c0,0,0.6-0.6,0.6-0.6h4l0-4.2
			c0-0.2,0.5-0.4,0.6-0.4H132.8z"/>
	</g>
	<path class="st0" d="M114.9,30l3.5-0.2c0.4-1-0.4-4,0.6-4.5l4.2-0.1l0.1-4.6h14.5c1,0.7,0.1,4,0.5,4.6l0.5,0.2l3.6-0.2
		c0.2,0,0.6,0.5,0.6,0.5v3.8c0.6,1,4.6-0.4,4.6,0.7v4.2h4c0.1,0,0.7,0.4,0.7,0.5c-0.1,4.2,0.6,9.2,0.1,13.3
		c-0.1,0.5-0.2,1.3-0.8,1.3h-3.8l-0.3,0.3c0.3,1.3,0.3,2.9-0.1,4.2h-4c-0.6,0.8-0.5,2.5-0.4,3.6h13.3c0,0,0.6,0.6,0.6,0.6v4.2h3.5
		c0.2,0,1.1-0.1,1.1,0.4v13.7c0,0-0.6,0.6-0.6,0.6h-4v4.2c0,1.1-4.1,0.3-4.4,0.6c-0.7,0.5,0.5,4.6-0.7,4.6h-4.2v4.2
		c0,0.1-0.3,0.4-0.2,0.6h-14.3c0,0-0.6-0.6-0.6-0.6v-4.2h-4.2l-0.4-0.4V72.7h-3.4c0.1,0.2-0.2,0.5-0.2,0.6v3.6l-0.4,0.4h-9v4.2
		c0,0-0.6,0.6-0.6,0.6h-4.2v4.2c0,0.5-0.7,0.4-0.8,0.4h-4.1c0,0-0.6-0.6-0.6-0.6v-4.6c0,0,0.6-0.6,0.6-0.6h3.8l0.3-0.3
		c-0.3-0.7-0.4-4.2,0.4-4.2h4.2v-8l-0.4-0.3l-3.3,0.2l-0.2,4.3l-0.5,0.4c-4.5-0.8-4.2,0.4-3.7,4.2c-0.2,0-0.5,0.3-0.6,0.3h-8.8v4.2
		c0,0-0.6,0.6-0.6,0.6H92l-0.3,0.3c0.3,1.3,0.3,2.9-0.1,4.2h-4.2L87.1,87v4.2c-0.2-0.1-0.5,0.2-0.6,0.2h-4.9
		c0.1-0.2-0.2-0.5-0.2-0.6v-4.6c0-1.4,3.9-0.1,4.7-0.8c0.4-0.6-0.1-2.7-0.1-3.5c0.1-2.1,3.3-0.6,4.7-1.1v-3.7c0-0.1,0.6-1,0.9-1
		l3.9,0.2v-8.8c0.7-1.2,3.6-0.1,4.2-0.6c0.8-0.7-0.5-3.7,0.6-4.2c1-0.5,3.7,0.4,4.3-0.5c0.4-0.5-0.3-2.1,0.2-2.9
		c0-0.2-0.5-0.6-0.5-0.6h-7.7c-0.6,0-0.1,1.3-0.1,1.6c0,0.6,0.1,2.3-0.1,2.8c-0.2,0.1-0.6,0.5-0.7,0.5h-3.7v4
		c-1.6,0.9-4.2,0.8-5.8,0v-3.8c0-2.5,3.1-0.2,4.6-1.4v-3.8c0,0,0.6-0.6,0.6-0.6h3.8l0.4-0.4v-7.9c0-2.3,3-0.4,4.5-1.3l0.1-3
		l-0.3-0.4H86.5c-1.1-1.2,0.3-3.3-0.7-4.6h-3.8c-0.1,0-0.4-0.3-0.6-0.2V25.8c1.2-1.1,3.5,0.1,4.8-0.7V21l0.4-0.4h3.8l0.4-0.4v-3.8
		c0-1,4.1-0.2,4.8-0.6v-4.2c0-0.1,0.6-0.5,0.8-0.5l13.2,0c0.2,0,0.6,0.4,0.6,0.5v4.1l0.4,0.3c1.3,0.1,3.5-0.6,4.4,0.4V30z
		 M100.7,21.6c-1.1,0.2-2.7-0.1-3.8,0c-0.4,0-0.5,3.3-0.4,3.5c0.5,0.6,3.8-0.2,4.6,0.5c0.5,0.6,0.2,3.3,0,4.2c0.6,0,3.6,0.5,3.6-0.1
		V26c0-0.1,0.7-0.8,0.9-0.8c0.4-0.1,0.8,0.2,1.2,0.2c0.8,0,1.5-0.3,2.3-0.1l0.1-3.5l-2.7-0.2c-0.7,0.3-1.1,0-1.8-0.3l0.2-3.9
		c-0.2-0.6-3.5-0.5-3.7-0.2l0.2,3.9C101.2,21.3,100.8,21.5,100.7,21.6z M95.5,26.4h-3.6v4c0,0.1-0.2,0.6-0.4,0.6L87.3,31l-0.2,3.5
		h4.2c0,0,0.6,0.6,0.6,0.6v4h3.6v-4c0-0.1,0.3-0.4,0.2-0.6h4c0.7-0.8,0.3-2.3,0.3-3.3c-0.8-0.8-4.5,0.4-4.5-0.6V26.4z M132.5,26.4
		l-3.5,0.2l0.1,3.3l3.4,0.1V26.4z M110.1,30.9v3.5c0.2,0.2,0.2,0.3,0.5,0.3c1,0,2.3-0.3,3.4-0.1l-0.1-3.4L110.1,30.9z M127.9,30.9
		l-3.4,0.1c-0.5,0.3-0.1,2.8-0.2,3.5h3.6V30.9z M132.5,48.4v-4c0,0,0.6-0.6,0.6-0.6h3.8l0.4-0.4v-3.8c0-1.2,4-0.1,4.4-0.8l-0.1-3.3
		c-1.4-0.1-3.1,0.6-4.3-0.5v-3.8l-0.4-0.3l-3.2,0.2v4c-1.1,1.1-2.9,0.3-4.2,0.4c-1,0.1-0.4,1-0.4,1.5c0,0.4-0.2,0.7-0.2,1.2
		c0,0.3,0.5,2.1-0.3,2.1h-4.2v4.2l-0.4,0.4h-4.1c-1,0.8,0.2,3.8-0.4,4.5c-0.5,0.5-3.3,0.3-4.2,0.1l-0.3,0.3v3.8
		c0,0.1-0.3,0.4-0.2,0.6h-4.2c-0.6,0.4-0.5,3.5-0.1,3.7c0.2,0.1,0.3-0.1,0.4-0.1h3.8l0.4,0.4v4.4h3.6v-4.4l0.4-0.4h4.1l0.3-0.4
		c-0.2-0.5-0.2-3.6,0-3.8c0.9-1.1,3.6,0.3,4.6-0.7V49c0-0.1,0.3-0.4,0.2-0.6H132.5z M123.1,39c0.3-0.2,0.5-3.2,0-3.5l-3.4,0
		l-0.1,3.3L123.1,39z M104.6,40.3l-3.5,0.2l0.2,3.3c0.8-0.3,2.8,0.2,3.2-0.2C104.7,43.1,104.9,40.5,104.6,40.3z M118.5,40.3h-3.6
		v3.6h3.6V40.3z M143,40.3v3.6l3.3,0l0.2-3.2l-0.4-0.4L143,40.3z M114,44.8h-3.8v3.6h3.8V44.8z M138.6,44.9
		c-0.7,0.2-0.4,2.7-0.3,3.3l3.3,0.1l0.1-3.3L138.6,44.9z M106,49.7c-0.6,0.2-0.5,3.1-0.3,3.3c0.2,0.2,3,0.3,3.3,0.1
		c0.7-0.4,0-2.4,0.4-3.3L106,49.7z M137.3,49.6h-3.6l0.1,3.4c0.3,0.4,2.7,0.2,3.3,0.1L137.3,49.6z M132.5,57.8l-0.2-3.5l-3.3,0.1
		l0.1,3.3L132.5,57.8z M127.9,62.6v-3.5c-0.4-0.5-3.1-0.5-3.4-0.3l-0.1,3.5L127.9,62.6z M138.5,62.6l3.2-0.2l-0.1-3.5l-3.3,0.1
		L138.5,62.6z M123.1,63.3l-3.5,0.2l0.2,3.6c1.2-0.2,2.2-0.3,3.3,0C123.4,65.9,123.5,64.5,123.1,63.3z M147.6,76.3l3.5-0.2
		c0.4-1.3-0.4-2.9,0.2-4.1c0.7-1.3,4.2,0.4,4.6-0.9c0.2-0.5-0.1-2.9-0.4-3.1c-0.7-0.1-4.3,0.3-4.3-0.5v-3.6
		c-0.9-0.7-2.5-0.2-3.6-0.4v4c-1.2,0.9-2.9,0.3-4.3,0.5c-0.2,0.1-0.4,2.8-0.4,3.1c0.1,1.1,4.7-0.6,4.7,1.2V76.3z M132.5,71.5
		l-0.2-3.5l-3.1-0.1l-0.2,3.5L132.5,71.5z M146.6,77.2h-4.4c-0.9,0,0-3.6-0.5-4.3l-3.1-0.2c-0.2,0-0.4,0.5-0.4,0.6v3.6
		c-0.8,0.9-3.6-0.1-4.3,0.5l-0.2,3.5h4c0.1,0,0.6,0.2,0.6,0.4l0.1,4.2c0.2,0.3,3.1,0.4,3.5-0.1v-4.2c0.2,0.1,0.5-0.2,0.6-0.2h4.2
		V77.2z"/>
</g>
</svg>
