<?xml version="1.0" encoding="utf-8"?>
<!-- Generator: Adobe Illustrator 26.0.2, SVG Export Plug-In . SVG Version: 6.00 Build 0)  -->
<svg version="1.1" id="Capa_1" xmlns="http://www.w3.org/2000/svg" xmlns:xlink="http://www.w3.org/1999/xlink" x="0px" y="0px"
	 viewBox="0 0 175 175" style="enable-background:new 0 0 175 175;" xml:space="preserve">
<style type="text/css">
	.st0{fill:#FFFFFF;}
</style>
<g>
	<path class="st0" d="M127.1,24.3c-1.1,0-2.1,0-3.2,0c0,1.1,0,2.3,0,3.4c1.1,0,2.1,0,3.2,0C127.1,26.6,127.1,25.4,127.1,24.3z"/>
	<path class="st0" d="M156.8,27.6c1.1,0.2,2.1,0.1,3.2,0.1c0-1.1,0-2.3,0-3.4c-1.1,0-2.3,0-3.4,0C156.6,24.9,156.4,27.4,156.8,27.6z
		"/>
	<path class="st0" d="M150.2,21.1c0-1.1,0.3-2.6-0.3-3.4h-16.1c0,1.1,0,2.3,0,3.4C139.2,21.1,144.7,21.1,150.2,21.1z"/>
	<path class="st0" d="M127.1,60.4c0,1.1,0,2.1,0,3.2c2.2,0,4.4,0,6.6,0c0-1.1,0-2.1,0-3.2C131.5,60.4,129.3,60.4,127.1,60.4z"/>
	<path class="st0" d="M150.2,60.4c0,1.1,0,2.1,0,3.2c2.1,0,4.3,0,6.4,0c0-1.1,0-2.1,0-3.2C154.4,60.4,152.3,60.4,150.2,60.4z"/>
	<path class="st0" d="M133.7,24.3c0-1.1,0-2.1,0-3.2c-2.2,0-4.4,0-6.6,0c0,1.1,0,2.1,0,3.2C129.3,24.3,131.5,24.3,133.7,24.3z"/>
	<path class="st0" d="M150.2,24.3c2.1,0,4.3,0,6.4,0c0-1.1,0-2.1,0-3.2c-2.1,0-4.3,0-6.4,0C150.2,22.2,150.1,23.2,150.2,24.3z"/>
	<path class="st0" d="M133.7,63.6c0,1.1,0,2.3,0,3.4h16.4c0-1.1,0-2.3,0-3.4C144.7,63.6,139.2,63.6,133.7,63.6z"/>
	<path class="st0" d="M150.2,30.9v3.2H147v3.1l-0.3,0.3h-3.1v9.8h3.1l0.3,0.3l0.1,2.9h3.2v3.2h9.8c0,1.1,0,2.3,0,3.4
		c1.1,0,2.1,0,3.2,0c0-2.2,0-4.4,0-6.6c-1.1,0-2.1,0-3.2,0v-6.6h3.2v6.6c1.1,0,2.3,0,3.4,0V34.4l-0.3-0.3h-3.1v-6.4
		c-1.1,0-2.1,0-3.2,0c0,1.1,0,2.1,0,3.2H150.2z M156.6,40.7h-3.2v-3.2h3.2V40.7z"/>
	<path class="st0" d="M156.6,60.4c1.1,0,2.3,0,3.4,0c0-1.1,0-2.1,0-3.2c-1.1,0-2.3,0-3.4,0C156.6,58.2,156.6,59.3,156.6,60.4z"/>
	<path class="st0" d="M127.1,57.2c-1.1,0-2.1,0-3.2,0c0,1.1,0,2.1,0,3.2c1.1,0,2.1,0,3.2,0C127.1,59.3,127.1,58.2,127.1,57.2z"/>
	<path class="st0" d="M120.5,56.9c0.8,0.6,2.3,0.3,3.4,0.3c0-2.2,0-4.4,0-6.6h-3.2V34.1h3.2c0-2.1,0-4.3,0-6.4c-1.1,0-2.3,0-3.4,0
		v6.4h-3.2v16.4h3.2V56.9z"/>
	<path class="st0" d="M28.8,126c-1.1,0-2.3,0-3.4,0c0,2.2,0,4.4,0,6.6c1.1,0,2.3,0,3.4,0C28.8,130.5,28.8,128.2,28.8,126z"/>
	<path class="st0" d="M32,158.9c0,1.1,0,2.1,0,3.2c2.2,0,4.4,0,6.6,0c0-1.1,0-2.1,0-3.2C36.4,158.9,34.2,158.9,32,158.9z"/>
	<path class="st0" d="M61.6,155.7c-0.2,1.1-0.1,2.1-0.1,3.2c1.1,0,2.3,0,3.4,0c0-1.1,0-2.3,0-3.4C64.2,155.5,61.8,155.3,61.6,155.7z
		"/>
	<path class="st0" d="M28.8,145.7c0-2.1,0-4.3,0-6.4h6.6v6.4C33.2,145.7,31,145.7,28.8,145.7c0,1.1,0,2.3,0,3.4c1.1,0,2.1,0,3.2,0
		v3.2h9.8v-3.2H45V146l0.3-0.3h3.1v-9.8H45v-3.2h-3.2v-3.2H32v3.2c-1.1,0-2.1,0-3.2,0c0,1.1,0,2.1,0,3.2h-3.4c0-1.1,0-2.1,0-3.2
		c-1.1,0-2.1,0-3.2,0v16.4c1.1,0,2.1,0,3.2,0c0-1.1,0-2.3,0-3.4C26.5,145.7,27.7,145.7,28.8,145.7z M38.6,135.9h3.2v3.4h-3.2V135.9z
		"/>
	<path class="st0" d="M28.8,155.5c0,1.1,0,2.3,0,3.4c1.1,0,2.1,0,3.2,0c0-1.1,0-2.3,0-3.4C30.9,155.5,29.9,155.5,28.8,155.5z"/>
	<path class="st0" d="M32,122.8c-1.1,0-2.1,0-3.2,0c0,1.1,0,2.1,0,3.2c1.1,0,2.1,0,3.2,0C32,125,32,123.9,32,122.8z"/>
	<path class="st0" d="M38.6,162.1c0,1.1,0,2.3,0,3.4h16.1c0.6-0.8,0.3-2.3,0.3-3.4C49.6,162.1,44.1,162.1,38.6,162.1z"/>
	<path class="st0" d="M55.1,119.4c0-1.1,0-2.1,0-3.2H38.6c0,1.1,0,2.1,0,3.2C44.1,119.4,49.6,119.4,55.1,119.4z"/>
	<path class="st0" d="M64.9,149.1c0,2.1,0,4.3,0,6.4c1.1,0,2.1,0,3.2,0c0-2.1,0-4.3,0-6.4C67,149.1,65.9,149.1,64.9,149.1z"/>
	<path class="st0" d="M25.4,149.1c0,2.1,0,4.3,0,6.4c1.1,0,2.3,0,3.4,0c0-2.1,0-4.3,0-6.4C27.7,149.1,26.5,149.1,25.4,149.1z"/>
	<path class="st0" d="M64.9,126c0-1.1,0-2.1,0-3.2c-1.1,0-2.3,0-3.4,0c0,1.1,0,2.1,0,3.2C62.6,126,63.7,126,64.9,126z"/>
	<path class="st0" d="M61.5,122.8c0-1.1,0-2.3,0-3.4c-2.1,0-4.3,0-6.4,0c0,1.1,0,2.3,0,3.4C57.2,122.8,59.3,122.8,61.5,122.8z"/>
	<path class="st0" d="M68.1,149.1c1.1,0,2.6,0.3,3.4-0.3v-16.1c-1.1,0-2.3,0-3.4,0C68.1,138.1,68.1,143.6,68.1,149.1z"/>
	<path class="st0" d="M64.9,132.7c1.1,0,2.1,0,3.2,0c0-2.2,0-4.4,0-6.6c-1.1,0-2.1,0-3.2,0C64.9,128.2,64.9,130.5,64.9,132.7z"/>
	<path class="st0" d="M38.6,122.8c0-1.1,0-2.3,0-3.4c-2.2,0-4.4,0-6.6,0c0,1.1,0,2.3,0,3.4C34.2,122.8,36.4,122.8,38.6,122.8z"/>
	<path class="st0" d="M55.1,158.9c0,1.1,0,2.1,0,3.2c2.1,0,4.3,0,6.4,0c0-1.1,0-2.1,0-3.2C59.3,158.9,57.2,158.9,55.1,158.9z"/>
	<path class="st0" d="M162.5,122.7c0-1.1,0-2.1,0-3.2c-1.1,0-2.3,0-3.4,0c0,1.1,0,2.1,0,3.2C160.3,122.7,161.4,122.7,162.5,122.7z"
		/>
	<path class="st0" d="M129.7,119.5c-1.1,0-2.1,0-3.2,0c0,1.1,0,2.1,0,3.2c1.1,0,2.1,0,3.2,0C129.7,121.7,129.6,120.6,129.7,119.5z"
		/>
	<path class="st0" d="M136.3,119.5c0-1.1,0-2.3,0-3.4c-2.2,0-4.4,0-6.6,0c0,1.1,0,2.3,0,3.4C131.9,119.5,134.1,119.5,136.3,119.5z"
		/>
	<path class="st0" d="M162.5,145.8c0,2.1,0,4.3,0,6.4c1.1,0,2.1,0,3.2,0c0-2.1,0-4.3,0-6.4C164.7,145.8,163.6,145.8,162.5,145.8z"/>
	<path class="st0" d="M126.5,122.7c-1.1,0-2.3,0-3.4,0c0,2.2,0,4.4,0,6.6c1.1,0,2.3,0,3.4,0C126.5,127.1,126.4,124.9,126.5,122.7z"
		/>
	<path class="st0" d="M162.5,129.3c1.1,0,2.1,0,3.2,0c0-2.2,0-4.4,0-6.6c-1.1,0-2.1,0-3.2,0C162.6,124.9,162.5,127.1,162.5,129.3z"
		/>
	<path class="st0" d="M165.7,129.3c0,5.5,0,11,0,16.4c1.1,0,2.6,0.3,3.4-0.3v-16.1C168,129.3,166.9,129.4,165.7,129.3z"/>
	<path class="st0" d="M152,116.1c0.3,0,0.5,0,0.7,0.3v3.1c2.1,0,4.3,0,6.4,0c0-1.1,0-2.3,0-3.4h-6.4v-3.2h-16.4c0,1.1,0,2.1,0,3.2
		C140.9,116.1,147.6,115.6,152,116.1z"/>
	<path class="st0" d="M155.9,149h-3.2v-3.2h-3.4v-3.4h-9.5l-0.3,0.3v3.1h-3.2v3.2h-3.2v6.3c-0.8,0.6-2.3,0.3-3.4,0.3
		c0,1.1,0,2.1,0,3.2h6.6v3.4h16.1l0.3-0.3v-3.1h6.4c0-1.1,0-2.1,0-3.2c-1.1,0-2.1,0-3.2,0V149z M139.5,149h3.4v3.2h-3.4V149z
		 M149.3,158.8h-6.4v-3.2h6.4V158.8z"/>
	<path class="st0" d="M126.5,152.2c0,1.1,0,2.3,0,3.4c1.1,0,2.1,0,3.2,0c0-1.1,0-2.3,0-3.4C128.6,152.2,127.5,152.2,126.5,152.2z"/>
	<path class="st0" d="M159.3,152.3c-0.4,0.3-0.2,2.7-0.2,3.3c1.1,0,2.3,0,3.4,0c0-1.1,0-2.3,0-3.4
		C161.5,152.2,160.4,152.1,159.3,152.3z"/>
	<path class="st0" d="M126.5,145.8h-3.1c-0.3-0.2-0.3-0.4-0.3-0.7c-0.5-4.4,0-11.1,0-15.7c-1.1,0-2.1,0-3.2,0v16.4h3.2v6.4
		c1.1,0,2.3,0,3.4,0C126.4,150.1,126.5,147.9,126.5,145.8z"/>
	<path class="st0" d="M69.8,102.2V99c-1.1,0-2.3,0-3.4,0c0,1.1,0,2.1,0,3.2h3.2v3.2c2.2,0,4.4,0,6.6,0c0-1.1,0-2.1,0-3.2H69.8z"/>
	<path class="st0" d="M105.9,69.5c-1.1,0-2.3,0-3.4,0c0,2.1,0,4.3,0,6.4h3.2v16.4h-3.2c0,2.2,0,4.4,0,6.6c1.1,0,2.6,0.3,3.4-0.3
		v-6.3h3.2V75.9h-3.2V69.5z"/>
	<path class="st0" d="M66.4,75.9c0-2.1,0-4.3,0-6.4c-1.1,0-2.1,0-3.2,0c0,2.1,0,4.3,0,6.4C64.2,75.9,65.3,75.9,66.4,75.9z"/>
	<path class="st0" d="M102.4,69.5c0-1.1,0-2.3,0-3.4c-1.1,0-2.1,0-3.2,0c0,1.1,0,2.3,0,3.4C100.3,69.5,101.4,69.5,102.4,69.5z"/>
	<path class="st0" d="M69.6,69.5c0-1.1,0-2.3,0-3.4c-1.1,0-2.1,0-3.2,0c0,1.1,0,2.3,0,3.4C67.4,69.5,68.5,69.5,69.6,69.5z"/>
	<path class="st0" d="M76.2,108.8h16.4c0-1.1,0-2.3,0-3.4c-5.5,0-11,0-16.4,0C76.2,106.5,76.2,107.6,76.2,108.8z"/>
	<path class="st0" d="M66.4,92.3c-1.1,0-2.1,0-3.2,0c0,2.2,0,4.4,0,6.6c1.1,0,2.1,0,3.2,0C66.3,96.8,66.4,94.5,66.4,92.3z"/>
	<path class="st0" d="M63.2,75.9c-1.1,0-2.6-0.3-3.4,0.3v16.1c1.1,0,2.3,0,3.4,0C63.1,86.9,63.2,81.4,63.2,75.9z"/>
	<path class="st0" d="M73,72.7h3.2v3.2h16.4c0-1.1,0-2.1,0-3.2c-2.2,0-4.4,0-6.6,0v-3.2l6.6-0.2c0,1.1,0,2.3,0,3.4
		c1.1,0,2.1,0,3.2,0v-6.6c1.1,0,2.3,0,3.4,0c0-1.1,0-2.1,0-3.2h-6.6v-3.4H76.2v3.4h-6.6c0,1.1,0,2.1,0,3.2c1.1,0,2.3,0,3.4,0V72.7z
		 M79.6,62.9h3.2v3.2h-3.2V62.9z"/>
	<path class="st0" d="M99.2,99c0,1.1,0,2.1,0,3.2c1.1,0,2.1,0,3.2,0c0-1.1,0-2.1,0-3.2C101.4,99,100.3,98.9,99.2,99z"/>
	<path class="st0" d="M92.6,102.2c0,1.1,0,2.1,0,3.2c2.2,0,4.4,0,6.6,0c0-1.1,0-2.1,0-3.2C97,102.2,94.8,102.1,92.6,102.2z"/>
	<path class="st0" d="M51.7,42.3c1.1,0,2.1,0,3.2,0V25.9c-1.1,0-2.1,0-3.2,0C51.8,31.4,51.8,36.9,51.7,42.3z"/>
	<path class="st0" d="M15.7,49h-3.2v-6.6c-1.1,0-2.3,0-3.4,0c0,2.2,0,4.4,0,6.6h3.2v3.2c1.1,0,2.3,0,3.4,0
		C15.6,51.1,15.7,50,15.7,49z"/>
	<path class="st0" d="M48.5,42.3c0,2.2,0,4.4,0,6.6c1.1,0,2.1,0,3.2,0c0-2.2,0-4.4,0-6.6C50.7,42.4,49.6,42.3,48.5,42.3z"/>
	<path class="st0" d="M45.1,52.2c1.1,0,2.3,0,3.4,0c0-1.1,0-2.1,0-3.2c-1.1,0-2.3,0-3.4,0C45.1,50,45.1,51.1,45.1,52.2z"/>
	<path class="st0" d="M48.5,19.5c0-1.1,0.1-2.2-0.1-3.2c-0.2-0.4-2.7-0.2-3.3-0.2c0,1.1,0,2.3,0,3.4C46.3,19.5,47.4,19.5,48.5,19.5z
		"/>
	<path class="st0" d="M38.5,9.5H22.3c0,1.1,0,2.3,0,3.4c5.4,0,10.8,0,16.2,0C38.5,11.7,38.5,10.6,38.5,9.5z"/>
	<path class="st0" d="M22.3,16.1c0-1.1,0-2.1,0-3.2c-2.2,0-4.4,0-6.6,0c0,1.1,0,2.1,0,3.2C17.9,16.1,20.1,16.1,22.3,16.1z"/>
	<path class="st0" d="M45.1,16.1c0-1.1,0-2.1,0-3.2c-2.2,0-4.4,0-6.6,0c0,1.1,0,2.1,0,3.2C40.7,16.1,42.9,16.1,45.1,16.1z"/>
	<path class="st0" d="M15.7,16.1c-1.1,0-2.3,0-3.4,0c0,1.1,0,2.3,0,3.4c1.1,0,2.3,0,3.4,0C15.7,18.4,15.7,17.2,15.7,16.1z"/>
	<path class="st0" d="M12.5,20.4c0-0.4-0.2-0.8-0.2-0.9c-1.1,0-2.1,0-3.2,0c0,2.1,0,4.3,0,6.4c1.1,0,2.3,0,3.4,0
		C12.4,24.1,12.5,22.3,12.5,20.4z"/>
	<path class="st0" d="M48.3,25.9c1.1,0,2.3,0,3.4,0c0-2.1,0-4.3,0-6.4c-1.1,0-2.1,0-3.2,0c0,0.2-0.2,0.5-0.2,0.9
		C48.3,22.3,48.4,24.1,48.3,25.9z"/>
	<path class="st0" d="M9,25.9c-1.1,0-2.1,0-3.2,0v16.4c1.1,0,2.1,0,3.2,0C9,36.9,9,31.4,9,25.9z"/>
	<path class="st0" d="M22.3,58.8h16.2v-3.1l0.3-0.3h6.3c0-1.1,0-2.1,0-3.2c-2.2,0-4.4,0-6.6,0v3.2H22.3v-3.2c-2.2,0-4.4,0-6.6,0
		c0,1.1,0,2.1,0,3.2H22l0.3,0.3V58.8z"/>
	<path class="st0" d="M22.3,39.1v3.2h3.2v3.2h9.8c0-1.1,0-2.1,0-3.2c-2.2,0-4.4,0-6.6,0V36l0.3-0.3h6.3c0,2.2,0,4.4,0,6.6
		c1.1,0,2.1,0,3.2,0v-3.2h3.1l0.3-0.3v-9.5h-3.1L38.5,29v-3.1h-3.2v-3.2h-9.8v3.2h-3.2V29L22,29.3h-3.1v9.5l0.3,0.3H22.3z
		 M25.5,29.3h3.2v3.2h-3.2V29.3z"/>
</g>
</svg>
