<svg xmlns="http://www.w3.org/2000/svg" xmlns:xlink="http://www.w3.org/1999/xlink" viewBox="0 0 46 46"><defs><style>.cls-1,.cls-2{fill:#6dfcff;}.cls-1,.cls-5{stroke:#ef4444;stroke-miterlimit:10;}.cls-3{clip-path:url(#clip-path);}.cls-4{fill:#020c2d;}.cls-5{fill:none;}</style><clipPath id="clip-path"><path class="cls-1" d="M39.86,25.06c.54-.12,1.22-.21,1.73-.3,1.62-.27,3-.62,3.08-1.76s-1.46-1.49-3.08-1.76c-.51-.09-1.19-.18-1.73-.3s-1-.25-1-.46c-.06-.4,1.43-1.06,2.35-1.55a8.79,8.79,0,0,0,1.86-1.18,2,2,0,0,0,.5-.68,1,1,0,0,0,0-.76c-.39-1.07-1.81-1-3.46-.73-1.06.16-2.64.5-2.81.13s1-1.44,1.74-2.21a9.23,9.23,0,0,0,1.41-1.7,2.11,2.11,0,0,0,.27-.8,1.09,1.09,0,0,0-.23-.72,1.33,1.33,0,0,0-1.45-.44,8.94,8.94,0,0,0-2.07.82c-1,.48-2.35,1.27-2.62,1s.49-1.66,1-2.63a8.88,8.88,0,0,0,.82-2.06,1.33,1.33,0,0,0-.44-1.45A1.09,1.09,0,0,0,35,5.26a1.81,1.81,0,0,0-.8.27,8.55,8.55,0,0,0-1.7,1.41c-.77.74-1.83,1.9-2.21,1.74s0-1.75.12-2.82c.26-1.64.35-3.07-.72-3.46a1,1,0,0,0-.76,0,2,2,0,0,0-.68.5,8.79,8.79,0,0,0-1.18,1.86c-.5.92-1.15,2.41-1.56,2.35-.21,0-.34-.45-.46-1s-.21-1.22-.3-1.73c-.26-1.62-.61-3-1.75-3.08s-1.49,1.46-1.76,3.08c-.09.51-.18,1.18-.3,1.73s-.25,1-.46,1c-.41.06-1.06-1.43-1.56-2.35a8.41,8.41,0,0,0-1.18-1.86,1.93,1.93,0,0,0-.67-.5,1.07,1.07,0,0,0-.77,0c-1.07.4-1,1.82-.72,3.46.15,1.07.49,2.65.12,2.82s-1.44-1-2.21-1.74a9.23,9.23,0,0,0-1.7-1.41,2.11,2.11,0,0,0-.8-.27,1.09,1.09,0,0,0-.72.23,1.33,1.33,0,0,0-.44,1.45A8.94,8.94,0,0,0,10.66,9c.48,1,1.27,2.35,1,2.62S10,11.13,9,10.66a8.53,8.53,0,0,0-2.06-.83,1.33,1.33,0,0,0-1.45.44,1.09,1.09,0,0,0-.23.72,1.81,1.81,0,0,0,.27.8,8.55,8.55,0,0,0,1.41,1.7c.74.78,1.9,1.83,1.74,2.21s-1.75,0-2.82-.12c-1.64-.26-3.07-.35-3.46.72a1,1,0,0,0,0,.77,1.93,1.93,0,0,0,.5.67,8.06,8.06,0,0,0,1.86,1.18c.92.5,2.41,1.15,2.35,1.56,0,.21-.45.35-1,.46s-1.22.21-1.73.3c-1.62.27-3,.62-3.08,1.76s1.46,1.49,3.08,1.76c.51.09,1.19.18,1.73.3s1,.25,1,.46c.06.4-1.43,1.06-2.35,1.55a8.79,8.79,0,0,0-1.86,1.18,2,2,0,0,0-.5.68,1,1,0,0,0,0,.76c.39,1.07,1.81,1,3.46.73,1.06-.16,2.64-.5,2.81-.13s-1,1.44-1.74,2.21a9.23,9.23,0,0,0-1.41,1.7,2.11,2.11,0,0,0-.27.8,1.09,1.09,0,0,0,.23.72,1.33,1.33,0,0,0,1.45.44A8.94,8.94,0,0,0,9,35.34c1-.48,2.35-1.27,2.62-1s-.49,1.66-1,2.63a8.88,8.88,0,0,0-.82,2.06,1.33,1.33,0,0,0,.44,1.45,1.09,1.09,0,0,0,.72.23,1.81,1.81,0,0,0,.8-.27,8.55,8.55,0,0,0,1.7-1.41c.77-.74,1.83-1.9,2.21-1.74s0,1.75-.12,2.82c-.26,1.64-.35,3.07.72,3.46a1,1,0,0,0,.76,0,2,2,0,0,0,.68-.5,8.79,8.79,0,0,0,1.18-1.86c.5-.92,1.15-2.41,1.56-2.35.21,0,.34.45.46,1s.21,1.22.3,1.73c.26,1.62.61,3,1.75,3.08s1.49-1.46,1.76-3.08c.09-.51.18-1.18.3-1.73s.25-1,.46-1c.41-.06,1.06,1.43,1.56,2.35a8.41,8.41,0,0,0,1.18,1.86,1.93,1.93,0,0,0,.67.5,1.07,1.07,0,0,0,.77,0c1.07-.4,1-1.82.72-3.46-.15-1.07-.49-2.65-.12-2.82s1.44,1,2.21,1.74a9.23,9.23,0,0,0,1.7,1.41,2.11,2.11,0,0,0,.8.27,1.09,1.09,0,0,0,.72-.23,1.33,1.33,0,0,0,.44-1.45A8.94,8.94,0,0,0,35.34,37c-.48-1-1.27-2.35-1-2.62s1.66.49,2.63,1a8.53,8.53,0,0,0,2.06.83,1.33,1.33,0,0,0,1.45-.44,1.09,1.09,0,0,0,.23-.72,1.81,1.81,0,0,0-.27-.8,8.55,8.55,0,0,0-1.41-1.7c-.74-.78-1.9-1.83-1.74-2.21s1.75,0,2.82.12c1.64.26,3.07.35,3.46-.72a1,1,0,0,0,0-.77,1.93,1.93,0,0,0-.5-.67,8.41,8.41,0,0,0-1.86-1.18c-.92-.5-2.41-1.15-2.35-1.56C38.9,25.31,39.32,25.17,39.86,25.06Z"/></clipPath></defs><g id="GRAPHICS"><path class="cls-2" d="M39.86,25.06c.54-.12,1.22-.21,1.73-.3,1.62-.27,3-.62,3.08-1.76s-1.46-1.49-3.08-1.76c-.51-.09-1.19-.18-1.73-.3s-1-.25-1-.46c-.06-.4,1.43-1.06,2.35-1.55a8.79,8.79,0,0,0,1.86-1.18,2,2,0,0,0,.5-.68,1,1,0,0,0,0-.76c-.39-1.07-1.81-1-3.46-.73-1.06.16-2.64.5-2.81.13s1-1.44,1.74-2.21a9.23,9.23,0,0,0,1.41-1.7,2.11,2.11,0,0,0,.27-.8,1.09,1.09,0,0,0-.23-.72,1.33,1.33,0,0,0-1.45-.44,8.94,8.94,0,0,0-2.07.82c-1,.48-2.35,1.27-2.62,1s.49-1.66,1-2.63a8.88,8.88,0,0,0,.82-2.06,1.33,1.33,0,0,0-.44-1.45A1.09,1.09,0,0,0,35,5.26a1.81,1.81,0,0,0-.8.27,8.55,8.55,0,0,0-1.7,1.41c-.77.74-1.83,1.9-2.21,1.74s0-1.75.12-2.82c.26-1.64.35-3.07-.72-3.46a1,1,0,0,0-.76,0,2,2,0,0,0-.68.5,8.79,8.79,0,0,0-1.18,1.86c-.5.92-1.15,2.41-1.56,2.35-.21,0-.34-.45-.46-1s-.21-1.22-.3-1.73c-.26-1.62-.61-3-1.75-3.08s-1.49,1.46-1.76,3.08c-.09.51-.18,1.18-.3,1.73s-.25,1-.46,1c-.41.06-1.06-1.43-1.56-2.35a8.41,8.41,0,0,0-1.18-1.86,1.93,1.93,0,0,0-.67-.5,1.07,1.07,0,0,0-.77,0c-1.07.4-1,1.82-.72,3.46.15,1.07.49,2.65.12,2.82s-1.44-1-2.21-1.74a9.23,9.23,0,0,0-1.7-1.41,2.11,2.11,0,0,0-.8-.27,1.09,1.09,0,0,0-.72.23,1.33,1.33,0,0,0-.44,1.45A8.94,8.94,0,0,0,10.66,9c.48,1,1.27,2.35,1,2.62S10,11.13,9,10.66a8.53,8.53,0,0,0-2.06-.83,1.33,1.33,0,0,0-1.45.44,1.09,1.09,0,0,0-.23.72,1.81,1.81,0,0,0,.27.8,8.55,8.55,0,0,0,1.41,1.7c.74.78,1.9,1.83,1.74,2.21s-1.75,0-2.82-.12c-1.64-.26-3.07-.35-3.46.72a1,1,0,0,0,0,.77,1.93,1.93,0,0,0,.5.67,8.06,8.06,0,0,0,1.86,1.18c.92.5,2.41,1.15,2.35,1.56,0,.21-.45.35-1,.46s-1.22.21-1.73.3c-1.62.27-3,.62-3.08,1.76s1.46,1.49,3.08,1.76c.51.09,1.19.18,1.73.3s1,.25,1,.46c.06.4-1.43,1.06-2.35,1.55a8.79,8.79,0,0,0-1.86,1.18,2,2,0,0,0-.5.68,1,1,0,0,0,0,.76c.39,1.07,1.81,1,3.46.73,1.06-.16,2.64-.5,2.81-.13s-1,1.44-1.74,2.21a9.23,9.23,0,0,0-1.41,1.7,2.11,2.11,0,0,0-.27.8,1.09,1.09,0,0,0,.23.72,1.33,1.33,0,0,0,1.45.44A8.94,8.94,0,0,0,9,35.34c1-.48,2.35-1.27,2.62-1s-.49,1.66-1,2.63a8.88,8.88,0,0,0-.82,2.06,1.33,1.33,0,0,0,.44,1.45,1.09,1.09,0,0,0,.72.23,1.81,1.81,0,0,0,.8-.27,8.55,8.55,0,0,0,1.7-1.41c.77-.74,1.83-1.9,2.21-1.74s0,1.75-.12,2.82c-.26,1.64-.35,3.07.72,3.46a1,1,0,0,0,.76,0,2,2,0,0,0,.68-.5,8.79,8.79,0,0,0,1.18-1.86c.5-.92,1.15-2.41,1.56-2.35.21,0,.34.45.46,1s.21,1.22.3,1.73c.26,1.62.61,3,1.75,3.08s1.49-1.46,1.76-3.08c.09-.51.18-1.18.3-1.73s.25-1,.46-1c.41-.06,1.06,1.43,1.56,2.35a8.41,8.41,0,0,0,1.18,1.86,1.93,1.93,0,0,0,.67.5,1.07,1.07,0,0,0,.77,0c1.07-.4,1-1.82.72-3.46-.15-1.07-.49-2.65-.12-2.82s1.44,1,2.21,1.74a9.23,9.23,0,0,0,1.7,1.41,2.11,2.11,0,0,0,.8.27,1.09,1.09,0,0,0,.72-.23,1.33,1.33,0,0,0,.44-1.45A8.94,8.94,0,0,0,35.34,37c-.48-1-1.27-2.35-1-2.62s1.66.49,2.63,1a8.53,8.53,0,0,0,2.06.83,1.33,1.33,0,0,0,1.45-.44,1.09,1.09,0,0,0,.23-.72,1.81,1.81,0,0,0-.27-.8,8.55,8.55,0,0,0-1.41-1.7c-.74-.78-1.9-1.83-1.74-2.21s1.75,0,2.82.12c1.64.26,3.07.35,3.46-.72a1,1,0,0,0,0-.77,1.93,1.93,0,0,0-.5-.67,8.41,8.41,0,0,0-1.86-1.18c-.92-.5-2.41-1.15-2.35-1.56C38.9,25.31,39.32,25.17,39.86,25.06Z"/><g class="cls-3"><path class="cls-4" d="M2.63,18.23V20.4H1.45v4.21H-1.71V19.22h-4.2v-1H-9.08v-1h4.2v1H-.53V12.9h1v-1h1v-2H2.63V8.7h1V5.53H5.79v-1h1v-1h2V2.32H10v-1h2v-1H14.2V-.84h4.15v-1h1.18V-4H18.35v-7.37h1.18v-1h1V-4h1v2.17h7.56v1h3V.34h2.17v1h2.17v1h1V3.5h2.17v1h1v1h1V6.67h1.14v2h1V9.88h1v2H46V14h1v4.2h1v1h3.21v-1h3.92v1H52.15V20.4H48v6.38H47V25.6H41.62v-1h-1v-1h-1v1H38.41v-1h-1V22.43h-1v-1H35.25v-1h-1V18.23H32.09c0,.73,0,1.45,0,2.17h-1V18.23h1v-1h2.17v1h1v1h1.18V20.4c.66,0,1.32,0,2,0,0,.68,0,1.36,0,2h1.18v-1h1v-1c-.72,0-1.44,0-2.17,0V19.22h-1v-1h-1v-1H35.25V16.06h-1V14h1v1h1.18v1h1v1.18h1v1h2.17c0,.33,0,.66,0,1h1v-1h-1c0-.33,0-.66,0-1H38.41c0-.72,0-1.45,0-2.17h-1V14h-1V12.9H35.25v-2h1.18v1h2c0,.72,0,1.45,0,2.17h1.18v1h1c0,.33,0,.66,0,1h1v-1h-1c0-.35,0-.69,0-1h-1c0-.72,0-1.45,0-2.17H38.41v-1h-2V8.7h1v-1h-1v1H35.25v-1h-1v-1h-1V4.49H32.09v-1h-1v1h1V6.67h1.13v2H32.09v-1h-1V5.53h-1v-2h-1V2.32H26.89V3.5h1v1h1.18c0,.73,0,1.45,0,2.18H27.89V5.53h-1v-1h-1V2.32H24.72v-1H21.51v1h2.22V3.5h1v2H25.9V6.67H24.72V5.53h-1v-2H21.51v1h-1v1h-1V6.67H18.35V5.53h1.18c0-1.4,0-2.8,0-4.2H17.36V3.5h1v1h-1v-1h-1V2.32H14.2c0,.4,0,.79,0,1.18h1v1h1.18v1H15.19v-1h-1c0-.33,0-.66,0-1H12c0,.33,0,.66,0,1h1.14v1h1V6.67h-1V5.53H12c0-.34,0-.69,0-1H10c0,.35,0,.7,0,1h1V7.7H10c0-.72,0-1.44,0-2.17H7.82V6.67h-1v1h-1c0,.73,0,1.45,0,2.18h1v1h1v1h-1v-1h-1v-1c-.37,0-.75,0-1.13,0v2H5.79v1H4.66v-1h-1V14h1v2H5.79v1.18H4.66V16.06h-1V14H1.45v1H2.63v2.17H1.45v1ZM26.89.34h-1v1h1Zm9.54,5.19H35.25V6.67h1.18ZM39.59,8.7H38.41V9.88h1.18Zm4.2,8.54h-1v1h1Zm-1,4.15H41.62v1h1.14Zm1,2.18h-1v1h1Z"/><path class="cls-4" d="M34.26,20.4v2H32.09v-1h1.13v-1Z"/><path class="cls-4" d="M29.07,6.67h1v2h-1C29.06,8,29.07,7.34,29.07,6.67Z"/><path class="cls-4" d="M33.22,11.86h1V14h-1Z"/><path class="cls-4" d="M35.25,23.57h1.18v1H35.25Z"/><path class="cls-4" d="M30.06,8.7h1v2.17h-1Z"/><path class="cls-4" d="M35.25,8.7v2.17h-2V8.7Z"/><path class="cls-4" d="M34.26,22.43c.33,0,.66,0,1,0v1.14c-.33,0-.66,0-1,0Z"/><path class="cls-4" d="M2.63,17.24h1v1h-1Z"/><path class="cls-4" d="M11,33h2.17v1.18H11C11,33.75,11,33.35,11,33Z"/><path class="cls-4" d="M27.89,33h-2v-1h1v-1h1c0,.68,0,1.35,0,2h2.17v1.18h-1c0,.33,0,.66,0,1H26.89c0-.33,0-.66,0-1h1C27.89,33.75,27.88,33.35,27.89,33Z"/><path class="cls-4" d="M6.83,29.94h1v1h1c0,.33,0,.66,0,1h-2Z"/><path class="cls-4" d="M4.66,19.22v-1H5.79v1H4.66V21.4h-1v2.18c.72,0,1.45,0,2.17,0v1h3v-1H10v2H8.81v1.18h-3v1h1v2.17h-1V28.76H4.66v-1h-1v2.17h-1v1h1v-1H5.79c0,.66,0,1.32,0,2h1v1h-1v2.17h1V33h2c0,.72,0,1.45,0,2.17h-1V37.3h1c0-.72,0-1.44,0-2.17H10v-1h1c0,.66,0,1.32,0,2-.33,0-.67,0-1,0V38.3h1c0,.33,0,.66,0,1h1v-1H11c0-.73,0-1.45,0-2.18.34,0,.69,0,1,0v-1h1.14v-1h1c0,.66,0,1.32,0,2-.35,0-.7,0-1,0V38.3h1c0-.73,0-1.45,0-2.18.33,0,.66,0,1,0v-1h1.18v1h1V38.3h1v1h2.17v1.18h1V39.29h-1v-1h-1v-1H18.35V35.13h-1v-1H15.19V33h-1c0-.34,0-.69,0-1H12c0-.33,0-.66,0-1H10c0-.33,0-.66,0-1H8.81c0-.39,0-.79,0-1.18h-1v-1h1c0,.33,0,.66,0,1H10c0,.39,0,.79,0,1.18h2c0,.33,0,.66,0,1H14.2c0,.33,0,.66,0,1h1v1h2.17v1.18h2.17v2h1V37.3h1v1h1.18v1h1v-1h-1c0-.73,0-1.45,0-2.18H21.51v-1h-1V33h-1v-2h1v2h1v1.18h1.18v2c.68,0,1.36,0,2,0,0,.73,0,1.45,0,2.18H25.9v2.17h1V38.3h-1V36.12c-.39,0-.78,0-1.18,0v-1h-1V33h-1c0-.67,0-1.35,0-2H21.51v-1h1.18V28.76h1v1.18h-1v1h2c0-.33,0-.66,0-1H25.9v1H24.72c0,.33,0,.66,0,1h-1v1h1v1.18H25.9v1h1c0,.73,0,1.45,0,2.17h1V36.12h1.18c0-.33,0-.66,0-1h2V37.3h1V35.13h-1V33h2.17v2.17h1V33h-1v-1H32.09v-2h-1V28.76h-1v-2c-.33,0-.66,0-1,0V25.6H27.89c0-.68,0-1.36,0-2-.66,0-1.33,0-2,0V22.43H24.72v-1h2.17v1h1c0,.38,0,.76,0,1.14h1.18v1h1v2.17c.33,0,.66,0,1,0v1h1v2.17h2.17v2h1v-2h1.18V27.77H35.25v-1h-1v1h1v2.17h-1V28.76h-1v-2H32.09V25.6h-1v-2h-1V22.43h-1v-2h1c0,.68,0,1.36,0,2,.67,0,1.35,0,2,0,0,.73,0,1.45,0,2.18h3.16v1c2.12,0,4.25,0,6.37,0,0,.39,0,.78,0,1.18,1.78,0,3.56,0,5.34,0v1h4.2v1h2.17v1.18H47v2H46v2.22H44.79v2h-1V37.3h-1v2H41.62v1.18h-1v1h-1v1H37.42v1.13h-1v1H34.26v1H32.09v1.18h-4.2v1h-2v4.86H24.72V47.83H18.35v-1H14.2V45.66H12v-1H10v-1H8.81V42.5h-2v-1h-1v-1H4.66V39.29h-1v-2h-1V36.12H1.45v-2h-1V31.92h-1V27.77H-1.71v1H-9.08v-2h7.37V25.6h7.5v-1H3.62v-1c-.33,0-.66,0-1,0V21.39h1V19.22Zm34.93,9.54H38.41v2.17h1.18Zm-2.17,2.17h-1v2h1Zm-32.76,1h-1v1h1Zm35.92,0h-1v1h1Zm-4.15,2.22H35.25v2h1.18ZM16.37,39.29v-2H15.19v2h1.18v1.18h1V39.29Zm12.7-1H27.89v1h1.18c0-.33,0-.67,0-1h1v-1h-1C29.06,37.63,29.07,38,29.07,38.3Zm5.19-1h-1v1h1ZM10,39.29H8.81v1.18H10Zm4.21,1.18c0-.4,0-.79,0-1.18h-1v1.18h1c0,.33,0,.66,0,1h1v-1Zm16.85-1.18h-1v1.18h1Zm-7.32,1.18h-1v1h1Zm-5.38,1h-1v1h1Zm2.17,0h-1v1h1Zm5.38,0H24.72v1H25.9Zm3.17,0H27.89v1h1.18Zm-6.38,1H21.51v1.13h1.18Z"/><path class="cls-4" d="M33.22,10.87v1H31.05v-1Z"/><path class="cls-4" d="M29.07,29.94H26.89V28.76h2.18c0,.39,0,.79,0,1.18h1v1h1v2h-1v-1h-1C29.06,31.26,29.07,30.6,29.07,29.94Z"/><path class="cls-4" d="M8.81,31.92H11c0,.35,0,.7,0,1H8.81C8.81,32.62,8.82,32.27,8.81,31.92Z"/><path class="cls-4" d="M20.52,22.43h-1v-1h1v1c1.07,0,2.14,0,3.21,0v2.18h-1v-1H20.52Z"/><rect class="cls-4" x="16.37" y="22.43" width="1.98" height="1.13"/><path class="cls-4" d="M31.05,15.07h-1V12.9h1v2.17h2.17v1H31.05Z"/><rect class="cls-4" x="7.82" y="7.7" width="0.99" height="2.17"/><path class="cls-4" d="M6.83,21.39V19.22h1v2.17h-1v1h-1v-1Z"/><path class="cls-4" d="M25.9,27.77c0-.33,0-.66,0-1h2v1h-2c0,.33,0,.66,0,1H24.72v-1Z"/><rect class="cls-4" x="16.37" y="30.93" width="1.98" height="0.99"/><rect class="cls-4" x="15.19" y="28.76" width="1.18" height="1.18"/><rect class="cls-4" x="18.35" y="28.76" width="1.18" height="1.18"/><path class="cls-4" d="M22.69,26.78c-.39,0-.78,0-1.18,0V25.6h1.18v1.18h1v1h-1Z"/><path class="cls-4" d="M21.51,6.67V5.53h1.18V6.67H21.51v1h-1v-1Z"/><path class="cls-4" d="M12,25.6c-.34,0-.69,0-1,0v-1h1c0,.32,0,.66,0,1h1.14v1.18H12C12,26.38,12,26,12,25.6Z"/><rect class="cls-4" x="21.51" y="14.03" width="1.18" height="1.04"/><rect class="cls-4" x="24.72" y="24.61" width="1.18" height="0.99"/><rect class="cls-4" x="21.51" y="17.24" width="1.18" height="0.99"/><rect class="cls-4" x="27.89" y="15.07" width="1.18" height="0.99"/><rect class="cls-4" x="27.89" y="10.87" width="1.18" height="0.99"/><rect class="cls-4" x="19.53" y="8.7" width="0.99" height="1.18"/><rect class="cls-4" x="21.51" y="10.87" width="1.18" height="0.99"/><rect class="cls-4" x="18.35" y="24.61" width="1.18" height="0.99"/><rect class="cls-4" x="21.51" y="20.4" width="1.18" height="0.99"/><rect class="cls-4" x="26.89" y="19.22" width="0.99" height="1.18"/><rect class="cls-4" x="26.89" y="12.9" width="0.99" height="1.13"/><rect class="cls-4" x="10.99" y="21.39" width="1.04" height="1.04"/><rect class="cls-4" x="14.2" y="21.39" width="0.99" height="1.04"/><rect class="cls-4" x="6.83" y="14.03" width="0.99" height="1.04"/><rect class="cls-4" x="13.16" y="27.77" width="1.04" height="0.99"/><rect class="cls-4" x="17.36" y="26.78" width="0.99" height="0.99"/><rect class="cls-4" x="29.07" y="17.24" width="0.99" height="0.99"/><rect class="cls-4" x="25.9" y="17.24" width="0.99" height="0.99"/><rect class="cls-4" x="9.99" y="26.78" width="0.99" height="0.99"/><rect class="cls-4" x="25.9" y="9.88" width="0.99" height="0.99"/><rect class="cls-4" x="20.52" y="27.77" width="0.99" height="0.99"/><rect class="cls-4" x="23.73" y="7.7" width="0.99" height="0.99"/><rect class="cls-4" x="26.89" y="7.7" width="0.99" height="0.99"/><rect class="cls-4" x="14.2" y="24.61" width="0.99" height="0.99"/></g><path class="cls-5" d="M39.86,25.06c.54-.12,1.22-.21,1.73-.3,1.62-.27,3-.62,3.08-1.76s-1.46-1.49-3.08-1.76c-.51-.09-1.19-.18-1.73-.3s-1-.25-1-.46c-.06-.4,1.43-1.06,2.35-1.55a8.79,8.79,0,0,0,1.86-1.18,2,2,0,0,0,.5-.68,1,1,0,0,0,0-.76c-.39-1.07-1.81-1-3.46-.73-1.06.16-2.64.5-2.81.13s1-1.44,1.74-2.21a9.23,9.23,0,0,0,1.41-1.7,2.11,2.11,0,0,0,.27-.8,1.09,1.09,0,0,0-.23-.72,1.33,1.33,0,0,0-1.45-.44,8.94,8.94,0,0,0-2.07.82c-1,.48-2.35,1.27-2.62,1s.49-1.66,1-2.63a8.88,8.88,0,0,0,.82-2.06,1.33,1.33,0,0,0-.44-1.45A1.09,1.09,0,0,0,35,5.26a1.81,1.81,0,0,0-.8.27,8.55,8.55,0,0,0-1.7,1.41c-.77.74-1.83,1.9-2.21,1.74s0-1.75.12-2.82c.26-1.64.35-3.07-.72-3.46a1,1,0,0,0-.76,0,2,2,0,0,0-.68.5,8.79,8.79,0,0,0-1.18,1.86c-.5.92-1.15,2.41-1.56,2.35-.21,0-.34-.45-.46-1s-.21-1.22-.3-1.73c-.26-1.62-.61-3-1.75-3.08s-1.49,1.46-1.76,3.08c-.09.51-.18,1.18-.3,1.73s-.25,1-.46,1c-.41.06-1.06-1.43-1.56-2.35a8.41,8.41,0,0,0-1.18-1.86,1.93,1.93,0,0,0-.67-.5,1.07,1.07,0,0,0-.77,0c-1.07.4-1,1.82-.72,3.46.15,1.07.49,2.65.12,2.82s-1.44-1-2.21-1.74a9.23,9.23,0,0,0-1.7-1.41,2.11,2.11,0,0,0-.8-.27,1.09,1.09,0,0,0-.72.23,1.33,1.33,0,0,0-.44,1.45A8.94,8.94,0,0,0,10.66,9c.48,1,1.27,2.35,1,2.62S10,11.13,9,10.66a8.53,8.53,0,0,0-2.06-.83,1.33,1.33,0,0,0-1.45.44,1.09,1.09,0,0,0-.23.72,1.81,1.81,0,0,0,.27.8,8.55,8.55,0,0,0,1.41,1.7c.74.78,1.9,1.83,1.74,2.21s-1.75,0-2.82-.12c-1.64-.26-3.07-.35-3.46.72a1,1,0,0,0,0,.77,1.93,1.93,0,0,0,.5.67,8.06,8.06,0,0,0,1.86,1.18c.92.5,2.41,1.15,2.35,1.56,0,.21-.45.35-1,.46s-1.22.21-1.73.3c-1.62.27-3,.62-3.08,1.76s1.46,1.49,3.08,1.76c.51.09,1.19.18,1.73.3s1,.25,1,.46c.06.4-1.43,1.06-2.35,1.55a8.79,8.79,0,0,0-1.86,1.18,2,2,0,0,0-.5.68,1,1,0,0,0,0,.76c.39,1.07,1.81,1,3.46.73,1.06-.16,2.64-.5,2.81-.13s-1,1.44-1.74,2.21a9.23,9.23,0,0,0-1.41,1.7,2.11,2.11,0,0,0-.27.8,1.09,1.09,0,0,0,.23.72,1.33,1.33,0,0,0,1.45.44A8.94,8.94,0,0,0,9,35.34c1-.48,2.35-1.27,2.62-1s-.49,1.66-1,2.63a8.88,8.88,0,0,0-.82,2.06,1.33,1.33,0,0,0,.44,1.45,1.09,1.09,0,0,0,.72.23,1.81,1.81,0,0,0,.8-.27,8.55,8.55,0,0,0,1.7-1.41c.77-.74,1.83-1.9,2.21-1.74s0,1.75-.12,2.82c-.26,1.64-.35,3.07.72,3.46a1,1,0,0,0,.76,0,2,2,0,0,0,.68-.5,8.79,8.79,0,0,0,1.18-1.86c.5-.92,1.15-2.41,1.56-2.35.21,0,.34.45.46,1s.21,1.22.3,1.73c.26,1.62.61,3,1.75,3.08s1.49-1.46,1.76-3.08c.09-.51.18-1.18.3-1.73s.25-1,.46-1c.41-.06,1.06,1.43,1.56,2.35a8.41,8.41,0,0,0,1.18,1.86,1.93,1.93,0,0,0,.67.5,1.07,1.07,0,0,0,.77,0c1.07-.4,1-1.82.72-3.46-.15-1.07-.49-2.65-.12-2.82s1.44,1,2.21,1.74a9.23,9.23,0,0,0,1.7,1.41,2.11,2.11,0,0,0,.8.27,1.09,1.09,0,0,0,.72-.23,1.33,1.33,0,0,0,.44-1.45A8.94,8.94,0,0,0,35.34,37c-.48-1-1.27-2.35-1-2.62s1.66.49,2.63,1a8.53,8.53,0,0,0,2.06.83,1.33,1.33,0,0,0,1.45-.44,1.09,1.09,0,0,0,.23-.72,1.81,1.81,0,0,0-.27-.8,8.55,8.55,0,0,0-1.41-1.7c-.74-.78-1.9-1.83-1.74-2.21s1.75,0,2.82.12c1.64.26,3.07.35,3.46-.72a1,1,0,0,0,0-.77,1.93,1.93,0,0,0-.5-.67,8.41,8.41,0,0,0-1.86-1.18c-.92-.5-2.41-1.15-2.35-1.56C38.9,25.31,39.32,25.17,39.86,25.06Z"/></g></svg>