<?xml version="1.0" encoding="utf-8"?>
<!-- Generator: Adobe Illustrator 26.0.2, SVG Export Plug-In . SVG Version: 6.00 Build 0)  -->
<svg version="1.1" id="Capa_1" xmlns="http://www.w3.org/2000/svg" xmlns:xlink="http://www.w3.org/1999/xlink" x="0px" y="0px"
	 viewBox="0 0 90 90" style="enable-background:new 0 0 90 90;" xml:space="preserve">
<style type="text/css">
	.st0{fill:#FFFFFF;}
</style>
<g>
	<path class="st0" d="M61.1,17.2c-4.9-2.9-10.3-4.3-16.1-4.3s-11.2,1.4-16.1,4.3C24,20,20,24,17.2,28.9S12.9,39.2,12.9,45
		s1.4,11.2,4.3,16.1C20,66,24,70,28.9,72.8c4.9,2.9,10.3,4.3,16.1,4.3s11.2-1.4,16.1-4.3C66,70,70,66,72.8,61.1
		c2.9-4.9,4.3-10.3,4.3-16.1s-1.4-11.2-4.3-16.1C70,24,66,20,61.1,17.2z M46.9,56.6c-3.7,0-6.5-1.1-8.8-3.1c-1.5-1.4-2.5-3.1-3-5.2
		h34.6c-0.4,3-1.3,5.7-2.5,8.3H46.9L46.9,56.6z M35.2,41.7c0.5-2,1.4-3.8,3-5.2c2.2-2,5.1-3.1,8.8-3.1h20.5c1.3,2.6,2.1,5.3,2.5,8.3
		L35.2,41.7L35.2,41.7L35.2,41.7z M23.2,32.2c2.2-3.8,5.2-7,9.1-9.2c3.8-2.2,8-3.4,12.7-3.4s8.9,1.2,12.7,3.4c2,1.2,3.7,2.5,5.2,4.1
		H46.8c-3.7,0-7,0.8-9.8,2.3c-2.9,1.5-5.1,3.7-6.6,6.4c-1.1,1.9-1.8,3.9-2.1,6.1h-7.9c0.4-3.4,1.4-6.6,3.1-9.6h-0.2L23.2,32.2
		L23.2,32.2z M57.6,67c-3.8,2.2-8,3.4-12.7,3.4s-8.9-1.2-12.7-3.4c-3.8-2.2-6.9-5.3-9.1-9.2c-1.7-3-2.8-6.1-3.1-9.5H28
		c0.4,2.1,1.1,4.2,2.1,6.1c1.6,2.7,3.8,4.7,6.6,6.4c2.9,1.5,6.2,2.3,9.8,2.3h16.1C61.1,64.6,59.5,65.9,57.6,67L57.6,67L57.6,67z"/>
</g>
</svg>
