<svg id="Capa_1" data-name="Capa 1" xmlns="http://www.w3.org/2000/svg" viewBox="0 0 1450 660"><defs><style>.cls-1{fill:#ef4444;}</style></defs><path class="cls-1" d="M20.83,23.92H51.65V263.65H93.6V23.92h30.83V636.08H93.6V389.5H51.65V636.08H20.83Z"/><path class="cls-1" d="M151,329.57c0-178.08,22.26-309.08,60.78-309.08s60.79,131,60.79,309.08c0,178.94-22.26,309.94-60.79,309.94S151,508.51,151,329.57Zm60.78,184.08c22.26,0,29.11-83,29.11-184.08,0-100.17-6.85-183.22-29.11-183.22s-29.11,83.05-29.11,183.22C182.64,430.6,189.49,513.65,211.75,513.65Z"/><path class="cls-1" d="M288,23.92h30.82l15.41,415.24H335L353.88,23.92H383l18.83,415.24h.86L418.09,23.92h30.82L418.09,636.08H387.27L368.43,254.23,349.6,636.08H318.77Z"/><path class="cls-1" d="M535.37,23.92h30.82V636.08H535.37Z"/><path class="cls-1" d="M616.7,149.78h-36V23.92H682.63V149.78h-35.1v486.3H616.7Z"/><path class="cls-1" d="M756.24,23.92h30.82l15.41,415.24h.85L822.16,23.92h29.11L870.1,439.16H871L886.37,23.92h30.82L886.37,636.08H855.55L836.71,254.23,817.88,636.08H787.06Z"/><path class="cls-1" d="M930.89,329.57c0-178.08,22.26-309.08,60.79-309.08s60.79,131,60.79,309.08c0,178.94-22.26,309.94-60.79,309.94S930.89,508.51,930.89,329.57Zm60.79,184.08c22.26,0,29.11-83,29.11-184.08,0-100.17-6.85-183.22-29.11-183.22s-29.11,83.05-29.11,183.22C962.57,430.6,969.42,513.65,991.68,513.65Z"/><path class="cls-1" d="M1079,23.92h57.36c27.4,0,43.67,63.36,43.67,174.66,0,85.61-9.42,136.13-24.83,153.25v1.71c30.82,26.55,19.69,263.71,26.54,274v8.56h-31.68c-6-25.68,5.14-213.19-21.4-213.19h-18.84V636.08H1079ZM1130.38,297c12.84,0,18.84-22.26,18.84-73.63s-6-73.63-18.84-73.63h-20.55V297Z"/><path class="cls-1" d="M1206.57,23.92h30.82V284.19l43.66-260.27h32.54L1267.35,291l49.66,345h-36L1249.38,395.5l-12,71.06V636.08h-30.82Z"/><path class="cls-1" d="M1323.86,428h31.68c0,63.36,10.27,87.33,24.83,87.33,11.13,0,17.12-18.83,17.12-44.52,0-52.23-12-65.92-29.11-91.61C1347,346.7,1328.14,305.6,1328.14,196c0-125.86,20.55-175.52,47.09-175.52,28.26,0,51.37,71.07,52.23,189.22h-31.68c-.86-41.1-8.56-65.07-20.55-65.07-9.42,0-15.41,12-15.41,40.24,0,41.1,6.85,54.79,22.26,77.91,23.12,34.25,47.09,66.78,47.09,193.5,0,111.3-18,183.22-48.8,183.22C1348.69,639.51,1323.86,561.59,1323.86,428Z"/></svg>