<svg id="Capa_1" data-name="Capa 1" xmlns="http://www.w3.org/2000/svg" viewBox="0 0 230 120"><defs><style>.cls-1{fill:#020c2d;}</style></defs><path class="cls-1" d="M168.57,53.94c.63-2.39,4-.51,5.32-.49,1.58,0,3.22-1.46,4.87-1.47,3,0,6.78,3.27,7.29,3.15s1.32-1.54,2.15-2c2.92-1.58,9-1.1,11.2,1.4s2.37,15.4,1.86,19c-.34,2.37-2,2.14-4.1,2V60.47c0-.95-3.14-4.43-4.52-4.54-1.54-.13-5.28,2.19-5.28,3.73v14.7c0,1.63-4.91,1.63-4.91,0V58.84c0-.71-3.36-2.83-4.49-2.83-1.56,0-4.49,2.34-4.49,3.65v14.7c0,1.63-4.9,1.63-4.9,0Z"/><path class="cls-1" d="M78.7,74.36c-.82,3.12-4.93-.14-5.31-.17s-4.31,1.88-5.94,2.06C58,77.23,54.73,64.54,67,61.88c2.51-.54,9.44.28,6-3.91-4-4.85-6.52.47-8.77,1.14-5.5,1.62-4.26-3.28-.56-5.47s8.87-2.32,12.17.68a27.07,27.07,0,0,1,2.83,4.52C78.7,62.45,79.41,71.65,78.7,74.36ZM73.8,65c-.5-.5-11.29,1.25-10.59,4.42S71.37,72,73,69.32C73.53,68.52,74.19,65.36,73.8,65Z"/><path class="cls-1" d="M148.14,65.78c-1.15,1,1.23,5,3,5.58C156.62,73,159,68.82,161.61,69c4.48.3-.09,4.92-2.25,6-5,2.41-12.28,1-14.68-4.48a18.94,18.94,0,0,1,0-12.65c2.84-6.49,13-7.81,17.25-2.15,1.12,1.5,4.06,10.1,1.33,10.1Zm11.44-4.08c-1.14-7.59-10.62-7.37-11.44,0Z"/><path class="cls-1" d="M118.73,44.54h4.09v9.81c4.68-3.3,11.52-3.14,14.74,2a29.63,29.63,0,0,1,1.6,4.12V74.36c0,1.63-4.91,1.63-4.91,0V59.66c0-.76-3.94-3.63-5.29-3.63-2.57,0-6.14,2.7-6.14,5.26v14.3h-4.09Z"/><path class="cls-1" d="M42.75,63.33c-.45.4-10.83.27-11.86-.8L21.48,45.74c-.21-2,1.87-4.29,2.92-6.07,1.26-2.13.87-5,4.06-2.48C29.3,40.16,43.86,62.33,42.75,63.33Z"/><path class="cls-1" d="M20.59,49.55c.47.3,4.88,8.49,4.07,9.94-3.23,3.9-6,12.88-9.28,16.1C14.29,76.67,4,76.81,3.54,76.4c-1.14-1,14.27-23.64,14.8-26.85A3.47,3.47,0,0,1,20.59,49.55Z"/><path class="cls-1" d="M50.11,76.4h-31c.12-2.09,3.71-9.16,5.45-9.66,2.28-.67,15.58-.44,18.69-.18,2.8.23,4.89,4.46,6.12,7C49.81,74.49,50.43,75.07,50.11,76.4Z"/><path class="cls-1" d="M113.83,60.88a12.2,12.2,0,0,1-4-.13A14.41,14.41,0,0,0,108.15,58c-3.79-3.69-9.08-1.59-9.81,3.34-.93,6.22.42,11.46,7.73,10.18,2.87-.5,3.09-3.44,3.8-4a12.2,12.2,0,0,1,4-.13c1.31,1.24-1.43,5.35-3,6.41a11.54,11.54,0,0,1-12.78.77c-5.56-2.91-5.85-13.21-2.92-18.1,3.51-5.84,14.33-5.74,17.76,0C113.45,57.4,114.38,60.36,113.83,60.88Z"/><path class="cls-1" d="M216,67.42c1.16-2.46,5.4-14.07,7.06-14.6,3.58-1.13,4.15-.15,2.92,2.93C222.28,64.81,217,74,213.15,83c-1,1.36-4.5.8-4.54-.46,0-.7,4.29-7.24,4.09-9.77-.52-2.91-9.25-19-8.18-20.06a13.44,13.44,0,0,1,3.56.12c1.24.38,5.2,10.4,6.21,12.57C214.67,66.2,214.76,67.33,216,67.42Z"/><rect class="cls-1" x="84.42" y="44.54" width="4.08" height="31.04"/></svg>