<?xml version="1.0" encoding="utf-8"?>
<!-- Generator: Adobe Illustrator 26.0.2, SVG Export Plug-In . SVG Version: 6.00 Build 0)  -->
<svg version="1.1" id="Capa_1" xmlns="http://www.w3.org/2000/svg" xmlns:xlink="http://www.w3.org/1999/xlink" x="0px" y="0px"
	 viewBox="0 0 230 120" style="enable-background:new 0 0 230 120;" xml:space="preserve">
<style type="text/css">
	.st0{fill:#020C2D;}
</style>
<g>
	<path class="st0" d="M68.7,48c-0.8-0.2-7.9-0.2-8.7,0c-3.2,0.9-1.4,8.5-2.2,11c-0.6,0.5-1.5,1-2.2,1.1c-1.7,0.2-7.4,0.3-8.5-0.8
		l-0.5-0.6C46,55.7,47.9,48.4,44,47.9c-2.2-0.3-8.1,0.8-9.4-1.1c-1-2.9,1.4-10.5-2.7-11c-1.2-0.2-7.3-0.2-8.2,0.1
		c-0.6,0.2-1.9,1.7-2,2.4l0.1,31.3c0.4,0.8,1.1,2.2,1.9,2.5c2.6,0.8,9.6-1.5,10.1,2c0.5,3.3-1.2,7.5,1.6,9.9c0.8,0.4,8.1,0.5,9,0.2
		c0.7-0.2,1.7-1.8,1.9-2.5c0.5-2.3-0.9-8.3,1.2-9.3c2-1,7,0.4,9.4-0.5c2.9-2.5,1.2-6.7,1.6-9.9c0.1-0.9,1-1.8,1.9-1.9
		c2.2-0.3,6.9,0.6,8.6-0.2c0.8-0.7,1.5-1.7,1.6-2.8C71,54.9,71.1,48.7,68.7,48z M46.5,69.1c-0.1,1-0.9,2.1-1.6,2.8
		c-0.9,0.5-8.5,0.5-9.4,0c-0.1-0.1-0.7-0.7-0.8-0.8c-0.5-0.9-0.5-9,0-9.9c0.1-0.2,0.9-0.9,1.2-1c1-0.3,8.3-0.2,9,0.2
		C46.9,62,46.8,66.5,46.5,69.1z"/>
	<path class="st0" d="M171.4,69.4V54l-3.3,0l-0.3,2.2c-4.8-5.6-12.3-2.5-12.9,4.7c-0.6,6.5,1.4,12.9,9.1,11.9
		c1.8-0.3,2.7-1.9,4.1-2.8v2.2h6.1v-2.8H171.4z M166.7,68.8c-1.7,1.5-3.9,1.1-6,1c-0.7-0.2-2.3-2.3-2.5-3c-0.3-1.3-0.3-6.2,0-7.5
		c0.3-1.2,1.8-2.8,3-3c1-0.2,3.2-0.3,4.1,0.2C169.1,59.3,168.7,64.9,166.7,68.8z"/>
	<path class="st0" d="M122.9,69.4V58.1c0-0.1-0.7-1.7-0.8-1.9c-3.1-5.1-13.1-3.1-13.5,3.3l3.3,0l1.7-3c1.8-0.6,3.8-0.3,5.5,0.3
		l0.6,4.3c-1.4-0.4-2.5,0.4-3.6,0.6c-0.9,0.1-1.9-0.1-2.8,0c-4.4,0.6-6.9,5.8-3.9,9.4c2.3,2.6,9.3,2.2,10.2-1.7
		c1.2-0.1,0.2,2.4,0.5,2.8h5.5v-2.8H122.9z M113.9,69.9c-2.9-0.2-2.8-3.3-1.9-5.5l7.7-0.6C120.1,68.1,118.1,70.3,113.9,69.9z"/>
	<path class="st0" d="M193.4,72.1h-3.3V58.6c0-0.3-1.5-2.3-2-2.4c-1.2-0.4-3.7-0.1-4.6,0.8c-0.2,0.2-1.6,2.6-1.6,2.8v12.4h-3.3V54
		l3.3,0l0.3,2.2c2.4-3.5,7.7-4,10.2-0.3c0.2,0.4,1.1,2.1,1.1,2.2V72.1z"/>
	<path class="st0" d="M200.5,56.7c-2.5,0.2-3.7,0-3.3-2.7l3.3,0l0-6.1c1,0.1,2.1-0.1,3,0c0.6,0.1,0.1,5.1,0.3,6.1l4.4,0
		c0.5,3.4-1.7,2.8-4.4,2.7v12.7l4.4,0l0,2.8h-7.7V56.7z"/>
	<path class="st0" d="M96,68.3c0.7,0.1,0.8-0.9,1-1.5c1.5-4.2,2.8-8.5,4-12.8l3.3,0l-6.1,18.1l-3.8,0L88.3,54l3,0
		c1.1,0.3,1.7,4.4,2.1,5.6c0.2,0.7,0.7,1.2,0.9,1.8C94.9,63.7,95.5,66,96,68.3z"/>
	<polygon class="st0" points="140,54 140,56.7 134.5,56.7 134.5,72.1 131.2,72.1 131.2,54 	"/>
	<rect x="146.1" y="54" class="st0" width="3.3" height="18.2"/>
	<path class="st0" d="M149.3,50.6c-0.1,0.1-1.7,0.6-1.9,0.6c-1.8,0-2.7-3.3-1.4-4.2c1.1-0.7,2.9-0.3,3.6,0.8
		C150.1,48.6,149.6,50.3,149.3,50.6z"/>
</g>
</svg>
