<svg id="Capa_1" data-name="Capa 1" xmlns="http://www.w3.org/2000/svg" viewBox="0 0 230 120"><defs><style>.cls-1{fill:#020c2d;}</style></defs><g id="Layer_11" data-name="Layer 11"><path class="cls-1" d="M47.17,36.29a26.25,26.25,0,0,0-13.45-3.58A26.73,26.73,0,0,0,6.89,59.54,26.73,26.73,0,0,0,33.72,86.36,26.73,26.73,0,0,0,60.54,59.54,26.73,26.73,0,0,0,47.17,36.29ZM35.29,69.2A10.36,10.36,0,0,1,28,66.6a8,8,0,0,1-2.47-4.34h29a22.7,22.7,0,0,1-2.08,6.94H35.29ZM25.54,56.81A8.38,8.38,0,0,1,28,52.47a10.36,10.36,0,0,1,7.32-2.6H52.45a20.47,20.47,0,0,1,2.09,6.94h-29Zm-10-8a21,21,0,0,1,7.63-7.71,21.14,21.14,0,0,1,21.2,0,20.21,20.21,0,0,1,4.39,3.45H35.25a17.21,17.21,0,0,0-8.22,2,13.51,13.51,0,0,0-5.53,5.32,15,15,0,0,0-1.79,5.07H13.06a20.48,20.48,0,0,1,2.6-8h-.17v-.08ZM44.28,77.93a21.16,21.16,0,0,1-21.21,0,21,21,0,0,1-7.62-7.71,19.91,19.91,0,0,1-2.6-7.92h6.64a15.5,15.5,0,0,0,1.79,5.07,15.06,15.06,0,0,0,5.54,5.32,17.19,17.19,0,0,0,8.22,2H48.49a19.67,19.67,0,0,1-4.26,3.28h.05Z"/><path class="cls-1" d="M103.85,68.14,98.69,48.51a6,6,0,0,0-2-3.2,5.4,5.4,0,0,0-3.57-1.19,5.13,5.13,0,0,0-3.5,1.19,6,6,0,0,0-2,3.2L82.56,68.05,76.3,44.55H69l7.62,25.84c.9,3.2,2.86,4.77,5.75,4.77s2.77-.47,3.75-1.27a7,7,0,0,0,2-3.5L93.2,50.51l5.07,19.88c.81,3.2,2.77,4.77,5.75,4.77s4.85-1.57,5.74-4.77l7.54-25.84h-7.24l-6.21,23.59h0Z"/><path class="cls-1" d="M142.68,45.82a16.53,16.53,0,0,0-8.3-2.08,15.92,15.92,0,0,0-14.06,7.83,16.44,16.44,0,0,0,0,16,15.72,15.72,0,0,0,5.84,5.75,16.35,16.35,0,0,0,8.22,2.09,16.65,16.65,0,0,0,8.3-2.09,16,16,0,0,0,5.83-5.75,16.38,16.38,0,0,0,0-16,15.77,15.77,0,0,0-5.83-5.75Zm-.21,18.61a9.37,9.37,0,0,1-3.2,3.49,9.26,9.26,0,0,1-4.77,1.28,9.42,9.42,0,0,1-4.77-1.28,8.31,8.31,0,0,1-3.19-3.45,10.84,10.84,0,0,1-1.19-4.93,10,10,0,0,1,1.19-4.94,9.2,9.2,0,0,1,12.73-3.5,8.39,8.39,0,0,1,3.2,3.45,10.92,10.92,0,0,1,1.19,4.94,10,10,0,0,1-1.19,4.94Z"/><path class="cls-1" d="M164.48,46.29a9.6,9.6,0,0,0-3.07,4.18V44.55h-6.85v30h6.94V61.2c0-3.58.81-6.14,2.55-7.71s4.09-2.39,7.24-2.39h.17V44.16h-.21a11,11,0,0,0-6.73,2.09h0Z"/><path class="cls-1" d="M183.56,67.71a5.14,5.14,0,0,1-1-3.49V33.09h-6.94v32c0,3.37.89,5.84,2.59,7.41s4.39,2.39,7.92,2.39h.68V69a4.46,4.46,0,0,1-3.36-1.19h0l.09-.09Z"/><path class="cls-1" d="M213,33V48.29a11.86,11.86,0,0,0-2.56-2.47,12.93,12.93,0,0,0-7.4-2.08,15.82,15.82,0,0,0-7.92,2,14.34,14.34,0,0,0-5.37,5.66,17.35,17.35,0,0,0-2,8.14,17.07,17.07,0,0,0,1.88,8.13A14.51,14.51,0,0,0,195,73.33a15.55,15.55,0,0,0,8,2,9.72,9.72,0,0,0,5.15-1,11.16,11.16,0,0,0,4-2.76c.3-.3.51-.69.76-1v3.87h6.94V32.88H213Zm-1.07,31.59a8.35,8.35,0,0,1-3.27,3.49,9.48,9.48,0,0,1-4.86,1.28A8.94,8.94,0,0,1,199,68.05a8.41,8.41,0,0,1-3.15-3.49,10.84,10.84,0,0,1-1.11-5,11.5,11.5,0,0,1,1.11-5A7.93,7.93,0,0,1,199,51a9.28,9.28,0,0,1,4.77-1.28A9.73,9.73,0,0,1,208.64,51a8.61,8.61,0,0,1,3.27,3.49,10.77,10.77,0,0,1,1.2,5,10.4,10.4,0,0,1-1.2,5Z"/></g></svg>