<svg id="Capa_1" data-name="Capa 1" xmlns="http://www.w3.org/2000/svg" viewBox="0 0 230 120"><defs><style>.cls-1{fill:#020c2d;}</style></defs><path class="cls-1" d="M171.51,54.59V53.07c-3.57-7.11-14.08-6-20.67-4.75-.53-.07-1.16-1.29-1.74-1.74a14.42,14.42,0,0,0-1.58-.91c-.44-.76.9-3.47,1.26-4.29l.44.13.42.85.87.1c.27-1.15-.38-1.41-.86-2.25,1.53-1.55,6.42-4,4.94-6.71-1.19-2.17-3.39-.72-5.08-.37-.3.06-.4,0-.3-.3.49-1.54,3.89-4.58,5.19-5.85.3-.29.73-.42,1-.76a2.8,2.8,0,0,0-.76-3.56c-2.16-1.43-4.55.29-5.84,2.05-.14-2.43.38-4.83.21-7.26s-1.19-6.37-3.14-8.12c-1.29-1.16-3.06-1.44-4.65-1.94H138c-.35.34-.9.27-1.35.48a5.08,5.08,0,0,0-2.52,6.31c1.8,1.94,4.53.36,6.7,0a5.57,5.57,0,0,1,1.13,2.33c1.27,4.13.81,9.63.37,13.92-.23,2.27-.77,4.54-.87,6.81-.13.15-1.54-.69-1.89-.8-3.44-1.08-6.83,2.08-8,5.08a24.44,24.44,0,0,0-1.14,5.9,23.76,23.76,0,0,1-2.77-.8c-2.64-.61-7.46-1-9.93.11a4.26,4.26,0,0,0-2.78,3.72A4,4,0,0,0,112.77,47c-3.07-1.51-8-1-11.24-.11a10.08,10.08,0,0,0-2.12.81c0-3.7-.89-7.89-4.13-10.08,0-1.19,3.77-3,2.28-5.29-1.2-1.85-3.35-.38-4.53.65-.86.75-1.26,2-2.71,1.73a2,2,0,0,1,.1-.88c1.46-5,10.93-8.22,10.51-13.95-.21-2.89-4.85-4.76-7.3-3.62-4.42,2.08-5,11.39-7.32,15.2-.35.18-.43-.34-.43-.54,0-1.71,1.89-6-1.08-6.19S80.67,28,80.36,30.45a27.87,27.87,0,0,0,0,3.88c0,1.63.06,3.28-.11,4.89-1.3.88-1.68-1.43-2.41-2.16-1.21-1.21-2.23,0-2.59,1.28-.85,2.88.49,6.44,1,9.32-3.91-.26-7.86-.54-11.69.54-2.67.75-5.08,2.15-6.06,4.87v1.52c1.77,3.35,4.93,5.28,8,7.26-1.1,1.63-2.43,3.09-3.42,4.8a30.52,30.52,0,0,0-3.93,11.68c0,.55.11,1.11.75,1.16,1.42.13,3.07-3.2,4.22-3.9a31,31,0,0,0-.33,6.93c.64,1.28,2.63-.87,2.92-.65.07,1.6,1.88,3.31,2.29,4.54.23.71.24,1.74.47,2.56a12.69,12.69,0,0,0,6.91,8.46,19.93,19.93,0,0,1,3.24,1.31L83,106.88c-4.33.9-8.74.83-12.85,2.73-.11,0-1.28.6-.46.62l7.9-1.51-4.69,2.13-2.24,1.76h.44a5.09,5.09,0,0,1,1.67-.81c3.69-1.42,8-3.37,11.86-3.73,1.19-.11,2.42.2,3.57-.22-.08-.39-.42-.41-.75-.44-.76-.08-2.92,0-3.38-.52-.34-1.06-3.27-7.35-2.8-7.92l5.51.66h6.51L98.33,99a16.25,16.25,0,0,1-1.07,6.84l-4.08.89-.48.93a12.89,12.89,0,0,1,4.42-.41l12.47,2.58c-.07-.3-.66-.53-.94-.69a16.67,16.67,0,0,0-6.86-2.13c-.16-.83,1.36-.29,1.84-.43l7.58,1.08c.18-.29-.36-.44-.54-.54-2.44-1.35-5-1.53-7.7-1.85l-4.21.45,1-6.94c5.29-1.47,12.16-5,12.87-11.17.82-7.1-3.46-12.62-7.34-17.94-.13-.17-.45-.37-.11-.55l19.38.66c-4.22,5.35-9.49,13.07-6.66,20.19,2,5.11,7.68,7.21,12.48,8.84l.89,6.9c-3.48-.44-7.12-.54-10.45.71a4.31,4.31,0,0,0-2.11,1.24c3.14-.39,6.46-1.23,9.64-1.08.36,0,.6.19.32.43-2.8.16-6.14.89-8.23,2.82l12.48-2.57,4.19.4a.7.7,0,0,0-.49-.91,17.07,17.07,0,0,0-3.46-.65l-.48-.39c-.62-.76-1.52-6.35-1.19-6.71a54.69,54.69,0,0,0,17.32,0l-2.92,8c-.28.29-2.94.37-3.64.48-.19,0-.65.1-.59.38,1.08.41,2.24.12,3.36.22,5.07.44,9.18,2.91,14,4.33a7.43,7.43,0,0,0-2-1.56l-5.34-2.34c2.78.38,5.5,1.12,8.27,1.59.22,0,.66.34.61-.07a32.87,32.87,0,0,0-13.42-2.82l3.23-8.57c3.55-1.13,6.58-2.65,8.55-5.95,1.33-2.24,1.33-3.87,2.12-6.11.58-1.63,2-3.12,2.34-4.92a4.77,4.77,0,0,0,2.22,1.14c.21,0,.24.28.49-.05.27-2.61-1.27-5.11-1-7.8,1.46,1.24,2.24,3.88,4.52,3.66,1-.66-.72-6.48-1.11-7.61a24.2,24.2,0,0,0-5-8.61l-.12-.53C166.56,59.92,169.51,57.94,171.51,54.59Zm-22.3-1.19c-1.3,1.7-4.7,2.76-6.28,1,2.64-1,.7-4.12-1.51-2.6-.65-1.73.71-4.16,2.22-5C147.83,44.36,152.19,49.5,149.21,53.4Zm-6.49-.55v-.53L143,52l.32.33v.53Zm.86-21.54a83.75,83.75,0,0,0,.22-8.66,26.51,26.51,0,0,0-1.32-9.06c0-.12.92-.57,1.1-.69s.56.06.43-.53c-2.46,0-4.95,1.69-7.45,1.28-1.73-.28-1.4-2.43-.56-3.56,2-2.68,6.75-2,8.88.22,4.09,4.17,2.9,13.51,1.73,18.73.21.23,1-.69,1.2-.87,1.62-1.79,2.68-5.06,5.61-4.75,1.15.13,1.42,1.35.77,2.26-1.57,2.21-5.88,5.17-6.26,7.81-.08.53,0,1.08,0,1.61l4.43-1.73.64.24.56,1.15-.16.5c-.67,1.08-1.86,1.61-2.77,2.43-.47.43-1.74,2-2,2.19-.44.28-2.6-.4-2.66,1.07l1.73.32-1.51,3.92-.31.22-1.33-.33a19,19,0,0,0-.54-3.36c-.28-.93-1-1.81-1.18-2.5C142.37,37.6,143.41,33.27,143.58,31.31ZM131.48,45c.29-2.53,3.21-7.41,5.93-7.71,4.32-.46,5.72,5,6.14,8.32l-1.48.78a2.94,2.94,0,0,0-1.51-2.5,2.72,2.72,0,1,0-.23,5.1,6.16,6.16,0,0,0,.22,4c-1,1.64-3.7,1.77-5.34,1C132.4,52.66,131.15,47.82,131.48,45Zm9.46.74a.82.82,0,1,1-.82-.82A.82.82,0,0,1,140.94,45.71Zm-26.15,5.85.75,2.38a17.78,17.78,0,0,0,4,5.63l-9.1-.22C112.58,57.36,114.76,54.63,114.79,51.56Zm5.74,8.86c.33,0,.67,0,.75.45H108.5c.18-.49,1-.63,1.4-.67A65.18,65.18,0,0,1,120.53,60.42ZM90.89,36c1-.48,1.88-.75,2.89,0,.42-.94-1.09-.63-.86-1.19l2.52-2,.61.4c.59,1.26-1.08,2.48-1.84,3.36-1.34.11-2.47-.58-3.89-.11C90.27,36.1,90.66,36.11,90.89,36Zm2.92,1.78c2.6,1.45,4.61,5.31,4.74,8.26.17,4-3,10-7.7,8.13-2.37-.92-.92-1.79-1-3.36A8.16,8.16,0,0,0,89.45,49c1.47.11,3.32-.17,3.63-1.89a2.72,2.72,0,1,0-5.36-.71l-1.31-.58C86.36,42.16,89.18,35.19,93.81,37.78ZM89,45.71a.82.82,0,0,1,1.63,0,.82.82,0,0,1-1.63,0Zm-1.89,8.66c-2,2.3-6.82-.07-7.31-2.76-.86-4.69,5.1-7.55,7.92-3.59a5.21,5.21,0,0,1,.9,3.75c-.39.1-.5-.29-.8-.39C85.55,50.69,84.9,54.15,87.07,54.37Zm.43-1.84-.32.32-.76-.32.33-.32ZM77,38.14,79.61,41c1.06.16,1.58-1,1.78-1.9.77-3.35-1-10.47,2-12.73a1.47,1.47,0,0,1,.55-.33l1.09.23c.53,1.53-1,5.09,0,6.27l.52.35c1.12.32,1.7-.19,2.13-1.14,1.57-3.46,2.69-11.85,5.82-13.89,2.46-1.6,6.06,0,5.65,3.05-.46,3.51-3.29,4.69-5.58,6.77-2,1.85-4.28,4.18-4.64,7l-1.27.47-.36.61,1.59,0,.5.95c-2.76,2.1-3.93,5.35-4,8.76-1.68-.08-3-.09-4.34,1-1,.74-1.31,2.21-2.66,1.81-1.1-.33-1.91-4.39-2.07-5.51C76.08,41.47,75.74,38.84,77,38.14ZM60.54,55.46c-1.26-1.55-1.21-2.2.21-3.7,3.71-3.9,13.2-3.55,18.09-2.58-.67,4,2.34,7.72,6.5,6.92l-1.63.65H80.36c.12.37,1.1.6,1.42.64,2.37.28,5.13-.17,6.69-2.1,1.68,1.16,3.36,2.21,5.53,1.89l-4.33-2.37c3.07,1.26,6.43.63,8.18-2.32.84-1.42.82-3.16,2.35-3.94,2.61-1.32,9.06-1.88,11.7-.71,2.93,1.3,1.27,5.62,0,7.68-2.71,4.51-9.62,8.72-14.8,9.46-.55.08-.22-.28,0-.63,2.19-3.08,5.18-3.58,7.57-6.3a22.77,22.77,0,0,0,3.6-5.81l.83,0c.25-.23-1.06-1.42-1.31-1.6-1.72-1.26-5.49-2.06-6.91-.13l3-.21C102.38,58.34,95.23,63.72,90.44,70c-.64.49-2.25-.81-2.92-1.23-4.88-3-11.37-8.13-14.7-12.79a16.92,16.92,0,0,1-2-3.25c-.11-.63,1.39-.63,1.81-.73s.38.16.33-.42a9,9,0,0,0-9.31,4.22l2-1a26.88,26.88,0,0,0,4.71,4.4c3.45,2.38,6.76,2.83,10,5.76a3,3,0,0,1,.76.86,36.19,36.19,0,0,1-12.7-4.29A27,27,0,0,1,60.54,55.46Zm39.84,4.75,1.35-2.1.49-.27.35.86A5.82,5.82,0,0,1,100.38,60.21Zm5.31-5-2.16,2.59-.81-1.4,1.52-1.81Zm-1.22-2.05.93-2.48c2.85.29,1.67,1.87.93,3.65C106,54.59,104.51,53.54,104.47,53.19Zm-29.2,7.67a12,12,0,0,0-2-1c-1.18-.66-1.47-1-.34-2Zm-4-5.62.83,1.65-.82,1.49c-.52.39-1.11-1.07-1.74-1Zm-2.69,1.07c-.41-.35-2.21-2.07-1.85-2.58l2.46-1.08,1,2Zm-7.37,21c-.3.32-.71.87-1.2.86-.26-.32,1.25-4.6,1.51-5.31.92-2.43,3.61-8.5,5.73-9.86a1.49,1.49,0,0,1,1.27-.16c.37.08,4.51,1.84,4.7,2,.5.45-.68,1.52-1.08,1.84a.89.89,0,0,0-1.08-.86c.49,2.56,1.61,5.51.32,8-.58-1.27-1.09-2.63-1.79-3.84-.14-.23,0-.37-.48-.28-1.06,2.56-1.79,5.51-2.93,8a4.63,4.63,0,0,1-1.3,2c-.26-2.66.51-5.35.76-8-.41-.07-.62.28-.86.55C63.47,73.7,62.53,75.86,61.2,77.33Zm7.9,6.92-1.85-4.11-2.59,1.51-.11-.43c3-1.6,3.69-5.31,4.87-8.23l1.79,3.1a43.47,43.47,0,0,0-1.66,6.56C69.46,83.2,69.76,84,69.1,84.25Zm89.71,5.38c-1.18,5.06-5.51,7.15-10.24,8.16-13.81,3-37.74-1.35-27.55-20.62l6.75-10.67c-1.83,1.6-2,2.5-4.66,2.39-6.19-.27-12.4-.48-18.6-.67L101.58,66c3.19,4.54,7.08,9.64,8.88,14.94,3.16,9.27-2.82,14.57-11.22,16.72-6.71,1.73-22.87,1.84-26.94-5-4-6.62-.17-16.58,2.21-23.22l-.4,0-.9,1.37-.43-3.12,1.65-2.27c1.32.35,2.6.74,3.94,1s3.91.32,5.06.78a40.37,40.37,0,0,1,3.49,2.35c.68.4,2.66,1.54,3.29,1.5,1,0,3.13-2.62,4-3.38,2.21-1.91,4-1.61,6.56-2.53A62.78,62.78,0,0,0,107.14,62c4.84.32,10.61-.59,15.34-.06,1.1.13,4.41,2.34,6,2.93,1.74.67,4.63,1,6,1.8s3,3,4.29,3.94a1.82,1.82,0,0,0,.69.39,1.72,1.72,0,0,0,1.14-.08c2.11-.77,4.27-2.92,6.33-3.84,1.58-.23,3.19-.35,4.77-.65.83-.15,3-1,3.53-.93a1.6,1.6,0,0,1,1.14,1.14l-.45,2.4-.37.35c.55,1.51.28,3.38,1.12,4.76C158.94,78,159.84,85.21,158.81,89.63Zm6.2-9.49a11.66,11.66,0,0,0,.34,1.29c.12.49-.68.17-.93.06s-1.73-1.55-2-1.35c-.52,1.32-.83,3.21-1.95,4.11-.17-3.17-1.35-6.19-2.16-9.23l1.19-2.68c1.19,2.87,2,6.22,4.65,8.12ZM166.14,69a28.14,28.14,0,0,1,2.77,8.59c-2.31-1.77-3.31-4.77-5.41-6.71-.24,2.39.76,4.91.75,7.25,0,.39,0,.92-.53.76-.92-1-3.5-9.63-4-9.75s-.42.32-.55.54A26.07,26.07,0,0,0,157.65,73c-.29.34-.62-1.6-.64-1.84-.18-2.12.53-4.11.86-6.17l-1,.41-.41-.41,5.63-2.18A21.81,21.81,0,0,1,166.14,69ZM159,62.78a35.13,35.13,0,0,1-10.47,3.06l3.69-3.12a27.34,27.34,0,0,0,12.05-7.9l2,1.06a6.7,6.7,0,0,0-3.91-3.56,20.84,20.84,0,0,0-2.27-.76H157c-.1.61.11.36.5.46s1.77.13,1.65.71c-.66,1-1.18,2-1.85,2.92a46.47,46.47,0,0,1-8.65,8.68c-1,.84-8.1,6-8.84,5.81a79.75,79.75,0,0,1-5.55-5.92c-3.4-4-7-8.5-8.43-13.62.14-.7,1.93-.16,2.47-.12.14,0,1,.12.66-.22-2.45-1.88-6.93-.74-8.34,1.94l1.06,0a17.7,17.7,0,0,0,7.53,9c.52.32,1.07.3,1.6.79.8.74,1.47,2.1,2.37,2.82a13.72,13.72,0,0,1-4.23-1c-4.85-1.72-11.06-6.22-12.34-11.47-.94-3.81.8-4.92,4.34-5.2,2.09-.17,8.87.32,9.94,2.39.92,1.78.7,3,2.62,4.53a6.24,6.24,0,0,0,6.6.66l-1.37,1.12L136,57.18c2.13.33,3.8-.93,5.51-1.94,1.34,2.26,5.25,2.61,7.53,1.88.23-.07.65,0,.6-.37h-3.57s-1-.21-1-.43a5.63,5.63,0,0,0,5.85-6.8l.36-.3c4.8-1.19,15.22-1.28,18.35,3.22,1.06,1.53.41,2.21-.63,3.45C166.79,58.55,162.19,61.3,159,62.78Zm-4.4-2,2.48-2.92c.35.24.74,1.14.51,1.47Zm5.84-3.68c-.38.29-1.43,1.76-1.94,1.4l-.65-1.4L159,55.24Zm-.82-2.64,1.17-1.76,2.45,1.17c.14.47-1.42,2.08-1.85,2.45Zm-30,6-2.49-1.84.75-.75a13.24,13.24,0,0,1,1.49,2.09C129.44,60,130.1,60,129.62,60.43Zm-5-5.25a3,3,0,0,1,1.15-.6c1.22.91,2,2.29.32,3.26l-1.74-2.28C124.21,55.13,124.44,55.29,124.58,55.18Zm-.79-.82c-1-1.28-2.06-3.17.25-3.63a1.22,1.22,0,0,1,.57,0l.8,2.48Z"/><path class="cls-1" d="M159.17,112.61c0-.11-.17-.15-.22-.21v.21Z"/><path class="cls-1" d="M138.81,34.34c-.26-.38-.55-.35-1-.33-1.67.07-5,.84-5.31,2.82C134.21,34.87,136.86,35.52,138.81,34.34Z"/><path class="cls-1" d="M138.81,58.82h.87c.79-.49.7-1.22.65-2.06C139.4,56.45,138,58.27,138.81,58.82Z"/><path class="cls-1" d="M141.85,56.75l-.11,1.73.68.61.67-.23.22-.66C143.07,57.48,142.7,56.78,141.85,56.75Z"/><path class="cls-1" d="M91.06,57.41l-1.39-.66a1.82,1.82,0,0,0,.32,2C90.67,59.41,91.88,58.49,91.06,57.41Z"/><path class="cls-1" d="M86.84,58.82h.88c.91-.59.6-1.16.43-2.06C87.3,56.61,86.09,58.31,86.84,58.82Z"/><path class="cls-1" d="M80.35,43.86a11.79,11.79,0,0,1,2.6-.32c-.61-2.09-5.23-.68-4.54,1.52C79.31,45.19,79.57,44.11,80.35,43.86Z"/></svg>