<svg id="Capa_1" data-name="Capa 1" xmlns="http://www.w3.org/2000/svg" viewBox="0 0 230 120"><defs><style>.cls-1{fill:#020c2d;}</style></defs><path class="cls-1" d="M114.89,45.89c5.14.89,8.24,6.48,6.58,11.49-.48,1.46-2.89,3.39-2.89,3.63s3.15,2.75,3.71,4.44c1,3,.39,7.47-1.71,9.82a25.52,25.52,0,0,1-3.24,2.48H99.78V45.89C104.37,46.45,110.53,45.14,114.89,45.89ZM104.68,59c3.57-.8,11.11,2.28,11.49-2.84.57-7.72-6.16-4.87-11.49-5.34Zm12.08,5.89c-1.89-1.88-9.29-.63-12.08-1v9.81c4.34-.22,12.46,1.66,13.08-4.55C117.87,68,117.52,65.62,116.76,64.86Z"/><path class="cls-1" d="M52.4,54.06c.1.09,1.84,0,2.66.19,1.92.48,4.61,2.59,5.38.1.36-1.17-.27-4,1.41-4.32.38-.08,5.4,1.08,5.71,1.53.69,1,0,5.95-.51,6.53s-4.71,0-5.66-.76V65.5l5.7-.8L67.9,72c-1.93-.36-4.3,1.28-6,.78s-1-3-1.43-4.32c-.68-2.27-1.81-.5-3.14-.11-1,.3-4.61,1-4.91,1.22s3,3.12,2.39,5.2c-.33,1.16-4.76,3.15-6,3a25.18,25.18,0,0,1-2.58-4.1c-1.43-3.61,2.17-2.65,4.55-4.54-1.13-1.13-3.76-6.46-5.28-6.11-.7.16-2,2.33-2.88,2.88-1.43.9-5.72-3.75-5.72-4.13a30.4,30.4,0,0,1,4.61-4.42c2.35-.68,3.17,2.69,4.72,2.36,1.24-.26,3-4.49,4.54-5.29l-4.86-3.34,2.43-6.06c.42-.5,6.14,2.31,6.45,3.78S51.5,53.25,52.4,54.06Z"/><path class="cls-1" d="M169.14,46l10.7,31.77c-7,1.38-6.12-3.79-8.11-8.63l-11-.39-3,9-4.85,0,.37-3.31,9.83-27.75C164,45.31,167.49,45.92,169.14,46Zm.9,18.7-.16-2.7-3.52-9.55c-1.27,1.08-5,11.79-4.49,12.25Z"/><path class="cls-1" d="M188.83,65.5V77.75h-4.9V47.12a8.35,8.35,0,0,1,1.22-1.23H199A32.36,32.36,0,0,1,203.52,48c2.74,2.34,3.25,9.32,1.84,12.43C202.75,66.17,194.13,65.69,188.83,65.5Zm0-4.9c3.09-.32,11.62,1.4,12.26-2.85,1.39-9.21-5.77-6.65-12.26-7Z"/><path class="cls-1" d="M138.8,45.24c3-.21,8.08,2,10,4.32,1.43,1.75,2.41,2.92.29,4.4-3.21,2.25-3.71-1.29-6.07-2.71-4.68-2.83-9.9,0-11,5.22-1.6,7.4-.61,19.36,9.69,17,3.24-.73,4.1-4.47,5.13-4.71,1.74-.4,4.62,1.81,2.82,4.5-5.13,7.64-16.7,7-21.12-1-2.33-4.2-2.29-10.55-1.81-15.38A13.39,13.39,0,0,1,138.8,45.24Z"/><path class="cls-1" d="M73.64,72v5.73C65.55,79.3,65.58,70.48,73.64,72Z"/><path class="cls-1" d="M51.51,39.43c.51.73-1.34,4.52-1.66,4.75-2.31,1.66-7-3.36-3.21-6.1C47.73,37.31,51.23,39,51.51,39.43Z"/><circle class="cls-1" cx="46.72" cy="81.83" r="3.12"/><path class="cls-1" d="M34.35,57.41c.19.13,1.89,3.57,1.67,4.33-.31,1.08-3.2,2.4-4.35,2.07C27.23,62.55,31.73,55.6,34.35,57.41Z"/><path class="cls-1" d="M68.75,51.59l.83-4.86C77.71,45.93,76,54.81,68.75,51.59Z"/><rect class="cls-1" x="47.07" y="31.58" width="4.11" height="4.11" transform="translate(-9.4 44.59) rotate(-45)"/><path class="cls-1" d="M80.17,50.79c-1.14,1.39-5.37-3.93-2-4.89C81.28,45,81.46,49.22,80.17,50.79Z"/><path class="cls-1" d="M40.14,89.19V85.11C45.82,84.39,45.69,90,40.14,89.19Z"/><path class="cls-1" d="M76.08,83.47,72,82.65C72.16,77.46,78.12,78.15,76.08,83.47Z"/><path class="cls-1" d="M27.88,55.7A6,6,0,0,1,27.5,59c-1.61,2.62-4.58-.65-3.32-2.49C24.84,55.53,27.61,55.42,27.88,55.7Z"/></svg>