<?xml version="1.0" encoding="utf-8"?>
<!-- Generator: Adobe Illustrator 26.0.2, SVG Export Plug-In . SVG Version: 6.00 Build 0)  -->
<svg version="1.1" id="Capa_1" xmlns="http://www.w3.org/2000/svg" xmlns:xlink="http://www.w3.org/1999/xlink" x="0px" y="0px"
	 viewBox="0 0 230 120" style="enable-background:new 0 0 230 120;" xml:space="preserve">
<style type="text/css">
	.st0{fill:#0C132C;}
</style>
<g>
	<path class="st0" d="M115.5,11.9c0-0.2-0.6-0.7-0.1-0.9c0.6,0.7,1.3,1.5,1.7,2.3c3.2,5.9-0.8,14.1,0.7,20.5
		c0.4,1.5,1.3,2.8,1.8,4.3c-9-1.4-18.4,2.6-23.1,10.4c-3.1,5.1-3.9,10.6-3,16.5h-5.8c-4.3,0-10.8-4.4-16.7-4.6
		c-1.6-0.1-3.2,0.4-4.7,0.1c1.3-1.2,3.5-2.6,5.3-2.8c6.6-0.9,15,2.9,21-1c0.3-0.2,0.7-0.3,0.6-0.7c-0.6-0.6-1.5-0.8-2.1-1.4
		c-1.5-1.3-2.9-3.7-4.3-5.1c-1.8-1.7-4.6-3.3-7-3.9c0-0.4,1.2-0.5,1.5-0.5c4.1-0.2,7.2,3.2,9.1,3.2h5.9l0.4-0.5
		c-1.1-0.5-2.3-1.8-3.1-2.7c-4.1-4.8-4.9-11.2-9.3-16c-0.9-1-2-1.8-3-2.7c-0.3-0.3-0.6-0.5-0.5-0.9c1,0.3,1.9,0.4,2.9,0.7
		c7.5,2.3,10.3,14.7,19.1,15.5c0.1-1-0.5-1.9-0.5-2.8c-0.1-3,0.7-6.6,0.3-9.7l-1.7-4.7c4.1,1.9,3.6,7,5.9,10.2
		c0.4,0.6,2.7,2.9,3.2,3.3c0.3,0.2,0.5,0.3,1,0.3v-5.8c0-3.7,4.6-10.5,4.6-14.5C115.5,15.9,115.6,13.8,115.5,11.9z"/>
	<path class="st0" d="M127.6,41.1c0.5,0.6,3-2.4,3.5-2.8c4-3.4,9.3-4.5,13.5-7.4c2.1-1.5,3.8-3.5,5.6-5.3
		c-0.3,10.4-14.4,12.1-16,22.1c-3.6-4.5-8.5-8.3-14.4-9.1c1.6-3.5,5.2-5.1,7.5-7.9c1.4-1.7,2.5-3.7,3-5.8c0.4,0,0.5,0.7,0.5,1
		c0.5,4.4-3.4,7.6-3.5,12.1C127.3,38.9,127.8,40,127.6,41.1z"/>
	<path class="st0" d="M137.8,55.9h6.1c3.7,0,10.3,4.6,15.1,4.6h5.8l-3,1.9c-7.8,2.7-16.5-2.8-23.9,2.1c-0.4,0.6,1.5,1.2,1.9,1.5
		c1.3,1,2.2,2.7,3.4,3.9c2.3,2.5,4.8,4.6,8.2,5.4c0,0.4-1,0.5-1.2,0.5c-4.1,0.3-5.9-2.3-9.5-3.1c-2.1-0.5-3.8-0.2-6-0.1
		c-0.1,0.5,0.2,0.5,0.4,0.8c0.9,1.1,2.2,2,3.1,3.1c3.1,3.8,4,8.9,6.8,12.9l5.6,5.8c-10.4,0-12.2-14.8-22.3-15.9
		c0.5,1.5,0.6,2.8,0.5,4.4c-0.1,2.4-0.5,4.8-0.2,7.2c0.2,1.8,1.3,3.8,1.9,5.5c-4.3-2.2-3.6-7.3-6.3-10.7c-0.5-0.6-1.3-1.4-1.9-1.9
		c-0.2-0.2-1.6-1.3-1.7-1.1c-0.2,2-0.1,4.3-0.3,6.3c-0.7,5.3-4.2,9.9-4.5,15.9c-0.1,1.7,0.4,3.3,0.1,5c-6.8-7.8,1.6-18.8-4.2-27.2
		c0.9-0.1,1.7,0.2,2.5,0.3c17.3,0.7,29-16.4,22-32.2l-1.7-3c1.6-0.4,3-0.6,4.7-0.5c3.3,0.1,6,0.7,9.3-0.3c1-0.3,2-1,2.8-1.3
		c0.8-0.3-1,1.8-1.2,2c-3.2,2.9-7.4,1.9-10.9,6C138.5,54.3,137.8,55.2,137.8,55.9z"/>
	<path class="st0" d="M81.1,95.7c-0.5,0.1-0.3-0.6-0.2-0.9c1.2-9.1,12-11.1,15.5-19.5c0.3-0.7,0.2-1.7,0.9-2
		c1.2,2.4,3.5,3.8,5.4,5.5c0.2,0.2,0.6,0.4,0.4,0.7C97.4,87.4,85.9,87.2,81.1,95.7z"/>
	<path class="st0" d="M96.7,73.1c-1.6,0.6-3,0.6-4.7,0.5c-2.2-0.1-4.4-0.5-6.7-0.2c-2,0.2-3.7,1.2-5.5,1.9c1.3-3.5,5.4-3.7,8.3-5
		c2.4-1.1,4-3,5.5-5L96.7,73.1z"/>
	<path class="st0" d="M111.2,82.6c-1.3,3.4-4.8,4.9-7,7.4c-1.5,1.7-2.3,3.4-3.2,5.4c-0.1,0.3-0.1,0.8-0.6,0.9
		c-0.2-2.1-0.1-3.9,0.8-5.8c0.4-1,1.1-1.8,1.5-2.8c1.1-2.6,1.2-5.3,0.7-8.1C105.9,80.8,108.4,82.3,111.2,82.6z"/>
</g>
</svg>
