<?xml version="1.0" encoding="utf-8"?>
<!-- Generator: Adobe Illustrator 26.0.2, SVG Export Plug-In . SVG Version: 6.00 Build 0)  -->
<svg version="1.1" id="Capa_1" xmlns="http://www.w3.org/2000/svg" xmlns:xlink="http://www.w3.org/1999/xlink" x="0px" y="0px"
	 viewBox="0 0 230 120" style="enable-background:new 0 0 230 120;" xml:space="preserve">
<style type="text/css">
	.st0{fill:#020C2D;}
</style>
<g>
	<path class="st0" d="M186.4,54.4h1.8c0,0.8,0,2.1-0.1,2.5h0.3c0.5-1,1.3-2.9,3.8-2.9c2.7,0,4.8,2.3,4.8,6.3s-2.1,6.2-4.8,6.2
		c-2.3,0-3.3-1.5-3.8-2.9h-0.3c0.4,1.2,0.3,2.2,0.3,4.6v2.5h-2L186.4,54.4L186.4,54.4z M194.9,60.3c0-3.3-1.4-4.5-3.3-4.5
		c-2,0-3.3,1.5-3.3,4.5s1.4,4.4,3.3,4.4C193.5,64.8,194.9,63.6,194.9,60.3z"/>
	<path class="st0" d="M95.6,54.4h1.8c0,0.8,0,2.1-0.1,2.5h0.3c0.5-1,1.3-2.9,3.8-2.9c2.7,0,4.8,2.3,4.8,6.3s-2.1,6.2-4.8,6.2
		c-2.3,0-3.3-1.5-3.8-2.9h-0.3c0.4,1.2,0.3,2.2,0.3,4.6v2.5h-2V54.4z M104.1,60.3c0-3.3-1.4-4.5-3.3-4.5c-2,0-3.3,1.5-3.3,4.5
		s1.4,4.4,3.3,4.4C102.7,64.8,104.1,63.6,104.1,60.3z"/>
	<path class="st0" d="M11.7,49.5h7.2c3.5,0,5.1,1.8,5.1,4c0,2.2-1.5,3.4-3.5,3.5v0.9c2,0.1,4,1.2,4,3.8c0,3.1-2.5,4.5-5.4,4.5h-7.4
		V49.5z M18.7,56.5c1.9,0,3.1-1,3.1-2.6c0-1.6-1.2-2.4-3.1-2.4h-4.8v5H18.7z M18.9,64.2c2.1,0,3.4-1.2,3.4-2.9
		c0-1.7-1.2-2.7-3.4-2.7h-5v5.6H18.9z"/>
	<path class="st0" d="M27.1,63.1c0-3.3,3.6-4.4,7.4-4.7v-0.3c0-1.4-0.8-2.3-2.6-2.3c-2.1,0-2.9,1.3-3.2,2.1l-2-0.7
		c0.5-1.6,2-3.3,5.1-3.3s4.6,1.6,4.6,4v5.6c0,0.5,0.1,0.7,0.7,0.7h1.2v1.8h-0.9c-1.7,0-2.2-0.3-2.2-2.1h-0.5c-0.4,1.5-1.9,2.5-4,2.5
		C28.5,66.5,27.1,65.2,27.1,63.1z M34.5,61.3V60c-2.9,0.3-5.3,1-5.3,3c0,1.1,0.7,1.8,2.2,1.8C32.9,64.8,34.5,63.8,34.5,61.3z"/>
	<path class="st0" d="M40.4,49.5h2.1v2.5h-2.1V49.5z M40.6,54.4h2v11.8h-2V54.4z"/>
	<path class="st0" d="M45.7,54.4h2c0,0.7-0.1,2.4-0.3,2.7h0.3c0.3-1.2,1.5-3.1,3.8-3.1c2.9,0,4.1,1.8,4.1,4.4v7.7h-2V59
		c0-2.2-1-3.1-2.6-3.1c-3.3,0-3.3,3.6-3.3,5.3v5h-2V54.4z"/>
	<path class="st0" d="M64.8,57.7c0-4.8,3.3-8.5,8.1-8.5c4.3,0,6.6,2.7,7.2,4.9l-2.2,0.8c-0.5-1.4-1.7-3.6-5-3.6
		c-3.5,0-5.7,2.4-5.7,6.4s2.3,6.8,5.7,6.8c3.3,0,4.5-1.9,5.1-3.8l2.1,0.8c-0.7,2.7-3.1,5.1-7.2,5.1C67.6,66.5,64.8,62.5,64.8,57.7z"
		/>
	<path class="st0" d="M82.1,63.1c0-3.3,3.6-4.4,7.4-4.7v-0.3c0-1.4-0.8-2.3-2.6-2.3c-2.1,0-2.9,1.3-3.2,2.1l-2-0.7
		c0.5-1.6,2-3.3,5.1-3.3c3.1,0,4.6,1.6,4.6,4v5.6c0,0.5,0.1,0.7,0.7,0.7h1.2v1.8h-0.9c-1.7,0-2.2-0.3-2.2-2.1h-0.5
		c-0.4,1.5-1.9,2.5-4,2.5C83.5,66.5,82.1,65.2,82.1,63.1z M89.5,61.3V60c-2.9,0.3-5.3,1-5.3,3c0,1.1,0.7,1.8,2.2,1.8
		C88,64.8,89.5,63.8,89.5,61.3z"/>
	<path class="st0" d="M122.6,63.1c0-3.3,3.6-4.4,7.4-4.7v-0.3c0-1.4-0.8-2.3-2.6-2.3c-2.1,0-2.9,1.3-3.2,2.1l-2-0.7
		c0.5-1.6,2-3.3,5.1-3.3c3.1,0,4.6,1.6,4.6,4v5.6c0,0.5,0.1,0.7,0.7,0.7h1.2v1.8h-0.9c-1.7,0-2.2-0.3-2.2-2.1h-0.5
		c-0.4,1.5-1.9,2.5-4,2.5C124.1,66.5,122.6,65.2,122.6,63.1z M130,61.3V60c-2.9,0.3-5.3,1-5.3,3c0,1.1,0.7,1.8,2.2,1.8
		C128.5,64.8,130,63.8,130,61.3z"/>
	<path class="st0" d="M108.5,49.5h2.1v2.5h-2.1V49.5z M108.6,54.4h2v11.8h-2V54.4z"/>
	<path class="st0" d="M115.3,63.3v-7.2h-2.7v-1.7h2.7v-3.7h2v3.7h3.2v1.7h-3.2v7.1c0,0.8,0.3,1.2,1.2,1.2h2.5v1.8h-2.7
		C116.3,66.2,115.3,65.3,115.3,63.3z"/>
	<path class="st0" d="M136,49.5h2v16.7h-2V49.5z"/>
	<path class="st0" d="M147.4,57.7c0-4.8,3.3-8.5,8.1-8.5c4.3,0,6.6,2.7,7.2,4.9l-2.2,0.8c-0.5-1.4-1.7-3.6-5-3.6
		c-3.5,0-5.7,2.4-5.7,6.4s2.3,6.8,5.7,6.8c3.3,0,4.5-1.9,5.1-3.8l2.1,0.8c-0.7,2.7-3.1,5.1-7.2,5.1
		C150.2,66.5,147.4,62.5,147.4,57.7z"/>
	<path class="st0" d="M165.1,54.4h2c0,1,0,2.7-0.3,3.3h0.3c0.5-1.9,1.5-3.5,3.9-3.5c0.6,0,0.9,0.1,1.2,0.1v2.1
		c-0.4-0.1-0.8-0.1-1.2-0.1c-2.7,0-3.8,1.7-3.8,4.4v5.4h-2L165.1,54.4L165.1,54.4z"/>
	<path class="st0" d="M184.7,54.4l-4.6,13.4c-0.8,2.3-1.6,3-3.7,3h-2.2v-1.9h2.2c0.8,0,1.3-0.2,1.6-1l0.7-1.9l-5.1-11.7h2.3l2.5,6.1
		c0.5,1.1,0.5,2.3,0.6,3.4h1c0-1,0.1-2,0.5-3.1l2.1-6.4L184.7,54.4L184.7,54.4z"/>
	<path class="st0" d="M200.5,63.3v-7.2h-2.7v-1.7h2.7v-3.7h2v3.7h3.2v1.7h-3.2v7.1c0,0.8,0.3,1.2,1.2,1.2h2.5v1.8h-2.7
		C201.5,66.2,200.5,65.3,200.5,63.3z"/>
	<path class="st0" d="M207.3,60.3c0-3.5,2.3-6.3,5.5-6.3c3.2,0,5.5,2.7,5.5,6.3c0,3.5-2.4,6.2-5.5,6.2
		C209.7,66.5,207.3,63.8,207.3,60.3z M216.2,60.3c0-3-1.4-4.5-3.4-4.5c-2,0-3.4,1.5-3.4,4.5s1.4,4.4,3.4,4.4
		C214.8,64.8,216.2,63.3,216.2,60.3z"/>
</g>
</svg>
