<svg xmlns="http://www.w3.org/2000/svg" xmlns:xlink="http://www.w3.org/1999/xlink" viewBox="0 0 120 110"><defs><style>.cls-1{fill:none;}.cls-2{fill:#020c2d;}.cls-3{fill:#fff;}.cls-4{fill:#6dfcff;}.cls-5{clip-path:url(#clip-path);}.cls-6{clip-path:url(#clip-path-2);}.cls-7{fill:#e7dfdc;}.cls-8{clip-path:url(#clip-path-3);}.cls-9{clip-path:url(#clip-path-4);}.cls-10{clip-path:url(#clip-path-5);}.cls-11{clip-path:url(#clip-path-6);}.cls-12{clip-path:url(#clip-path-7);}.cls-13{clip-path:url(#clip-path-8);}.cls-14{clip-path:url(#clip-path-9);}.cls-15{clip-path:url(#clip-path-10);}</style><clipPath id="clip-path"><rect class="cls-1" x="30.32" y="28.11" width="50.53" height="50.94" rx="2.8"/></clipPath><clipPath id="clip-path-2"><rect class="cls-1" x="66.03" y="18.61" width="29.03" height="22.92"/></clipPath><clipPath id="clip-path-3"><rect class="cls-1" x="66.03" y="41.53" width="29.03" height="22.92"/></clipPath><clipPath id="clip-path-4"><rect class="cls-1" x="66.03" y="64.45" width="29.03" height="22.92"/></clipPath><clipPath id="clip-path-5"><rect class="cls-1" x="37" y="18.61" width="29.03" height="22.92"/></clipPath><clipPath id="clip-path-6"><rect class="cls-1" x="37" y="41.53" width="29.03" height="22.92"/></clipPath><clipPath id="clip-path-7"><rect class="cls-1" x="37" y="64.45" width="29.03" height="22.92"/></clipPath><clipPath id="clip-path-8"><rect class="cls-1" x="7.97" y="18.61" width="29.03" height="22.92"/></clipPath><clipPath id="clip-path-9"><rect class="cls-1" x="7.97" y="41.53" width="29.03" height="22.92"/></clipPath><clipPath id="clip-path-10"><rect class="cls-1" x="7.97" y="64.45" width="29.03" height="22.92"/></clipPath></defs><g id="GRAPHICS"><path class="cls-2" d="M111.61,108H2.41V2H117.59V108h-2.71c-.19-.26-.13-.49-.14-.78a15.78,15.78,0,0,0,0-2.07h-3.13C111.46,105.16,111.71,107.73,111.61,108ZM111.46,5.27H8.11V8.12h3.28v2.7H14a1.15,1.15,0,0,1,.22.22V14.1H99.78V17h2.71V14.31a2.08,2.08,0,0,1,.21-.21h3.21V10.82h2.7V8.12h2.85ZM8,8.12H5.26V105H8v-3.28h3.27V99.11a1.15,1.15,0,0,1,.22-.22h2.63v-6H11.24V11H8Zm89,9H14.24v73H96.93Zm9,0h-3.28v81.8h3.28ZM99.78,90.2H97.07v2.71h2.71Zm-79.56,6H17.08v2.7h3.14Zm5.7,0H23.07v2.7h2.85Zm6,0H29.19v2.7H31.9Zm6.13,0H34.89v2.7H38Zm5.7,0H41v2.7h2.71Zm38.1,0H79.12v2.7h2.71Zm6.13,0H84.82v2.7H88Zm5.7,0H91v2.7h2.71Zm6.12,0H97.07v2.7h2.71ZM108.61,99h-2.7v2.71h2.7Zm2.85,2.85h-2.7V105h2.7Z"/><path class="cls-3" d="M111.61,108c.1-.28-.15-2.85,0-2.85h3.13a15.78,15.78,0,0,1,0,2.07c0,.29,0,.52.14.78Z"/><rect class="cls-4" x="14.24" y="17.09" width="82.7" height="72.97"/><path class="cls-3" d="M111.46,5.27V8.12h-2.85v2.7h-2.7V14.1H102.7a2.08,2.08,0,0,0-.21.21V17H99.78V14.1H14.24V11a1.15,1.15,0,0,0-.22-.22H11.39V8.12H8.11V5.27Z"/><path class="cls-3" d="M8,8.12V11h3.27V92.91h2.85v6H11.46a1.15,1.15,0,0,0-.22.22v2.63H8V105H5.26V8.12Z"/><rect class="cls-3" x="102.63" y="17.09" width="3.28" height="81.8"/><rect class="cls-3" x="17.08" y="96.19" width="3.13" height="2.71"/><rect class="cls-3" x="34.89" y="96.19" width="3.13" height="2.71"/><rect class="cls-3" x="84.82" y="96.19" width="3.13" height="2.71"/><rect class="cls-3" x="108.76" y="101.88" width="2.71" height="3.13"/><rect class="cls-3" x="23.07" y="96.19" width="2.85" height="2.71"/><rect class="cls-3" x="97.07" y="90.2" width="2.71" height="2.71"/><rect class="cls-3" x="29.19" y="96.19" width="2.71" height="2.71"/><rect class="cls-3" x="41.02" y="96.19" width="2.71" height="2.71"/><rect class="cls-3" x="47.42" y="96.19" width="2.71" height="2.71"/><rect class="cls-3" x="53.82" y="96.19" width="2.71" height="2.71"/><rect class="cls-3" x="60.22" y="96.19" width="2.71" height="2.71"/><rect class="cls-3" x="66.62" y="96.19" width="2.71" height="2.71"/><rect class="cls-3" x="73.02" y="96.19" width="2.71" height="2.71"/><rect class="cls-3" x="79.12" y="96.19" width="2.71" height="2.71"/><rect class="cls-3" x="90.95" y="96.19" width="2.71" height="2.71"/><rect class="cls-3" x="97.07" y="96.19" width="2.71" height="2.71"/><rect class="cls-3" x="105.91" y="99.03" width="2.71" height="2.71"/><g class="cls-5"><g class="cls-6"><rect class="cls-7" x="93.45" y="39.47" width="1.76" height="2.06"/><rect class="cls-7" x="66.18" y="37.71" width="3.53" height="1.76"/><rect class="cls-7" x="64.42" y="39.47" width="1.76" height="2.06"/><rect class="cls-7" x="69.7" y="39.47" width="1.76" height="2.06"/><rect class="cls-7" x="87.87" y="35.95" width="3.82" height="1.76"/><rect class="cls-7" x="91.69" y="33.89" width="1.76" height="2.06"/><rect class="cls-7" x="93.45" y="31.83" width="1.76" height="2.06"/><rect class="cls-7" x="73.35" y="39.77" width="3.82" height="1.76"/><rect class="cls-7" x="80.7" y="33.89" width="3.53" height="1.76"/><rect class="cls-7" x="77.17" y="37.71" width="1.76" height="2.06"/><rect class="cls-7" x="78.93" y="35.65" width="1.76" height="2.06"/><rect class="cls-7" x="85.98" y="37.71" width="1.76" height="2.06"/><rect class="cls-7" x="84.22" y="35.65" width="1.76" height="2.06"/><rect class="cls-7" x="66.18" y="30.07" width="3.53" height="1.76"/><rect class="cls-7" x="64.42" y="31.83" width="1.76" height="2.06"/><rect class="cls-7" x="71.47" y="33.89" width="1.76" height="2.06"/><rect class="cls-7" x="69.7" y="31.83" width="1.76" height="2.06"/><rect class="cls-7" x="87.87" y="28.31" width="3.82" height="1.76"/><rect class="cls-7" x="91.69" y="26.25" width="1.76" height="2.06"/><rect class="cls-7" x="93.45" y="24.19" width="1.76" height="2.06"/><rect class="cls-7" x="73.35" y="32.13" width="3.82" height="1.76"/><rect class="cls-7" x="80.7" y="26.25" width="3.53" height="1.76"/><rect class="cls-7" x="77.17" y="30.07" width="1.76" height="2.06"/><rect class="cls-7" x="78.93" y="28.01" width="1.76" height="2.06"/><rect class="cls-7" x="85.98" y="30.07" width="1.76" height="2.06"/><rect class="cls-7" x="84.22" y="28.01" width="1.76" height="2.06"/><rect class="cls-7" x="66.18" y="22.43" width="3.53" height="1.76"/><rect class="cls-7" x="64.42" y="24.19" width="1.76" height="2.06"/><rect class="cls-7" x="71.47" y="26.25" width="1.76" height="2.06"/><rect class="cls-7" x="69.7" y="24.19" width="1.76" height="2.06"/><rect class="cls-7" x="87.87" y="20.67" width="3.82" height="1.76"/><rect class="cls-7" x="91.69" y="18.61" width="1.76" height="2.06"/><rect class="cls-7" x="73.35" y="24.49" width="3.82" height="1.76"/><rect class="cls-7" x="80.7" y="18.61" width="3.53" height="1.76"/><rect class="cls-7" x="77.17" y="22.43" width="1.76" height="2.06"/><rect class="cls-7" x="78.93" y="20.38" width="1.76" height="2.06"/><rect class="cls-7" x="85.98" y="22.43" width="1.76" height="2.06"/><rect class="cls-7" x="84.22" y="20.38" width="1.76" height="2.06"/><rect class="cls-7" x="71.47" y="18.61" width="1.76" height="2.06"/></g><g class="cls-8"><rect class="cls-7" x="93.45" y="62.39" width="1.76" height="2.06"/><rect class="cls-7" x="66.18" y="60.63" width="3.53" height="1.76"/><rect class="cls-7" x="64.42" y="62.39" width="1.76" height="2.06"/><rect class="cls-7" x="69.7" y="62.39" width="1.76" height="2.06"/><rect class="cls-7" x="87.87" y="58.86" width="3.82" height="1.76"/><rect class="cls-7" x="91.69" y="56.81" width="1.76" height="2.06"/><rect class="cls-7" x="93.45" y="54.75" width="1.76" height="2.06"/><rect class="cls-7" x="73.35" y="62.68" width="3.82" height="1.76"/><rect class="cls-7" x="80.7" y="56.81" width="3.53" height="1.76"/><rect class="cls-7" x="77.17" y="60.63" width="1.76" height="2.06"/><rect class="cls-7" x="78.93" y="58.57" width="1.76" height="2.06"/><rect class="cls-7" x="85.98" y="60.63" width="1.76" height="2.06"/><rect class="cls-7" x="84.22" y="58.57" width="1.76" height="2.06"/><rect class="cls-7" x="66.18" y="52.99" width="3.53" height="1.76"/><rect class="cls-7" x="64.42" y="54.75" width="1.76" height="2.06"/><rect class="cls-7" x="71.47" y="56.81" width="1.76" height="2.06"/><rect class="cls-7" x="69.7" y="54.75" width="1.76" height="2.06"/><rect class="cls-7" x="87.87" y="51.23" width="3.82" height="1.76"/><rect class="cls-7" x="91.69" y="49.17" width="1.76" height="2.06"/><rect class="cls-7" x="93.45" y="47.11" width="1.76" height="2.06"/><rect class="cls-7" x="73.35" y="55.05" width="3.82" height="1.76"/><rect class="cls-7" x="80.7" y="49.17" width="3.53" height="1.76"/><rect class="cls-7" x="77.17" y="52.99" width="1.76" height="2.06"/><rect class="cls-7" x="78.93" y="50.93" width="1.76" height="2.06"/><rect class="cls-7" x="85.98" y="52.99" width="1.76" height="2.06"/><rect class="cls-7" x="84.22" y="50.93" width="1.76" height="2.06"/><rect class="cls-7" x="66.18" y="45.35" width="3.53" height="1.76"/><rect class="cls-7" x="64.42" y="47.11" width="1.76" height="2.06"/><rect class="cls-7" x="71.47" y="49.17" width="1.76" height="2.06"/><rect class="cls-7" x="69.7" y="47.11" width="1.76" height="2.06"/><rect class="cls-7" x="87.87" y="43.59" width="3.82" height="1.76"/><rect class="cls-7" x="91.69" y="41.53" width="1.76" height="2.06"/><rect class="cls-7" x="73.35" y="47.41" width="3.82" height="1.76"/><rect class="cls-7" x="80.7" y="41.53" width="3.53" height="1.76"/><rect class="cls-7" x="77.17" y="45.35" width="1.76" height="2.06"/><rect class="cls-7" x="78.93" y="43.29" width="1.76" height="2.06"/><rect class="cls-7" x="85.98" y="45.35" width="1.76" height="2.06"/><rect class="cls-7" x="84.22" y="43.29" width="1.76" height="2.06"/><rect class="cls-7" x="71.47" y="41.53" width="1.76" height="2.06"/></g><g class="cls-9"><rect class="cls-7" x="93.45" y="85.31" width="1.76" height="2.06"/><rect class="cls-7" x="66.18" y="83.55" width="3.53" height="1.76"/><rect class="cls-7" x="64.42" y="85.31" width="1.76" height="2.06"/><rect class="cls-7" x="69.7" y="85.31" width="1.76" height="2.06"/><rect class="cls-7" x="87.87" y="81.78" width="3.82" height="1.76"/><rect class="cls-7" x="91.69" y="79.73" width="1.76" height="2.06"/><rect class="cls-7" x="93.45" y="77.67" width="1.76" height="2.06"/><rect class="cls-7" x="73.35" y="85.6" width="3.82" height="1.76"/><rect class="cls-7" x="80.7" y="79.73" width="3.53" height="1.76"/><rect class="cls-7" x="77.17" y="83.55" width="1.76" height="2.06"/><rect class="cls-7" x="78.93" y="81.49" width="1.76" height="2.06"/><rect class="cls-7" x="85.98" y="83.55" width="1.76" height="2.06"/><rect class="cls-7" x="84.22" y="81.49" width="1.76" height="2.06"/><rect class="cls-7" x="66.18" y="75.91" width="3.53" height="1.76"/><rect class="cls-7" x="64.42" y="77.67" width="1.76" height="2.06"/><rect class="cls-7" x="71.47" y="79.73" width="1.76" height="2.06"/><rect class="cls-7" x="69.7" y="77.67" width="1.76" height="2.06"/><rect class="cls-7" x="87.87" y="74.14" width="3.82" height="1.76"/><rect class="cls-7" x="91.69" y="72.09" width="1.76" height="2.06"/><rect class="cls-7" x="93.45" y="70.03" width="1.76" height="2.06"/><rect class="cls-7" x="73.35" y="77.96" width="3.82" height="1.76"/><rect class="cls-7" x="80.7" y="72.09" width="3.53" height="1.76"/><rect class="cls-7" x="77.17" y="75.91" width="1.76" height="2.06"/><rect class="cls-7" x="78.93" y="73.85" width="1.76" height="2.06"/><rect class="cls-7" x="85.98" y="75.91" width="1.76" height="2.06"/><rect class="cls-7" x="84.22" y="73.85" width="1.76" height="2.06"/><rect class="cls-7" x="66.18" y="68.27" width="3.53" height="1.76"/><rect class="cls-7" x="64.42" y="70.03" width="1.76" height="2.06"/><rect class="cls-7" x="71.47" y="72.09" width="1.76" height="2.06"/><rect class="cls-7" x="69.7" y="70.03" width="1.76" height="2.06"/><rect class="cls-7" x="87.87" y="66.5" width="3.82" height="1.76"/><rect class="cls-7" x="91.69" y="64.45" width="1.76" height="2.06"/><rect class="cls-7" x="73.35" y="70.32" width="3.82" height="1.76"/><rect class="cls-7" x="80.7" y="64.45" width="3.53" height="1.76"/><rect class="cls-7" x="77.17" y="68.27" width="1.76" height="2.06"/><rect class="cls-7" x="78.93" y="66.21" width="1.76" height="2.06"/><rect class="cls-7" x="85.98" y="68.27" width="1.76" height="2.06"/><rect class="cls-7" x="84.22" y="66.21" width="1.76" height="2.06"/><rect class="cls-7" x="71.47" y="64.45" width="1.76" height="2.06"/></g><g class="cls-10"><rect class="cls-7" x="64.42" y="39.47" width="1.76" height="2.06"/><rect class="cls-7" x="37.15" y="37.71" width="3.53" height="1.76"/><rect class="cls-7" x="35.38" y="39.47" width="1.76" height="2.06"/><rect class="cls-7" x="40.67" y="39.47" width="1.76" height="2.06"/><rect class="cls-7" x="58.83" y="35.95" width="3.82" height="1.76"/><rect class="cls-7" x="62.65" y="33.89" width="1.76" height="2.06"/><rect class="cls-7" x="64.42" y="31.83" width="1.76" height="2.06"/><rect class="cls-7" x="44.32" y="39.77" width="3.82" height="1.76"/><rect class="cls-7" x="51.66" y="33.89" width="3.53" height="1.76"/><rect class="cls-7" x="48.14" y="37.71" width="1.76" height="2.06"/><rect class="cls-7" x="49.9" y="35.65" width="1.76" height="2.06"/><rect class="cls-7" x="56.95" y="37.71" width="1.76" height="2.06"/><rect class="cls-7" x="55.19" y="35.65" width="1.76" height="2.06"/><rect class="cls-7" x="37.15" y="30.07" width="3.53" height="1.76"/><rect class="cls-7" x="35.38" y="31.83" width="1.76" height="2.06"/><rect class="cls-7" x="42.44" y="33.89" width="1.76" height="2.06"/><rect class="cls-7" x="40.67" y="31.83" width="1.76" height="2.06"/><rect class="cls-7" x="58.83" y="28.31" width="3.82" height="1.76"/><rect class="cls-7" x="62.65" y="26.25" width="1.76" height="2.06"/><rect class="cls-7" x="64.42" y="24.19" width="1.76" height="2.06"/><rect class="cls-7" x="44.32" y="32.13" width="3.82" height="1.76"/><rect class="cls-7" x="51.66" y="26.25" width="3.53" height="1.76"/><rect class="cls-7" x="48.14" y="30.07" width="1.76" height="2.06"/><rect class="cls-7" x="49.9" y="28.01" width="1.76" height="2.06"/><rect class="cls-7" x="56.95" y="30.07" width="1.76" height="2.06"/><rect class="cls-7" x="55.19" y="28.01" width="1.76" height="2.06"/><rect class="cls-7" x="37.15" y="22.43" width="3.53" height="1.76"/><rect class="cls-7" x="35.38" y="24.19" width="1.76" height="2.06"/><rect class="cls-7" x="42.44" y="26.25" width="1.76" height="2.06"/><rect class="cls-7" x="40.67" y="24.19" width="1.76" height="2.06"/><rect class="cls-7" x="58.83" y="20.67" width="3.82" height="1.76"/><rect class="cls-7" x="62.65" y="18.61" width="1.76" height="2.06"/><rect class="cls-7" x="44.32" y="24.49" width="3.82" height="1.76"/><rect class="cls-7" x="51.66" y="18.61" width="3.53" height="1.76"/><rect class="cls-7" x="48.14" y="22.43" width="1.76" height="2.06"/><rect class="cls-7" x="49.9" y="20.38" width="1.76" height="2.06"/><rect class="cls-7" x="56.95" y="22.43" width="1.76" height="2.06"/><rect class="cls-7" x="55.19" y="20.38" width="1.76" height="2.06"/><rect class="cls-7" x="42.44" y="18.61" width="1.76" height="2.06"/></g><g class="cls-11"><rect class="cls-7" x="64.42" y="62.39" width="1.76" height="2.06"/><rect class="cls-7" x="37.15" y="60.63" width="3.53" height="1.76"/><rect class="cls-7" x="35.38" y="62.39" width="1.76" height="2.06"/><rect class="cls-7" x="40.67" y="62.39" width="1.76" height="2.06"/><rect class="cls-7" x="58.83" y="58.86" width="3.82" height="1.76"/><rect class="cls-7" x="62.65" y="56.81" width="1.76" height="2.06"/><rect class="cls-7" x="64.42" y="54.75" width="1.76" height="2.06"/><rect class="cls-7" x="44.32" y="62.68" width="3.82" height="1.76"/><rect class="cls-7" x="51.66" y="56.81" width="3.53" height="1.76"/><rect class="cls-7" x="48.14" y="60.63" width="1.76" height="2.06"/><rect class="cls-7" x="49.9" y="58.57" width="1.76" height="2.06"/><rect class="cls-7" x="56.95" y="60.63" width="1.76" height="2.06"/><rect class="cls-7" x="55.19" y="58.57" width="1.76" height="2.06"/><rect class="cls-7" x="37.15" y="52.99" width="3.53" height="1.76"/><rect class="cls-7" x="35.38" y="54.75" width="1.76" height="2.06"/><rect class="cls-7" x="42.44" y="56.81" width="1.76" height="2.06"/><rect class="cls-7" x="40.67" y="54.75" width="1.76" height="2.06"/><rect class="cls-7" x="58.83" y="51.23" width="3.82" height="1.76"/><rect class="cls-7" x="62.65" y="49.17" width="1.76" height="2.06"/><rect class="cls-7" x="64.42" y="47.11" width="1.76" height="2.06"/><rect class="cls-7" x="44.32" y="55.05" width="3.82" height="1.76"/><rect class="cls-7" x="51.66" y="49.17" width="3.53" height="1.76"/><rect class="cls-7" x="48.14" y="52.99" width="1.76" height="2.06"/><rect class="cls-7" x="49.9" y="50.93" width="1.76" height="2.06"/><rect class="cls-7" x="56.95" y="52.99" width="1.76" height="2.06"/><rect class="cls-7" x="55.19" y="50.93" width="1.76" height="2.06"/><rect class="cls-7" x="37.15" y="45.35" width="3.53" height="1.76"/><rect class="cls-7" x="35.38" y="47.11" width="1.76" height="2.06"/><rect class="cls-7" x="42.44" y="49.17" width="1.76" height="2.06"/><rect class="cls-7" x="40.67" y="47.11" width="1.76" height="2.06"/><rect class="cls-7" x="58.83" y="43.59" width="3.82" height="1.76"/><rect class="cls-7" x="62.65" y="41.53" width="1.76" height="2.06"/><rect class="cls-7" x="44.32" y="47.41" width="3.82" height="1.76"/><rect class="cls-7" x="51.66" y="41.53" width="3.53" height="1.76"/><rect class="cls-7" x="48.14" y="45.35" width="1.76" height="2.06"/><rect class="cls-7" x="49.9" y="43.29" width="1.76" height="2.06"/><rect class="cls-7" x="56.95" y="45.35" width="1.76" height="2.06"/><rect class="cls-7" x="55.19" y="43.29" width="1.76" height="2.06"/><rect class="cls-7" x="42.44" y="41.53" width="1.76" height="2.06"/></g><g class="cls-12"><rect class="cls-7" x="64.42" y="85.31" width="1.76" height="2.06"/><rect class="cls-7" x="37.15" y="83.55" width="3.53" height="1.76"/><rect class="cls-7" x="35.38" y="85.31" width="1.76" height="2.06"/><rect class="cls-7" x="40.67" y="85.31" width="1.76" height="2.06"/><rect class="cls-7" x="58.83" y="81.78" width="3.82" height="1.76"/><rect class="cls-7" x="62.65" y="79.73" width="1.76" height="2.06"/><rect class="cls-7" x="64.42" y="77.67" width="1.76" height="2.06"/><rect class="cls-7" x="44.32" y="85.6" width="3.82" height="1.76"/><rect class="cls-7" x="51.66" y="79.73" width="3.53" height="1.76"/><rect class="cls-7" x="48.14" y="83.55" width="1.76" height="2.06"/><rect class="cls-7" x="49.9" y="81.49" width="1.76" height="2.06"/><rect class="cls-7" x="56.95" y="83.55" width="1.76" height="2.06"/><rect class="cls-7" x="55.19" y="81.49" width="1.76" height="2.06"/><rect class="cls-7" x="37.15" y="75.91" width="3.53" height="1.76"/><rect class="cls-7" x="35.38" y="77.67" width="1.76" height="2.06"/><rect class="cls-7" x="42.44" y="79.73" width="1.76" height="2.06"/><rect class="cls-7" x="40.67" y="77.67" width="1.76" height="2.06"/><rect class="cls-7" x="58.83" y="74.14" width="3.82" height="1.76"/><rect class="cls-7" x="62.65" y="72.09" width="1.76" height="2.06"/><rect class="cls-7" x="64.42" y="70.03" width="1.76" height="2.06"/><rect class="cls-7" x="44.32" y="77.96" width="3.82" height="1.76"/><rect class="cls-7" x="51.66" y="72.09" width="3.53" height="1.76"/><rect class="cls-7" x="48.14" y="75.91" width="1.76" height="2.06"/><rect class="cls-7" x="49.9" y="73.85" width="1.76" height="2.06"/><rect class="cls-7" x="56.95" y="75.91" width="1.76" height="2.06"/><rect class="cls-7" x="55.19" y="73.85" width="1.76" height="2.06"/><rect class="cls-7" x="37.15" y="68.27" width="3.53" height="1.76"/><rect class="cls-7" x="35.38" y="70.03" width="1.76" height="2.06"/><rect class="cls-7" x="42.44" y="72.09" width="1.76" height="2.06"/><rect class="cls-7" x="40.67" y="70.03" width="1.76" height="2.06"/><rect class="cls-7" x="58.83" y="66.5" width="3.82" height="1.76"/><rect class="cls-7" x="62.65" y="64.45" width="1.76" height="2.06"/><rect class="cls-7" x="44.32" y="70.32" width="3.82" height="1.76"/><rect class="cls-7" x="51.66" y="64.45" width="3.53" height="1.76"/><rect class="cls-7" x="48.14" y="68.27" width="1.76" height="2.06"/><rect class="cls-7" x="49.9" y="66.21" width="1.76" height="2.06"/><rect class="cls-7" x="56.95" y="68.27" width="1.76" height="2.06"/><rect class="cls-7" x="55.19" y="66.21" width="1.76" height="2.06"/><rect class="cls-7" x="42.44" y="64.45" width="1.76" height="2.06"/></g><g class="cls-13"><rect class="cls-7" x="35.38" y="39.47" width="1.76" height="2.06"/><rect class="cls-7" x="8.11" y="37.71" width="3.53" height="1.76"/><rect class="cls-7" x="6.35" y="39.47" width="1.76" height="2.06"/><rect class="cls-7" x="11.64" y="39.47" width="1.76" height="2.06"/><rect class="cls-7" x="29.8" y="35.95" width="3.82" height="1.76"/><rect class="cls-7" x="33.62" y="33.89" width="1.76" height="2.06"/><rect class="cls-7" x="35.38" y="31.83" width="1.76" height="2.06"/><rect class="cls-7" x="15.29" y="39.77" width="3.82" height="1.76"/><rect class="cls-7" x="22.63" y="33.89" width="3.53" height="1.76"/><rect class="cls-7" x="19.1" y="37.71" width="1.76" height="2.06"/><rect class="cls-7" x="20.87" y="35.65" width="1.76" height="2.06"/><rect class="cls-7" x="27.92" y="37.71" width="1.76" height="2.06"/><rect class="cls-7" x="26.16" y="35.65" width="1.76" height="2.06"/><rect class="cls-7" x="8.11" y="30.07" width="3.53" height="1.76"/><rect class="cls-7" x="6.35" y="31.83" width="1.76" height="2.06"/><rect class="cls-7" x="13.4" y="33.89" width="1.76" height="2.06"/><rect class="cls-7" x="11.64" y="31.83" width="1.76" height="2.06"/><rect class="cls-7" x="29.8" y="28.31" width="3.82" height="1.76"/><rect class="cls-7" x="33.62" y="26.25" width="1.76" height="2.06"/><rect class="cls-7" x="35.38" y="24.19" width="1.76" height="2.06"/><rect class="cls-7" x="15.29" y="32.13" width="3.82" height="1.76"/><rect class="cls-7" x="22.63" y="26.25" width="3.53" height="1.76"/><rect class="cls-7" x="19.1" y="30.07" width="1.76" height="2.06"/><rect class="cls-7" x="20.87" y="28.01" width="1.76" height="2.06"/><rect class="cls-7" x="27.92" y="30.07" width="1.76" height="2.06"/><rect class="cls-7" x="26.16" y="28.01" width="1.76" height="2.06"/><rect class="cls-7" x="8.11" y="22.43" width="3.53" height="1.76"/><rect class="cls-7" x="6.35" y="24.19" width="1.76" height="2.06"/><rect class="cls-7" x="13.4" y="26.25" width="1.76" height="2.06"/><rect class="cls-7" x="11.64" y="24.19" width="1.76" height="2.06"/><rect class="cls-7" x="29.8" y="20.67" width="3.82" height="1.76"/><rect class="cls-7" x="33.62" y="18.61" width="1.76" height="2.06"/><rect class="cls-7" x="15.29" y="24.49" width="3.82" height="1.76"/><rect class="cls-7" x="22.63" y="18.61" width="3.53" height="1.76"/><rect class="cls-7" x="19.1" y="22.43" width="1.76" height="2.06"/><rect class="cls-7" x="20.87" y="20.38" width="1.76" height="2.06"/><rect class="cls-7" x="27.92" y="22.43" width="1.76" height="2.06"/><rect class="cls-7" x="26.16" y="20.38" width="1.76" height="2.06"/><rect class="cls-7" x="13.4" y="18.61" width="1.76" height="2.06"/></g><g class="cls-14"><rect class="cls-7" x="35.38" y="62.39" width="1.76" height="2.06"/><rect class="cls-7" x="8.11" y="60.63" width="3.53" height="1.76"/><rect class="cls-7" x="6.35" y="62.39" width="1.76" height="2.06"/><rect class="cls-7" x="11.64" y="62.39" width="1.76" height="2.06"/><rect class="cls-7" x="29.8" y="58.86" width="3.82" height="1.76"/><rect class="cls-7" x="33.62" y="56.81" width="1.76" height="2.06"/><rect class="cls-7" x="35.38" y="54.75" width="1.76" height="2.06"/><rect class="cls-7" x="15.29" y="62.68" width="3.82" height="1.76"/><rect class="cls-7" x="22.63" y="56.81" width="3.53" height="1.76"/><rect class="cls-7" x="19.1" y="60.63" width="1.76" height="2.06"/><rect class="cls-7" x="20.87" y="58.57" width="1.76" height="2.06"/><rect class="cls-7" x="27.92" y="60.63" width="1.76" height="2.06"/><rect class="cls-7" x="26.16" y="58.57" width="1.76" height="2.06"/><rect class="cls-7" x="8.11" y="52.99" width="3.53" height="1.76"/><rect class="cls-7" x="6.35" y="54.75" width="1.76" height="2.06"/><rect class="cls-7" x="13.4" y="56.81" width="1.76" height="2.06"/><rect class="cls-7" x="11.64" y="54.75" width="1.76" height="2.06"/><rect class="cls-7" x="29.8" y="51.23" width="3.82" height="1.76"/><rect class="cls-7" x="33.62" y="49.17" width="1.76" height="2.06"/><rect class="cls-7" x="35.38" y="47.11" width="1.76" height="2.06"/><rect class="cls-7" x="15.29" y="55.05" width="3.82" height="1.76"/><rect class="cls-7" x="22.63" y="49.17" width="3.53" height="1.76"/><rect class="cls-7" x="19.1" y="52.99" width="1.76" height="2.06"/><rect class="cls-7" x="20.87" y="50.93" width="1.76" height="2.06"/><rect class="cls-7" x="27.92" y="52.99" width="1.76" height="2.06"/><rect class="cls-7" x="26.16" y="50.93" width="1.76" height="2.06"/><rect class="cls-7" x="8.11" y="45.35" width="3.53" height="1.76"/><rect class="cls-7" x="6.35" y="47.11" width="1.76" height="2.06"/><rect class="cls-7" x="13.4" y="49.17" width="1.76" height="2.06"/><rect class="cls-7" x="11.64" y="47.11" width="1.76" height="2.06"/><rect class="cls-7" x="29.8" y="43.59" width="3.82" height="1.76"/><rect class="cls-7" x="33.62" y="41.53" width="1.76" height="2.06"/><rect class="cls-7" x="15.29" y="47.41" width="3.82" height="1.76"/><rect class="cls-7" x="22.63" y="41.53" width="3.53" height="1.76"/><rect class="cls-7" x="19.1" y="45.35" width="1.76" height="2.06"/><rect class="cls-7" x="20.87" y="43.29" width="1.76" height="2.06"/><rect class="cls-7" x="27.92" y="45.35" width="1.76" height="2.06"/><rect class="cls-7" x="26.16" y="43.29" width="1.76" height="2.06"/><rect class="cls-7" x="13.4" y="41.53" width="1.76" height="2.06"/></g><g class="cls-15"><rect class="cls-7" x="35.38" y="85.31" width="1.76" height="2.06"/><rect class="cls-7" x="8.11" y="83.55" width="3.53" height="1.76"/><rect class="cls-7" x="6.35" y="85.31" width="1.76" height="2.06"/><rect class="cls-7" x="11.64" y="85.31" width="1.76" height="2.06"/><rect class="cls-7" x="29.8" y="81.78" width="3.82" height="1.76"/><rect class="cls-7" x="33.62" y="79.73" width="1.76" height="2.06"/><rect class="cls-7" x="35.38" y="77.67" width="1.76" height="2.06"/><rect class="cls-7" x="15.29" y="85.6" width="3.82" height="1.76"/><rect class="cls-7" x="22.63" y="79.73" width="3.53" height="1.76"/><rect class="cls-7" x="19.1" y="83.55" width="1.76" height="2.06"/><rect class="cls-7" x="20.87" y="81.49" width="1.76" height="2.06"/><rect class="cls-7" x="27.92" y="83.55" width="1.76" height="2.06"/><rect class="cls-7" x="26.16" y="81.49" width="1.76" height="2.06"/><rect class="cls-7" x="8.11" y="75.91" width="3.53" height="1.76"/><rect class="cls-7" x="6.35" y="77.67" width="1.76" height="2.06"/><rect class="cls-7" x="13.4" y="79.73" width="1.76" height="2.06"/><rect class="cls-7" x="11.64" y="77.67" width="1.76" height="2.06"/><rect class="cls-7" x="29.8" y="74.14" width="3.82" height="1.76"/><rect class="cls-7" x="33.62" y="72.09" width="1.76" height="2.06"/><rect class="cls-7" x="35.38" y="70.03" width="1.76" height="2.06"/><rect class="cls-7" x="15.29" y="77.96" width="3.82" height="1.76"/><rect class="cls-7" x="22.63" y="72.09" width="3.53" height="1.76"/><rect class="cls-7" x="19.1" y="75.91" width="1.76" height="2.06"/><rect class="cls-7" x="20.87" y="73.85" width="1.76" height="2.06"/><rect class="cls-7" x="27.92" y="75.91" width="1.76" height="2.06"/><rect class="cls-7" x="26.16" y="73.85" width="1.76" height="2.06"/><rect class="cls-7" x="8.11" y="68.27" width="3.53" height="1.76"/><rect class="cls-7" x="6.35" y="70.03" width="1.76" height="2.06"/><rect class="cls-7" x="13.4" y="72.09" width="1.76" height="2.06"/><rect class="cls-7" x="11.64" y="70.03" width="1.76" height="2.06"/><rect class="cls-7" x="29.8" y="66.5" width="3.82" height="1.76"/><rect class="cls-7" x="33.62" y="64.45" width="1.76" height="2.06"/><rect class="cls-7" x="15.29" y="70.32" width="3.82" height="1.76"/><rect class="cls-7" x="22.63" y="64.45" width="3.53" height="1.76"/><rect class="cls-7" x="19.1" y="68.27" width="1.76" height="2.06"/><rect class="cls-7" x="20.87" y="66.21" width="1.76" height="2.06"/><rect class="cls-7" x="27.92" y="68.27" width="1.76" height="2.06"/><rect class="cls-7" x="26.16" y="66.21" width="1.76" height="2.06"/><rect class="cls-7" x="13.4" y="64.45" width="1.76" height="2.06"/></g></g><path class="cls-7" d="M78,79.43H33.12a3.19,3.19,0,0,1-3.19-3.19V30.91a3.19,3.19,0,0,1,3.19-3.19H78a3.2,3.2,0,0,1,3.2,3.19V76.24A3.2,3.2,0,0,1,78,79.43ZM33.12,28.5a2.41,2.41,0,0,0-2.41,2.41V76.24a2.42,2.42,0,0,0,2.41,2.42H78a2.42,2.42,0,0,0,2.42-2.42V30.91A2.41,2.41,0,0,0,78,28.5Z"/><path class="cls-2" d="M46.46,59.07h6.15c0,3.67,1.22,5.64,4.56,5.64,2.77,0,3.85-1.41,3.85-3.8,0-3.11-1.64-4.28-4.6-4.28H55.1v-5.5h1.13c2.3,0,4-1.22,4-4,0-2.07-1.08-3.24-3.19-3.24S53.37,45,53.37,48H47.21c0-6.11,3.76-10.57,10-10.57,5.26,0,9.58,3.15,9.58,8.79A7.94,7.94,0,0,1,63,53.34v.1c3.2,1.26,4.51,4,4.51,7.79,0,6.49-4,9.92-10.19,9.92C50.41,71.15,46.46,66.78,46.46,59.07Z"/></g></svg>