<svg xmlns="http://www.w3.org/2000/svg" viewBox="0 0 340 180"><defs><style>.cls-1{fill:#020c2d;}.cls-2{fill:#fff;}.cls-3{fill:#6dfcff;}.cls-4{fill:#ef4444;}</style></defs><g id="LINKS"><path class="cls-1" d="M9.39,8.49H25.12c6.84,0,10.94,17.78,10.94,52s-4.1,52-10.94,52H17.59v59.05H9.39Zm13.9,70.45c2.74,0,4.56-4.79,4.56-18.47S26,42,23.29,42h-5.7V78.94Z"/><path class="cls-1" d="M42.44,8.49h8.21V72.33H61.82V8.49H70v163H61.82V105.84H50.65v65.67H42.44Z"/><path class="cls-1" d="M87.82,8.49H96l12.54,163H99.67l-2-34H86.45l-2.28,34H75.5Zm8,97.81L91.92,46.11,88.27,106.3Z"/><path class="cls-1" d="M111.76,116.1h8.43c0,16.88,2.74,23.26,6.61,23.26,3,0,4.56-5,4.56-11.86,0-13.9-3.19-17.55-7.75-24.39-5.7-8.66-10.71-19.61-10.71-48.79,0-33.52,5.47-46.74,12.54-46.74,7.52,0,13.68,18.92,13.9,50.39h-8.43c-.23-10.95-2.28-17.33-5.47-17.33-2.51,0-4.11,3.19-4.11,10.71,0,10.95,1.83,14.6,5.93,20.75,6.16,9.12,12.54,17.79,12.54,51.53,0,29.64-4.79,48.79-13,48.79C118.37,172.42,111.76,151.67,111.76,116.1Z"/><path class="cls-1" d="M146.41,8.49h24.85V42H154.62V71H169v33.52H154.62V138h16.87v33.52H146.41Z"/><path class="cls-1" d="M324.63,151.37H215.43v-106H330.61v106h-2.7c-.2-.27-.14-.49-.15-.79a12.8,12.8,0,0,0,0-2.06h-3.13C324.49,148.52,324.74,151.09,324.63,151.37Zm-.14-102.75H221.13v2.85h3.28v2.71h2.64l.21.21v3.07h85.55v2.85h2.7V57.67a1.1,1.1,0,0,1,.22-.21h3.2V54.18h2.71V51.47h2.85ZM221,51.47h-2.71v96.9H221V145.1h3.28v-2.64a2.08,2.08,0,0,1,.21-.21h2.64v-6h-2.85V54.32H221Zm89,9h-82.7v73H310Zm9,0h-3.28v81.8h3.28Zm-6.12,73.11H310.1v2.7h2.71Zm-79.57,6h-3.13v2.71h3.13Zm5.7,0h-2.85v2.71h2.85Zm6,0h-2.71v2.71h2.71Zm6.12,0h-3.13v2.71h3.13Zm5.7,0H254v2.71h2.71Zm38.1,0h-2.7v2.71h2.7Zm6.13,0h-3.13v2.71H301Zm5.7,0H304v2.71h2.71Zm6.13,0H310.1v2.71h2.71Zm8.83,2.85h-2.71v2.71h2.71Zm2.85,2.85h-2.71v3.13h2.71Z"/><path class="cls-2" d="M324.63,151.37c.11-.28-.14-2.85,0-2.85h3.13a12.8,12.8,0,0,1,0,2.06c0,.3-.05.52.15.79Z"/><rect class="cls-2" x="227.26" y="60.45" width="82.7" height="72.97"/><path class="cls-3" d="M324.49,48.62v2.85h-2.85v2.71h-2.71v3.28h-3.2a1.1,1.1,0,0,0-.22.21v2.64h-2.7V57.46H227.26V54.39l-.21-.21h-2.64V51.47h-3.28V48.62Z"/><path class="cls-3" d="M221,51.47v2.85h3.28v81.94h2.85v6h-2.64a2.08,2.08,0,0,0-.21.21v2.64H221v3.27h-2.71V51.47Z"/><rect class="cls-3" x="315.65" y="60.45" width="3.28" height="81.8"/><rect class="cls-2" x="230.11" y="139.54" width="3.13" height="2.71"/><rect class="cls-2" x="247.92" y="139.54" width="3.13" height="2.71"/><rect class="cls-2" x="297.85" y="139.54" width="3.13" height="2.71"/><rect class="cls-2" x="321.78" y="145.24" width="2.71" height="3.13"/><rect class="cls-2" x="236.09" y="139.54" width="2.85" height="2.71"/><rect class="cls-2" x="310.1" y="133.56" width="2.71" height="2.71"/><rect class="cls-2" x="242.22" y="139.54" width="2.71" height="2.71"/><rect class="cls-2" x="254.04" y="139.54" width="2.71" height="2.71"/><rect class="cls-2" x="260.44" y="139.54" width="2.71" height="2.71"/><rect class="cls-2" x="266.84" y="139.54" width="2.71" height="2.71"/><rect class="cls-2" x="273.24" y="139.54" width="2.71" height="2.71"/><rect class="cls-2" x="279.64" y="139.54" width="2.71" height="2.71"/><rect class="cls-2" x="286.04" y="139.54" width="2.71" height="2.71"/><rect class="cls-2" x="292.15" y="139.54" width="2.71" height="2.71"/><rect class="cls-2" x="303.97" y="139.54" width="2.71" height="2.71"/><rect class="cls-2" x="310.1" y="139.54" width="2.71" height="2.71"/><rect class="cls-2" x="318.93" y="142.39" width="2.71" height="2.71"/><path class="cls-4" d="M262.76,91.37V85.12c3.67,0,6.63-1.79,6.63-5.78h5.26V111.8h-6.39V90C267.22,91,265.06,91.37,262.76,91.37Z"/></g></svg>