<svg xmlns="http://www.w3.org/2000/svg" viewBox="0 0 340 180"><defs><style>.cls-1{fill:#fff;}.cls-2{fill:#020c2d;}.cls-3{fill:#ef4444;}.cls-4{fill:#e7dfdc;}</style></defs><g id="LINKS"><path class="cls-1" d="M9.4,8.49H25.13c6.84,0,10.94,17.78,10.94,52s-4.1,52-10.94,52H17.6v59.05H9.4ZM23.3,78.94c2.74,0,4.56-4.79,4.56-18.47S26,42,23.3,42H17.6V78.94Z"/><path class="cls-1" d="M42.45,8.49h8.21V72.33H61.83V8.49H70v163H61.83V105.85H50.66v65.66H42.45Z"/><path class="cls-1" d="M87.83,8.49H96l12.54,163H99.68l-2.05-34H86.46l-2.28,34H75.51Zm8,97.81L91.93,46.11,88.28,106.3Z"/><path class="cls-1" d="M111.77,116.11h8.43c0,16.87,2.74,23.25,6.61,23.25,3,0,4.56-5,4.56-11.86,0-13.9-3.19-17.55-7.75-24.39-5.7-8.66-10.71-19.61-10.71-48.79,0-33.52,5.47-46.74,12.54-46.74,7.52,0,13.68,18.92,13.9,50.39h-8.43c-.23-10.95-2.28-17.33-5.47-17.33-2.51,0-4.11,3.19-4.11,10.71,0,10.95,1.83,14.6,5.93,20.75,6.16,9.12,12.54,17.79,12.54,51.53,0,29.64-4.79,48.79-13,48.79C118.38,172.42,111.77,151.67,111.77,116.11Z"/><path class="cls-1" d="M146.42,8.49h24.85V42H154.63V71H169v33.52H154.63V138H171.5v33.52H146.42Z"/><path class="cls-2" d="M324.62,151.24H215.43v-106H330.6v106h-2.7c-.2-.26-.14-.48-.14-.78a15.78,15.78,0,0,0,0-2.07h-3.14C324.48,148.39,324.73,151,324.62,151.24ZM324.48,48.5H221.12v2.85h3.28v2.71H227a1.39,1.39,0,0,1,.21.21v3.06H312.8v2.85h2.7V57.55a1.15,1.15,0,0,1,.22-.22h3.2V54.06h2.71V51.35h2.85ZM221,51.35h-2.71v96.9H221V145h3.28v-2.63a1.47,1.47,0,0,1,.21-.22h2.64v-6h-2.85V54.2H221Zm89,9h-82.7v73H310Zm9,0h-3.27v81.8h3.27Zm-6.12,73.11h-2.71v2.71h2.71Zm-79.57,6H230.1v2.7h3.13Zm5.7,0h-2.85v2.7h2.85Zm6,0h-2.71v2.7h2.71Zm6.12,0h-3.13v2.7H251Zm5.7,0H254v2.7h2.71Zm38.11,0h-2.71v2.7h2.71Zm6.12,0h-3.13v2.7H301Zm5.7,0H304v2.7h2.71Zm6.13,0h-2.71v2.7h2.71Zm8.83,2.85h-2.71V145h2.71Zm2.85,2.85h-2.71v3.13h2.71Z"/><path class="cls-3" d="M324.62,151.24c.11-.28-.14-2.85,0-2.85h3.14a15.78,15.78,0,0,1,0,2.07c0,.3-.06.52.14.78Z"/><rect class="cls-3" x="227.25" y="60.32" width="82.7" height="72.97"/><path class="cls-1" d="M324.48,48.5v2.85h-2.85v2.71h-2.71v3.27h-3.2a1.15,1.15,0,0,0-.22.22v2.63h-2.7V57.33H227.25V54.27a1.39,1.39,0,0,0-.21-.21H224.4V51.35h-3.28V48.5Z"/><path class="cls-1" d="M221,51.35V54.2h3.28v81.94h2.85v6h-2.64a1.47,1.47,0,0,0-.21.22V145H221v3.28h-2.71V51.35Z"/><rect class="cls-3" x="315.65" y="60.32" width="3.28" height="81.8"/><rect class="cls-3" x="230.1" y="139.42" width="3.13" height="2.71"/><rect class="cls-3" x="247.91" y="139.42" width="3.13" height="2.71"/><rect class="cls-3" x="297.84" y="139.42" width="3.13" height="2.71"/><rect class="cls-3" x="321.77" y="145.12" width="2.71" height="3.13"/><rect class="cls-3" x="236.08" y="139.42" width="2.85" height="2.71"/><rect class="cls-3" x="310.09" y="133.43" width="2.71" height="2.71"/><rect class="cls-3" x="242.21" y="139.42" width="2.71" height="2.71"/><rect class="cls-3" x="254.03" y="139.42" width="2.71" height="2.71"/><rect class="cls-3" x="260.43" y="139.42" width="2.71" height="2.71"/><rect class="cls-3" x="266.83" y="139.42" width="2.71" height="2.71"/><rect class="cls-3" x="273.23" y="139.42" width="2.71" height="2.71"/><rect class="cls-3" x="279.63" y="139.42" width="2.71" height="2.71"/><rect class="cls-3" x="286.03" y="139.42" width="2.71" height="2.71"/><rect class="cls-3" x="292.14" y="139.42" width="2.71" height="2.71"/><rect class="cls-3" x="303.96" y="139.42" width="2.71" height="2.71"/><rect class="cls-3" x="310.09" y="139.42" width="2.71" height="2.71"/><rect class="cls-3" x="318.92" y="142.27" width="2.71" height="2.71"/><path class="cls-4" d="M270.41,106.57H258.62V98.72L270.41,81h6.39v19.17h3.81v6.44H276.8v6.86h-6.39Zm0-6.44V89.66l-7.09,10.47Z"/></g></svg>