<svg xmlns="http://www.w3.org/2000/svg" viewBox="0 0 120 110"><defs><style>.cls-1{fill:#fff;}.cls-2{fill:#020c2d;}.cls-3{fill:#6dfcff;}</style></defs><g id="GRAPHICS"><path class="cls-1" d="M111.61,108H2.41V2H117.59V108h-2.71c-.19-.26-.13-.49-.14-.78a15.78,15.78,0,0,0,0-2.07h-3.13C111.46,105.16,111.71,107.73,111.61,108ZM111.46,5.27H8.11V8.12h3.28v2.7H14a1.15,1.15,0,0,1,.22.22V14.1H99.78V17h2.71V14.31a2.08,2.08,0,0,1,.21-.21h3.21V10.82h2.7V8.12h2.85ZM8,8.12H5.26V105H8v-3.28h3.27V99.11a1.15,1.15,0,0,1,.22-.22h2.63v-6H11.24V11H8Zm89,9H14.24v73H96.93Zm9,0h-3.28v81.8h3.28ZM99.78,90.2H97.07v2.71h2.71Zm-79.56,6H17.08v2.7h3.14Zm5.7,0H23.07v2.7h2.85Zm6,0H29.19v2.7H31.9Zm6.13,0H34.89v2.7H38Zm5.7,0H41v2.7h2.71Zm38.1,0H79.12v2.7h2.71Zm6.13,0H84.82v2.7H88Zm5.7,0H91v2.7h2.71Zm6.12,0H97.07v2.7h2.71ZM108.61,99h-2.7v2.71h2.7Zm2.85,2.85h-2.7V105h2.7Z"/><path class="cls-2" d="M111.61,108c.1-.28-.15-2.85,0-2.85h3.13a15.78,15.78,0,0,1,0,2.07c0,.29,0,.52.14.78Z"/><rect class="cls-2" x="14.24" y="17.09" width="82.7" height="72.97"/><path class="cls-3" d="M111.46,5.27V8.12h-2.85v2.7h-2.7V14.1H102.7a2.08,2.08,0,0,0-.21.21V17H99.78V14.1H14.24V11a1.15,1.15,0,0,0-.22-.22H11.39V8.12H8.11V5.27Z"/><path class="cls-3" d="M8,8.12V11h3.27V92.91h2.85v6H11.46a1.15,1.15,0,0,0-.22.22v2.63H8V105H5.26V8.12Z"/><rect class="cls-2" x="102.63" y="17.09" width="3.28" height="81.8"/><rect class="cls-2" x="17.08" y="96.19" width="3.13" height="2.71"/><rect class="cls-2" x="34.89" y="96.19" width="3.13" height="2.71"/><rect class="cls-2" x="84.82" y="96.19" width="3.13" height="2.71"/><rect class="cls-2" x="108.76" y="101.88" width="2.71" height="3.13"/><rect class="cls-2" x="23.07" y="96.19" width="2.85" height="2.71"/><rect class="cls-2" x="97.07" y="90.2" width="2.71" height="2.71"/><rect class="cls-2" x="29.19" y="96.19" width="2.71" height="2.71"/><rect class="cls-2" x="41.02" y="96.19" width="2.71" height="2.71"/><rect class="cls-2" x="47.42" y="96.19" width="2.71" height="2.71"/><rect class="cls-2" x="53.82" y="96.19" width="2.71" height="2.71"/><rect class="cls-2" x="60.22" y="96.19" width="2.71" height="2.71"/><rect class="cls-2" x="66.62" y="96.19" width="2.71" height="2.71"/><rect class="cls-2" x="73.02" y="96.19" width="2.71" height="2.71"/><rect class="cls-2" x="79.12" y="96.19" width="2.71" height="2.71"/><rect class="cls-2" x="90.95" y="96.19" width="2.71" height="2.71"/><rect class="cls-2" x="97.07" y="96.19" width="2.71" height="2.71"/><rect class="cls-2" x="105.91" y="99.03" width="2.71" height="2.71"/><path class="cls-3" d="M54.79,53.89c2.82-2.63,4.88-4.79,4.88-7.76,0-2.39-.94-3.85-3-3.85-2.45,0-3.9,1.65-3.9,6H46.61c0-7.52,3.24-12.45,10.24-12.45,5.64,0,9.4,3.61,9.4,9.72,0,6.34-4.23,10.29-7.8,13.53a35.5,35.5,0,0,0-3.24,3.29v.09h11v6.44h-20C46.24,62.06,49.15,59.15,54.79,53.89Z"/></g></svg>