<svg xmlns="http://www.w3.org/2000/svg" viewBox="0 0 340 180"><defs><style>.cls-1{fill:#020c2d;}.cls-2{fill:#fff;}.cls-3{fill:#6dfcff;}</style></defs><g id="LINKS"><path class="cls-1" d="M8.48,8.49H24.21c6.84,0,10.95,17.79,10.95,52s-4.11,52-10.95,52H16.69v59.05H8.48ZM22.39,78.94c2.74,0,4.56-4.79,4.56-18.47S25.13,42,22.39,42h-5.7V78.94Z"/><path class="cls-1" d="M41.54,8.49h8.21V72.33H60.92V8.49h8.21v163H60.92V105.85H49.75v65.66H41.54Z"/><path class="cls-1" d="M86.91,8.49h8.21l12.54,163H98.77l-2-34H85.54l-2.28,34H74.6Zm8,97.81L91,46.11,87.37,106.3Z"/><path class="cls-1" d="M110.85,116.11h8.44c0,16.87,2.73,23.25,6.61,23.25,3,0,4.56-5,4.56-11.85,0-13.91-3.19-17.56-7.75-24.4C117,94.45,112,83.5,112,54.32c0-33.52,5.47-46.74,12.54-46.74,7.53,0,13.68,18.92,13.91,50.39H130c-.22-10.95-2.28-17.33-5.47-17.33-2.51,0-4.1,3.19-4.1,10.71,0,10.95,1.82,14.6,5.93,20.75,6.15,9.12,12.54,17.79,12.54,51.53,0,29.64-4.79,48.79-13,48.79C117.46,172.42,110.85,151.67,110.85,116.11Z"/><path class="cls-1" d="M145.51,8.49h24.85V42H153.71V71h14.37v33.52H153.71V138h16.88v33.52H145.51Z"/><path class="cls-2" d="M325.53,151.37H216.34v-106H331.52v106h-2.71c-.2-.27-.13-.49-.14-.79a15.63,15.63,0,0,0,0-2.06h-3.14C325.39,148.52,325.64,151.09,325.53,151.37Zm-.14-102.75H222v2.85h3.27v2.71H228a2.08,2.08,0,0,1,.21.21v3.07h85.55v2.85h2.71V57.67a2.08,2.08,0,0,1,.21-.21h3.21V54.18h2.7V51.47h2.85Zm-103.5,2.85h-2.7v96.91h2.7V145.1h3.28v-2.64a1.47,1.47,0,0,1,.22-.21H228v-6h-2.85v-82h-3.28Zm89,9h-82.7v73h82.7Zm9,0h-3.28v81.8h3.28Zm-6.13,73.11H311v2.71h2.71Zm-79.56,6H231v2.71h3.14Zm5.7,0H237v2.71h2.85Zm6,0h-2.71v2.71h2.71Zm6.13,0h-3.14v2.71H252Zm5.69,0H255v2.71h2.7Zm38.11,0h-2.71v2.71h2.71Zm6.12,0h-3.13v2.71h3.13Zm5.7,0h-2.7v2.71h2.7Zm6.13,0H311v2.71h2.71Zm8.83,2.85h-2.7v2.71h2.7Zm2.85,2.85h-2.7v3.14h2.7Z"/><path class="cls-1" d="M325.53,151.37c.11-.28-.14-2.85,0-2.85h3.14a15.63,15.63,0,0,1,0,2.06c0,.3-.06.52.14.79Z"/><rect class="cls-1" x="228.16" y="60.45" width="82.7" height="72.97"/><path class="cls-3" d="M325.39,48.62v2.85h-2.85v2.71h-2.7v3.28h-3.21a2.08,2.08,0,0,0-.21.21v2.64h-2.71V57.46H228.16V54.39a2.08,2.08,0,0,0-.21-.21h-2.64V51.47H222V48.62Z"/><path class="cls-3" d="M221.89,51.47v2.85h3.28v82H228v6h-2.63a1.47,1.47,0,0,0-.22.21v2.64h-3.28v3.28h-2.7V51.47Z"/><rect class="cls-1" x="316.56" y="60.45" width="3.28" height="81.8"/><rect class="cls-1" x="231.01" y="139.54" width="3.13" height="2.71"/><rect class="cls-1" x="248.82" y="139.54" width="3.13" height="2.71"/><rect class="cls-1" x="298.75" y="139.54" width="3.13" height="2.71"/><rect class="cls-1" x="322.69" y="145.24" width="2.71" height="3.13"/><rect class="cls-1" x="237" y="139.54" width="2.85" height="2.71"/><rect class="cls-1" x="311" y="133.56" width="2.71" height="2.71"/><rect class="cls-1" x="243.12" y="139.54" width="2.71" height="2.71"/><rect class="cls-1" x="254.95" y="139.54" width="2.71" height="2.71"/><rect class="cls-1" x="261.35" y="139.54" width="2.71" height="2.71"/><rect class="cls-1" x="267.75" y="139.54" width="2.71" height="2.71"/><rect class="cls-1" x="274.15" y="139.54" width="2.71" height="2.71"/><rect class="cls-1" x="280.55" y="139.54" width="2.71" height="2.71"/><rect class="cls-1" x="286.95" y="139.54" width="2.71" height="2.71"/><rect class="cls-1" x="293.05" y="139.54" width="2.71" height="2.71"/><rect class="cls-1" x="304.88" y="139.54" width="2.71" height="2.71"/><rect class="cls-1" x="311" y="139.54" width="2.71" height="2.71"/><rect class="cls-1" x="319.84" y="142.39" width="2.71" height="2.71"/><path class="cls-3" d="M268.72,97.24c2.82-2.63,4.88-4.79,4.88-7.75,0-2.39-.94-3.85-3-3.85-2.45,0-3.9,1.64-3.9,6h-6.16c0-7.51,3.24-12.45,10.24-12.45,5.64,0,9.4,3.62,9.4,9.73,0,6.34-4.23,10.29-7.8,13.53a35.5,35.5,0,0,0-3.24,3.29v.09h11v6.44h-20C260.17,105.42,263.08,102.51,268.72,97.24Z"/></g></svg>