<svg xmlns="http://www.w3.org/2000/svg" xmlns:xlink="http://www.w3.org/1999/xlink" viewBox="0 0 340 180"><defs><style>.cls-1{fill:none;}.cls-2{fill:#020c2d;}.cls-3{fill:#fff;}.cls-4{fill:#6dfcff;}.cls-5{clip-path:url(#clip-path);}.cls-6{clip-path:url(#clip-path-2);}.cls-7{fill:#e7dfdc;}.cls-8{clip-path:url(#clip-path-3);}.cls-9{clip-path:url(#clip-path-4);}.cls-10{clip-path:url(#clip-path-5);}.cls-11{clip-path:url(#clip-path-6);}.cls-12{clip-path:url(#clip-path-7);}.cls-13{clip-path:url(#clip-path-8);}.cls-14{clip-path:url(#clip-path-9);}.cls-15{clip-path:url(#clip-path-10);}</style><clipPath id="clip-path"><rect class="cls-1" x="244.24" y="71.46" width="50.53" height="50.94" rx="2.8"/></clipPath><clipPath id="clip-path-2"><rect class="cls-1" x="279.95" y="61.97" width="29.03" height="22.92"/></clipPath><clipPath id="clip-path-3"><rect class="cls-1" x="279.95" y="84.89" width="29.03" height="22.92"/></clipPath><clipPath id="clip-path-4"><rect class="cls-1" x="279.95" y="107.8" width="29.03" height="22.92"/></clipPath><clipPath id="clip-path-5"><rect class="cls-1" x="250.92" y="61.97" width="29.03" height="22.92"/></clipPath><clipPath id="clip-path-6"><rect class="cls-1" x="250.92" y="84.89" width="29.03" height="22.92"/></clipPath><clipPath id="clip-path-7"><rect class="cls-1" x="250.92" y="107.8" width="29.03" height="22.92"/></clipPath><clipPath id="clip-path-8"><rect class="cls-1" x="221.89" y="61.97" width="29.03" height="22.92"/></clipPath><clipPath id="clip-path-9"><rect class="cls-1" x="221.89" y="84.89" width="29.03" height="22.92"/></clipPath><clipPath id="clip-path-10"><rect class="cls-1" x="221.89" y="107.8" width="29.03" height="22.92"/></clipPath></defs><g id="LINKS"><path class="cls-2" d="M8.49,8.49H24.22c6.84,0,11,17.78,11,52s-4.11,52-11,52H16.7v59.05H8.49ZM22.4,78.94c2.74,0,4.56-4.79,4.56-18.47S25.14,42,22.4,42H16.7V78.94Z"/><path class="cls-2" d="M41.55,8.49h8.21V72.33H60.93V8.49h8.21v163H60.93V105.85H49.76v65.66H41.55Z"/><path class="cls-2" d="M86.92,8.49h8.21l12.54,163H98.78l-2-34H85.55l-2.28,34H74.61Zm8,97.81L91,46.11,87.38,106.3Z"/><path class="cls-2" d="M110.86,116.11h8.44c0,16.87,2.73,23.25,6.61,23.25,3,0,4.56-5,4.56-11.86,0-13.9-3.19-17.55-7.75-24.39C117,94.45,112,83.5,112,54.32c0-33.52,5.47-46.74,12.54-46.74,7.53,0,13.68,18.92,13.91,50.39H130c-.22-10.95-2.28-17.33-5.47-17.33-2.51,0-4.1,3.19-4.1,10.71,0,10.95,1.82,14.6,5.93,20.75,6.15,9.12,12.54,17.79,12.54,51.53,0,29.64-4.79,48.79-13,48.79C117.47,172.42,110.86,151.67,110.86,116.11Z"/><path class="cls-2" d="M145.52,8.49h24.85V42H153.72V71h14.37v33.52H153.72V138H170.6v33.52H145.52Z"/><path class="cls-2" d="M325.52,151.37H216.33v-106H331.51v106H328.8c-.2-.27-.13-.49-.14-.79a15.63,15.63,0,0,0,0-2.06h-3.14C325.38,148.52,325.63,151.09,325.52,151.37Zm-.14-102.75H222v2.85h3.27v2.71h2.64a1.39,1.39,0,0,1,.21.21v3.07H313.7v2.85h2.71V57.67a2.08,2.08,0,0,1,.21-.21h3.21V54.18h2.7V51.47h2.85ZM221.89,51.47h-2.71v96.9h2.71V145.1h3.27v-2.64a1.47,1.47,0,0,1,.22-.21H228v-6h-2.85v-82h-3.27Zm89,9h-82.7v73h82.7Zm9,0h-3.28v81.8h3.28Zm-6.13,73.11H311v2.71h2.71Zm-79.56,6H231v2.71h3.14Zm5.7,0H237v2.71h2.85Zm6,0h-2.71v2.71h2.71Zm6.13,0h-3.14v2.71H252Zm5.69,0h-2.7v2.71h2.7Zm38.11,0H293v2.71h2.71Zm6.13,0h-3.14v2.71h3.14Zm5.69,0h-2.7v2.71h2.7Zm6.13,0H311v2.71h2.71Zm8.83,2.85h-2.7v2.71h2.7Zm2.85,2.85h-2.7v3.13h2.7Z"/><path class="cls-3" d="M325.52,151.37c.11-.28-.14-2.85,0-2.85h3.14a15.63,15.63,0,0,1,0,2.06c0,.3-.06.52.14.79Z"/><rect class="cls-4" x="228.15" y="60.45" width="82.7" height="72.97"/><path class="cls-3" d="M325.38,48.62v2.85h-2.85v2.71h-2.7v3.28h-3.21a2.08,2.08,0,0,0-.21.21v2.64H313.7V57.46H228.15V54.39a1.39,1.39,0,0,0-.21-.21H225.3V51.47H222V48.62Z"/><path class="cls-3" d="M221.89,51.47v2.85h3.27v82H228v6h-2.63a1.47,1.47,0,0,0-.22.21v2.64h-3.27v3.27h-2.71V51.47Z"/><rect class="cls-3" x="316.55" y="60.45" width="3.28" height="81.8"/><rect class="cls-3" x="231" y="139.54" width="3.13" height="2.71"/><rect class="cls-3" x="248.81" y="139.54" width="3.13" height="2.71"/><rect class="cls-3" x="298.74" y="139.54" width="3.13" height="2.71"/><rect class="cls-3" x="322.68" y="145.24" width="2.71" height="3.13"/><rect class="cls-3" x="236.99" y="139.54" width="2.85" height="2.71"/><rect class="cls-3" x="310.99" y="133.56" width="2.71" height="2.71"/><rect class="cls-3" x="243.11" y="139.54" width="2.71" height="2.71"/><rect class="cls-3" x="254.94" y="139.54" width="2.71" height="2.71"/><rect class="cls-3" x="261.34" y="139.54" width="2.71" height="2.71"/><rect class="cls-3" x="267.74" y="139.54" width="2.71" height="2.71"/><rect class="cls-3" x="274.14" y="139.54" width="2.71" height="2.71"/><rect class="cls-3" x="280.54" y="139.54" width="2.71" height="2.71"/><rect class="cls-3" x="286.94" y="139.54" width="2.71" height="2.71"/><rect class="cls-3" x="293.04" y="139.54" width="2.71" height="2.71"/><rect class="cls-3" x="304.87" y="139.54" width="2.71" height="2.71"/><rect class="cls-3" x="310.99" y="139.54" width="2.71" height="2.71"/><rect class="cls-3" x="319.83" y="142.39" width="2.71" height="2.71"/><g class="cls-5"><g class="cls-6"><rect class="cls-7" x="307.37" y="82.83" width="1.76" height="2.06"/><rect class="cls-7" x="280.1" y="81.07" width="3.53" height="1.76"/><rect class="cls-7" x="278.33" y="82.83" width="1.76" height="2.06"/><rect class="cls-7" x="283.62" y="82.83" width="1.76" height="2.06"/><rect class="cls-7" x="301.79" y="79.3" width="3.82" height="1.76"/><rect class="cls-7" x="305.6" y="77.25" width="1.76" height="2.06"/><rect class="cls-7" x="307.37" y="75.19" width="1.76" height="2.06"/><rect class="cls-7" x="287.27" y="83.12" width="3.82" height="1.76"/><rect class="cls-7" x="294.61" y="77.25" width="3.53" height="1.76"/><rect class="cls-7" x="291.09" y="81.07" width="1.76" height="2.06"/><rect class="cls-7" x="292.85" y="79.01" width="1.76" height="2.06"/><rect class="cls-7" x="299.9" y="81.07" width="1.76" height="2.06"/><rect class="cls-7" x="298.14" y="79.01" width="1.76" height="2.06"/><rect class="cls-7" x="280.1" y="73.43" width="3.53" height="1.76"/><rect class="cls-7" x="278.33" y="75.19" width="1.76" height="2.06"/><rect class="cls-7" x="285.39" y="77.25" width="1.76" height="2.06"/><rect class="cls-7" x="283.62" y="75.19" width="1.76" height="2.06"/><rect class="cls-7" x="301.79" y="71.66" width="3.82" height="1.76"/><rect class="cls-7" x="305.6" y="69.61" width="1.76" height="2.06"/><rect class="cls-7" x="307.37" y="67.55" width="1.76" height="2.06"/><rect class="cls-7" x="287.27" y="75.48" width="3.82" height="1.76"/><rect class="cls-7" x="294.61" y="69.61" width="3.53" height="1.76"/><rect class="cls-7" x="291.09" y="73.43" width="1.76" height="2.06"/><rect class="cls-7" x="292.85" y="71.37" width="1.76" height="2.06"/><rect class="cls-7" x="299.9" y="73.43" width="1.76" height="2.06"/><rect class="cls-7" x="298.14" y="71.37" width="1.76" height="2.06"/><rect class="cls-7" x="280.1" y="65.79" width="3.53" height="1.76"/><rect class="cls-7" x="278.33" y="67.55" width="1.76" height="2.06"/><rect class="cls-7" x="285.39" y="69.61" width="1.76" height="2.06"/><rect class="cls-7" x="283.62" y="67.55" width="1.76" height="2.06"/><rect class="cls-7" x="301.79" y="64.03" width="3.82" height="1.76"/><rect class="cls-7" x="305.6" y="61.97" width="1.76" height="2.06"/><rect class="cls-7" x="287.27" y="67.84" width="3.82" height="1.76"/><rect class="cls-7" x="294.61" y="61.97" width="3.53" height="1.76"/><rect class="cls-7" x="291.09" y="65.79" width="1.76" height="2.06"/><rect class="cls-7" x="292.85" y="63.73" width="1.76" height="2.06"/><rect class="cls-7" x="299.9" y="65.79" width="1.76" height="2.06"/><rect class="cls-7" x="298.14" y="63.73" width="1.76" height="2.06"/><rect class="cls-7" x="285.39" y="61.97" width="1.76" height="2.06"/></g><g class="cls-8"><rect class="cls-7" x="307.37" y="105.75" width="1.76" height="2.06"/><rect class="cls-7" x="280.1" y="103.98" width="3.53" height="1.76"/><rect class="cls-7" x="278.33" y="105.75" width="1.76" height="2.06"/><rect class="cls-7" x="283.62" y="105.75" width="1.76" height="2.06"/><rect class="cls-7" x="301.79" y="102.22" width="3.82" height="1.76"/><rect class="cls-7" x="305.6" y="100.16" width="1.76" height="2.06"/><rect class="cls-7" x="307.37" y="98.11" width="1.76" height="2.06"/><rect class="cls-7" x="287.27" y="106.04" width="3.82" height="1.76"/><rect class="cls-7" x="294.61" y="100.16" width="3.53" height="1.76"/><rect class="cls-7" x="291.09" y="103.98" width="1.76" height="2.06"/><rect class="cls-7" x="292.85" y="101.93" width="1.76" height="2.06"/><rect class="cls-7" x="299.9" y="103.98" width="1.76" height="2.06"/><rect class="cls-7" x="298.14" y="101.93" width="1.76" height="2.06"/><rect class="cls-7" x="280.1" y="96.35" width="3.53" height="1.76"/><rect class="cls-7" x="278.33" y="98.11" width="1.76" height="2.06"/><rect class="cls-7" x="285.39" y="100.16" width="1.76" height="2.06"/><rect class="cls-7" x="283.62" y="98.11" width="1.76" height="2.06"/><rect class="cls-7" x="301.79" y="94.58" width="3.82" height="1.76"/><rect class="cls-7" x="305.6" y="92.53" width="1.76" height="2.06"/><rect class="cls-7" x="307.37" y="90.47" width="1.76" height="2.06"/><rect class="cls-7" x="287.27" y="98.4" width="3.82" height="1.76"/><rect class="cls-7" x="294.61" y="92.53" width="3.53" height="1.76"/><rect class="cls-7" x="291.09" y="96.35" width="1.76" height="2.06"/><rect class="cls-7" x="292.85" y="94.29" width="1.76" height="2.06"/><rect class="cls-7" x="299.9" y="96.35" width="1.76" height="2.06"/><rect class="cls-7" x="298.14" y="94.29" width="1.76" height="2.06"/><rect class="cls-7" x="280.1" y="88.71" width="3.53" height="1.76"/><rect class="cls-7" x="278.33" y="90.47" width="1.76" height="2.06"/><rect class="cls-7" x="285.39" y="92.53" width="1.76" height="2.06"/><rect class="cls-7" x="283.62" y="90.47" width="1.76" height="2.06"/><rect class="cls-7" x="301.79" y="86.94" width="3.82" height="1.76"/><rect class="cls-7" x="305.6" y="84.89" width="1.76" height="2.06"/><rect class="cls-7" x="287.27" y="90.76" width="3.82" height="1.76"/><rect class="cls-7" x="294.61" y="84.89" width="3.53" height="1.76"/><rect class="cls-7" x="291.09" y="88.71" width="1.76" height="2.06"/><rect class="cls-7" x="292.85" y="86.65" width="1.76" height="2.06"/><rect class="cls-7" x="299.9" y="88.71" width="1.76" height="2.06"/><rect class="cls-7" x="298.14" y="86.65" width="1.76" height="2.06"/><rect class="cls-7" x="285.39" y="84.89" width="1.76" height="2.06"/></g><g class="cls-9"><rect class="cls-7" x="307.37" y="128.67" width="1.76" height="2.06"/><rect class="cls-7" x="280.1" y="126.9" width="3.53" height="1.76"/><rect class="cls-7" x="278.33" y="128.67" width="1.76" height="2.06"/><rect class="cls-7" x="283.62" y="128.67" width="1.76" height="2.06"/><rect class="cls-7" x="301.79" y="125.14" width="3.82" height="1.76"/><rect class="cls-7" x="305.6" y="123.08" width="1.76" height="2.06"/><rect class="cls-7" x="307.37" y="121.03" width="1.76" height="2.06"/><rect class="cls-7" x="287.27" y="128.96" width="3.82" height="1.76"/><rect class="cls-7" x="294.61" y="123.08" width="3.53" height="1.76"/><rect class="cls-7" x="291.09" y="126.9" width="1.76" height="2.06"/><rect class="cls-7" x="292.85" y="124.85" width="1.76" height="2.06"/><rect class="cls-7" x="299.9" y="126.9" width="1.76" height="2.06"/><rect class="cls-7" x="298.14" y="124.85" width="1.76" height="2.06"/><rect class="cls-7" x="280.1" y="119.26" width="3.53" height="1.76"/><rect class="cls-7" x="278.33" y="121.03" width="1.76" height="2.06"/><rect class="cls-7" x="285.39" y="123.08" width="1.76" height="2.06"/><rect class="cls-7" x="283.62" y="121.03" width="1.76" height="2.06"/><rect class="cls-7" x="301.79" y="117.5" width="3.82" height="1.76"/><rect class="cls-7" x="305.6" y="115.44" width="1.76" height="2.06"/><rect class="cls-7" x="307.37" y="113.39" width="1.76" height="2.06"/><rect class="cls-7" x="287.27" y="121.32" width="3.82" height="1.76"/><rect class="cls-7" x="294.61" y="115.44" width="3.53" height="1.76"/><rect class="cls-7" x="291.09" y="119.26" width="1.76" height="2.06"/><rect class="cls-7" x="292.85" y="117.21" width="1.76" height="2.06"/><rect class="cls-7" x="299.9" y="119.26" width="1.76" height="2.06"/><rect class="cls-7" x="298.14" y="117.21" width="1.76" height="2.06"/><rect class="cls-7" x="280.1" y="111.62" width="3.53" height="1.76"/><rect class="cls-7" x="278.33" y="113.39" width="1.76" height="2.06"/><rect class="cls-7" x="285.39" y="115.44" width="1.76" height="2.06"/><rect class="cls-7" x="283.62" y="113.39" width="1.76" height="2.06"/><rect class="cls-7" x="301.79" y="109.86" width="3.82" height="1.76"/><rect class="cls-7" x="305.6" y="107.8" width="1.76" height="2.06"/><rect class="cls-7" x="287.27" y="113.68" width="3.82" height="1.76"/><rect class="cls-7" x="294.61" y="107.8" width="3.53" height="1.76"/><rect class="cls-7" x="291.09" y="111.62" width="1.76" height="2.06"/><rect class="cls-7" x="292.85" y="109.57" width="1.76" height="2.06"/><rect class="cls-7" x="299.9" y="111.62" width="1.76" height="2.06"/><rect class="cls-7" x="298.14" y="109.57" width="1.76" height="2.06"/><rect class="cls-7" x="285.39" y="107.8" width="1.76" height="2.06"/></g><g class="cls-10"><rect class="cls-7" x="278.33" y="82.83" width="1.76" height="2.06"/><rect class="cls-7" x="251.06" y="81.07" width="3.53" height="1.76"/><rect class="cls-7" x="249.3" y="82.83" width="1.76" height="2.06"/><rect class="cls-7" x="254.59" y="82.83" width="1.76" height="2.06"/><rect class="cls-7" x="272.75" y="79.3" width="3.82" height="1.76"/><rect class="cls-7" x="276.57" y="77.25" width="1.76" height="2.06"/><rect class="cls-7" x="278.33" y="75.19" width="1.76" height="2.06"/><rect class="cls-7" x="258.24" y="83.12" width="3.82" height="1.76"/><rect class="cls-7" x="265.58" y="77.25" width="3.53" height="1.76"/><rect class="cls-7" x="262.06" y="81.07" width="1.76" height="2.06"/><rect class="cls-7" x="263.82" y="79.01" width="1.76" height="2.06"/><rect class="cls-7" x="270.87" y="81.07" width="1.76" height="2.06"/><rect class="cls-7" x="269.11" y="79.01" width="1.76" height="2.06"/><rect class="cls-7" x="251.06" y="73.43" width="3.53" height="1.76"/><rect class="cls-7" x="249.3" y="75.19" width="1.76" height="2.06"/><rect class="cls-7" x="256.35" y="77.25" width="1.76" height="2.06"/><rect class="cls-7" x="254.59" y="75.19" width="1.76" height="2.06"/><rect class="cls-7" x="272.75" y="71.66" width="3.82" height="1.76"/><rect class="cls-7" x="276.57" y="69.61" width="1.76" height="2.06"/><rect class="cls-7" x="278.33" y="67.55" width="1.76" height="2.06"/><rect class="cls-7" x="258.24" y="75.48" width="3.82" height="1.76"/><rect class="cls-7" x="265.58" y="69.61" width="3.53" height="1.76"/><rect class="cls-7" x="262.06" y="73.43" width="1.76" height="2.06"/><rect class="cls-7" x="263.82" y="71.37" width="1.76" height="2.06"/><rect class="cls-7" x="270.87" y="73.43" width="1.76" height="2.06"/><rect class="cls-7" x="269.11" y="71.37" width="1.76" height="2.06"/><rect class="cls-7" x="251.06" y="65.79" width="3.53" height="1.76"/><rect class="cls-7" x="249.3" y="67.55" width="1.76" height="2.06"/><rect class="cls-7" x="256.35" y="69.61" width="1.76" height="2.06"/><rect class="cls-7" x="254.59" y="67.55" width="1.76" height="2.06"/><rect class="cls-7" x="272.75" y="64.03" width="3.82" height="1.76"/><rect class="cls-7" x="276.57" y="61.97" width="1.76" height="2.06"/><rect class="cls-7" x="258.24" y="67.84" width="3.82" height="1.76"/><rect class="cls-7" x="265.58" y="61.97" width="3.53" height="1.76"/><rect class="cls-7" x="262.06" y="65.79" width="1.76" height="2.06"/><rect class="cls-7" x="263.82" y="63.73" width="1.76" height="2.06"/><rect class="cls-7" x="270.87" y="65.79" width="1.76" height="2.06"/><rect class="cls-7" x="269.11" y="63.73" width="1.76" height="2.06"/><rect class="cls-7" x="256.35" y="61.97" width="1.76" height="2.06"/></g><g class="cls-11"><rect class="cls-7" x="278.33" y="105.75" width="1.76" height="2.06"/><rect class="cls-7" x="251.06" y="103.98" width="3.53" height="1.76"/><rect class="cls-7" x="249.3" y="105.75" width="1.76" height="2.06"/><rect class="cls-7" x="254.59" y="105.75" width="1.76" height="2.06"/><rect class="cls-7" x="272.75" y="102.22" width="3.82" height="1.76"/><rect class="cls-7" x="276.57" y="100.16" width="1.76" height="2.06"/><rect class="cls-7" x="278.33" y="98.11" width="1.76" height="2.06"/><rect class="cls-7" x="258.24" y="106.04" width="3.82" height="1.76"/><rect class="cls-7" x="265.58" y="100.16" width="3.53" height="1.76"/><rect class="cls-7" x="262.06" y="103.98" width="1.76" height="2.06"/><rect class="cls-7" x="263.82" y="101.93" width="1.76" height="2.06"/><rect class="cls-7" x="270.87" y="103.98" width="1.76" height="2.06"/><rect class="cls-7" x="269.11" y="101.93" width="1.76" height="2.06"/><rect class="cls-7" x="251.06" y="96.35" width="3.53" height="1.76"/><rect class="cls-7" x="249.3" y="98.11" width="1.76" height="2.06"/><rect class="cls-7" x="256.35" y="100.16" width="1.76" height="2.06"/><rect class="cls-7" x="254.59" y="98.11" width="1.76" height="2.06"/><rect class="cls-7" x="272.75" y="94.58" width="3.82" height="1.76"/><rect class="cls-7" x="276.57" y="92.53" width="1.76" height="2.06"/><rect class="cls-7" x="278.33" y="90.47" width="1.76" height="2.06"/><rect class="cls-7" x="258.24" y="98.4" width="3.82" height="1.76"/><rect class="cls-7" x="265.58" y="92.53" width="3.53" height="1.76"/><rect class="cls-7" x="262.06" y="96.35" width="1.76" height="2.06"/><rect class="cls-7" x="263.82" y="94.29" width="1.76" height="2.06"/><rect class="cls-7" x="270.87" y="96.35" width="1.76" height="2.06"/><rect class="cls-7" x="269.11" y="94.29" width="1.76" height="2.06"/><rect class="cls-7" x="251.06" y="88.71" width="3.53" height="1.76"/><rect class="cls-7" x="249.3" y="90.47" width="1.76" height="2.06"/><rect class="cls-7" x="256.35" y="92.53" width="1.76" height="2.06"/><rect class="cls-7" x="254.59" y="90.47" width="1.76" height="2.06"/><rect class="cls-7" x="272.75" y="86.94" width="3.82" height="1.76"/><rect class="cls-7" x="276.57" y="84.89" width="1.76" height="2.06"/><rect class="cls-7" x="258.24" y="90.76" width="3.82" height="1.76"/><rect class="cls-7" x="265.58" y="84.89" width="3.53" height="1.76"/><rect class="cls-7" x="262.06" y="88.71" width="1.76" height="2.06"/><rect class="cls-7" x="263.82" y="86.65" width="1.76" height="2.06"/><rect class="cls-7" x="270.87" y="88.71" width="1.76" height="2.06"/><rect class="cls-7" x="269.11" y="86.65" width="1.76" height="2.06"/><rect class="cls-7" x="256.35" y="84.89" width="1.76" height="2.06"/></g><g class="cls-12"><rect class="cls-7" x="278.33" y="128.67" width="1.76" height="2.06"/><rect class="cls-7" x="251.06" y="126.9" width="3.53" height="1.76"/><rect class="cls-7" x="249.3" y="128.67" width="1.76" height="2.06"/><rect class="cls-7" x="254.59" y="128.67" width="1.76" height="2.06"/><rect class="cls-7" x="272.75" y="125.14" width="3.82" height="1.76"/><rect class="cls-7" x="276.57" y="123.08" width="1.76" height="2.06"/><rect class="cls-7" x="278.33" y="121.03" width="1.76" height="2.06"/><rect class="cls-7" x="258.24" y="128.96" width="3.82" height="1.76"/><rect class="cls-7" x="265.58" y="123.08" width="3.53" height="1.76"/><rect class="cls-7" x="262.06" y="126.9" width="1.76" height="2.06"/><rect class="cls-7" x="263.82" y="124.85" width="1.76" height="2.06"/><rect class="cls-7" x="270.87" y="126.9" width="1.76" height="2.06"/><rect class="cls-7" x="269.11" y="124.85" width="1.76" height="2.06"/><rect class="cls-7" x="251.06" y="119.26" width="3.53" height="1.76"/><rect class="cls-7" x="249.3" y="121.03" width="1.76" height="2.06"/><rect class="cls-7" x="256.35" y="123.08" width="1.76" height="2.06"/><rect class="cls-7" x="254.59" y="121.03" width="1.76" height="2.06"/><rect class="cls-7" x="272.75" y="117.5" width="3.82" height="1.76"/><rect class="cls-7" x="276.57" y="115.44" width="1.76" height="2.06"/><rect class="cls-7" x="278.33" y="113.39" width="1.76" height="2.06"/><rect class="cls-7" x="258.24" y="121.32" width="3.82" height="1.76"/><rect class="cls-7" x="265.58" y="115.44" width="3.53" height="1.76"/><rect class="cls-7" x="262.06" y="119.26" width="1.76" height="2.06"/><rect class="cls-7" x="263.82" y="117.21" width="1.76" height="2.06"/><rect class="cls-7" x="270.87" y="119.26" width="1.76" height="2.06"/><rect class="cls-7" x="269.11" y="117.21" width="1.76" height="2.06"/><rect class="cls-7" x="251.06" y="111.62" width="3.53" height="1.76"/><rect class="cls-7" x="249.3" y="113.39" width="1.76" height="2.06"/><rect class="cls-7" x="256.35" y="115.44" width="1.76" height="2.06"/><rect class="cls-7" x="254.59" y="113.39" width="1.76" height="2.06"/><rect class="cls-7" x="272.75" y="109.86" width="3.82" height="1.76"/><rect class="cls-7" x="276.57" y="107.8" width="1.76" height="2.06"/><rect class="cls-7" x="258.24" y="113.68" width="3.82" height="1.76"/><rect class="cls-7" x="265.58" y="107.8" width="3.53" height="1.76"/><rect class="cls-7" x="262.06" y="111.62" width="1.76" height="2.06"/><rect class="cls-7" x="263.82" y="109.57" width="1.76" height="2.06"/><rect class="cls-7" x="270.87" y="111.62" width="1.76" height="2.06"/><rect class="cls-7" x="269.11" y="109.57" width="1.76" height="2.06"/><rect class="cls-7" x="256.35" y="107.8" width="1.76" height="2.06"/></g><g class="cls-13"><rect class="cls-7" x="249.3" y="82.83" width="1.76" height="2.06"/><rect class="cls-7" x="222.03" y="81.07" width="3.53" height="1.76"/><rect class="cls-7" x="220.27" y="82.83" width="1.76" height="2.06"/><rect class="cls-7" x="225.56" y="82.83" width="1.76" height="2.06"/><rect class="cls-7" x="243.72" y="79.3" width="3.82" height="1.76"/><rect class="cls-7" x="247.54" y="77.25" width="1.76" height="2.06"/><rect class="cls-7" x="249.3" y="75.19" width="1.76" height="2.06"/><rect class="cls-7" x="229.2" y="83.12" width="3.82" height="1.76"/><rect class="cls-7" x="236.55" y="77.25" width="3.53" height="1.76"/><rect class="cls-7" x="233.02" y="81.07" width="1.76" height="2.06"/><rect class="cls-7" x="234.79" y="79.01" width="1.76" height="2.06"/><rect class="cls-7" x="241.84" y="81.07" width="1.76" height="2.06"/><rect class="cls-7" x="240.07" y="79.01" width="1.76" height="2.06"/><rect class="cls-7" x="222.03" y="73.43" width="3.53" height="1.76"/><rect class="cls-7" x="220.27" y="75.19" width="1.76" height="2.06"/><rect class="cls-7" x="227.32" y="77.25" width="1.76" height="2.06"/><rect class="cls-7" x="225.56" y="75.19" width="1.76" height="2.06"/><rect class="cls-7" x="243.72" y="71.66" width="3.82" height="1.76"/><rect class="cls-7" x="247.54" y="69.61" width="1.76" height="2.06"/><rect class="cls-7" x="249.3" y="67.55" width="1.76" height="2.06"/><rect class="cls-7" x="229.2" y="75.48" width="3.82" height="1.76"/><rect class="cls-7" x="236.55" y="69.61" width="3.53" height="1.76"/><rect class="cls-7" x="233.02" y="73.43" width="1.76" height="2.06"/><rect class="cls-7" x="234.79" y="71.37" width="1.76" height="2.06"/><rect class="cls-7" x="241.84" y="73.43" width="1.76" height="2.06"/><rect class="cls-7" x="240.07" y="71.37" width="1.76" height="2.06"/><rect class="cls-7" x="222.03" y="65.79" width="3.53" height="1.76"/><rect class="cls-7" x="220.27" y="67.55" width="1.76" height="2.06"/><rect class="cls-7" x="227.32" y="69.61" width="1.76" height="2.06"/><rect class="cls-7" x="225.56" y="67.55" width="1.76" height="2.06"/><rect class="cls-7" x="243.72" y="64.03" width="3.82" height="1.76"/><rect class="cls-7" x="247.54" y="61.97" width="1.76" height="2.06"/><rect class="cls-7" x="229.2" y="67.84" width="3.82" height="1.76"/><rect class="cls-7" x="236.55" y="61.97" width="3.53" height="1.76"/><rect class="cls-7" x="233.02" y="65.79" width="1.76" height="2.06"/><rect class="cls-7" x="234.79" y="63.73" width="1.76" height="2.06"/><rect class="cls-7" x="241.84" y="65.79" width="1.76" height="2.06"/><rect class="cls-7" x="240.07" y="63.73" width="1.76" height="2.06"/><rect class="cls-7" x="227.32" y="61.97" width="1.76" height="2.06"/></g><g class="cls-14"><rect class="cls-7" x="249.3" y="105.75" width="1.76" height="2.06"/><rect class="cls-7" x="222.03" y="103.98" width="3.53" height="1.76"/><rect class="cls-7" x="220.27" y="105.75" width="1.76" height="2.06"/><rect class="cls-7" x="225.56" y="105.75" width="1.76" height="2.06"/><rect class="cls-7" x="243.72" y="102.22" width="3.82" height="1.76"/><rect class="cls-7" x="247.54" y="100.16" width="1.76" height="2.06"/><rect class="cls-7" x="249.3" y="98.11" width="1.76" height="2.06"/><rect class="cls-7" x="229.2" y="106.04" width="3.82" height="1.76"/><rect class="cls-7" x="236.55" y="100.16" width="3.53" height="1.76"/><rect class="cls-7" x="233.02" y="103.98" width="1.76" height="2.06"/><rect class="cls-7" x="234.79" y="101.93" width="1.76" height="2.06"/><rect class="cls-7" x="241.84" y="103.98" width="1.76" height="2.06"/><rect class="cls-7" x="240.07" y="101.93" width="1.76" height="2.06"/><rect class="cls-7" x="222.03" y="96.35" width="3.53" height="1.76"/><rect class="cls-7" x="220.27" y="98.11" width="1.76" height="2.06"/><rect class="cls-7" x="227.32" y="100.16" width="1.76" height="2.06"/><rect class="cls-7" x="225.56" y="98.11" width="1.76" height="2.06"/><rect class="cls-7" x="243.72" y="94.58" width="3.82" height="1.76"/><rect class="cls-7" x="247.54" y="92.53" width="1.76" height="2.06"/><rect class="cls-7" x="249.3" y="90.47" width="1.76" height="2.06"/><rect class="cls-7" x="229.2" y="98.4" width="3.82" height="1.76"/><rect class="cls-7" x="236.55" y="92.53" width="3.53" height="1.76"/><rect class="cls-7" x="233.02" y="96.35" width="1.76" height="2.06"/><rect class="cls-7" x="234.79" y="94.29" width="1.76" height="2.06"/><rect class="cls-7" x="241.84" y="96.35" width="1.76" height="2.06"/><rect class="cls-7" x="240.07" y="94.29" width="1.76" height="2.06"/><rect class="cls-7" x="222.03" y="88.71" width="3.53" height="1.76"/><rect class="cls-7" x="220.27" y="90.47" width="1.76" height="2.06"/><rect class="cls-7" x="227.32" y="92.53" width="1.76" height="2.06"/><rect class="cls-7" x="225.56" y="90.47" width="1.76" height="2.06"/><rect class="cls-7" x="243.72" y="86.94" width="3.82" height="1.76"/><rect class="cls-7" x="247.54" y="84.89" width="1.76" height="2.06"/><rect class="cls-7" x="229.2" y="90.76" width="3.82" height="1.76"/><rect class="cls-7" x="236.55" y="84.89" width="3.53" height="1.76"/><rect class="cls-7" x="233.02" y="88.71" width="1.76" height="2.06"/><rect class="cls-7" x="234.79" y="86.65" width="1.76" height="2.06"/><rect class="cls-7" x="241.84" y="88.71" width="1.76" height="2.06"/><rect class="cls-7" x="240.07" y="86.65" width="1.76" height="2.06"/><rect class="cls-7" x="227.32" y="84.89" width="1.76" height="2.06"/></g><g class="cls-15"><rect class="cls-7" x="249.3" y="128.67" width="1.76" height="2.06"/><rect class="cls-7" x="222.03" y="126.9" width="3.53" height="1.76"/><rect class="cls-7" x="220.27" y="128.67" width="1.76" height="2.06"/><rect class="cls-7" x="225.56" y="128.67" width="1.76" height="2.06"/><rect class="cls-7" x="243.72" y="125.14" width="3.82" height="1.76"/><rect class="cls-7" x="247.54" y="123.08" width="1.76" height="2.06"/><rect class="cls-7" x="249.3" y="121.03" width="1.76" height="2.06"/><rect class="cls-7" x="229.2" y="128.96" width="3.82" height="1.76"/><rect class="cls-7" x="236.55" y="123.08" width="3.53" height="1.76"/><rect class="cls-7" x="233.02" y="126.9" width="1.76" height="2.06"/><rect class="cls-7" x="234.79" y="124.85" width="1.76" height="2.06"/><rect class="cls-7" x="241.84" y="126.9" width="1.76" height="2.06"/><rect class="cls-7" x="240.07" y="124.85" width="1.76" height="2.06"/><rect class="cls-7" x="222.03" y="119.26" width="3.53" height="1.76"/><rect class="cls-7" x="220.27" y="121.03" width="1.76" height="2.06"/><rect class="cls-7" x="227.32" y="123.08" width="1.76" height="2.06"/><rect class="cls-7" x="225.56" y="121.03" width="1.76" height="2.06"/><rect class="cls-7" x="243.72" y="117.5" width="3.82" height="1.76"/><rect class="cls-7" x="247.54" y="115.44" width="1.76" height="2.06"/><rect class="cls-7" x="249.3" y="113.39" width="1.76" height="2.06"/><rect class="cls-7" x="229.2" y="121.32" width="3.82" height="1.76"/><rect class="cls-7" x="236.55" y="115.44" width="3.53" height="1.76"/><rect class="cls-7" x="233.02" y="119.26" width="1.76" height="2.06"/><rect class="cls-7" x="234.79" y="117.21" width="1.76" height="2.06"/><rect class="cls-7" x="241.84" y="119.26" width="1.76" height="2.06"/><rect class="cls-7" x="240.07" y="117.21" width="1.76" height="2.06"/><rect class="cls-7" x="222.03" y="111.62" width="3.53" height="1.76"/><rect class="cls-7" x="220.27" y="113.39" width="1.76" height="2.06"/><rect class="cls-7" x="227.32" y="115.44" width="1.76" height="2.06"/><rect class="cls-7" x="225.56" y="113.39" width="1.76" height="2.06"/><rect class="cls-7" x="243.72" y="109.86" width="3.82" height="1.76"/><rect class="cls-7" x="247.54" y="107.8" width="1.76" height="2.06"/><rect class="cls-7" x="229.2" y="113.68" width="3.82" height="1.76"/><rect class="cls-7" x="236.55" y="107.8" width="3.53" height="1.76"/><rect class="cls-7" x="233.02" y="111.62" width="1.76" height="2.06"/><rect class="cls-7" x="234.79" y="109.57" width="1.76" height="2.06"/><rect class="cls-7" x="241.84" y="111.62" width="1.76" height="2.06"/><rect class="cls-7" x="240.07" y="109.57" width="1.76" height="2.06"/><rect class="cls-7" x="227.32" y="107.8" width="1.76" height="2.06"/></g></g><path class="cls-7" d="M292,122.79H247a3.19,3.19,0,0,1-3.19-3.19V74.27a3.2,3.2,0,0,1,3.19-3.2H292a3.21,3.21,0,0,1,3.2,3.2V119.6A3.2,3.2,0,0,1,292,122.79ZM247,71.85a2.42,2.42,0,0,0-2.41,2.42V119.6A2.41,2.41,0,0,0,247,122H292a2.42,2.42,0,0,0,2.42-2.41V74.27A2.43,2.43,0,0,0,292,71.85Z"/><path class="cls-2" d="M260.38,102.43h6.15c0,3.66,1.22,5.64,4.56,5.64,2.77,0,3.85-1.41,3.85-3.81,0-3.1-1.64-4.27-4.6-4.27H269v-5.5h1.13c2.3,0,4-1.22,4-4,0-2.07-1.08-3.25-3.19-3.25s-3.72,1.13-3.72,4.14h-6.15c0-6.11,3.76-10.57,10-10.57,5.26,0,9.58,3.15,9.58,8.78A7.94,7.94,0,0,1,277,96.7v.09c3.2,1.27,4.51,4,4.51,7.8,0,6.49-4,9.91-10.19,9.91C264.32,114.5,260.38,110.13,260.38,102.43Z"/></g></svg>