<svg xmlns="http://www.w3.org/2000/svg" viewBox="0 0 250 60"><defs><style>.cls-1{fill:#020c2d;}</style></defs><g id="GRAPHICS"><rect class="cls-1" x="138.95" y="7.77" width="0.99" height="44.45"/><g id="Layer_11" data-name="Layer 11"><path class="cls-1" d="M27.11,17.28a14.3,14.3,0,0,0-7.36-2A14.61,14.61,0,0,0,5.07,30,14.62,14.62,0,0,0,19.75,44.68,14.64,14.64,0,0,0,34.43,30a14.64,14.64,0,0,0-7.32-12.72Zm-6.5,18a5.71,5.71,0,0,1-4-1.42,4.42,4.42,0,0,1-1.35-2.38H31.1A12.31,12.31,0,0,1,30,35.29H20.61Zm-5.34-6.78a4.62,4.62,0,0,1,1.36-2.38,5.68,5.68,0,0,1,4-1.42H30a11.33,11.33,0,0,1,1.15,3.8H15.27ZM9.8,24.13A11.41,11.41,0,0,1,14,19.91a11.58,11.58,0,0,1,11.61,0A11.24,11.24,0,0,1,28,21.8H20.59a9.44,9.44,0,0,0-4.5,1.07,7.46,7.46,0,0,0-3,2.91,8.31,8.31,0,0,0-1,2.78H8.45a11.12,11.12,0,0,1,1.42-4.39h-.1v0ZM25.53,40.07a11.58,11.58,0,0,1-11.61,0,11.56,11.56,0,0,1-4.17-4.22,10.84,10.84,0,0,1-1.42-4.34H12a8.54,8.54,0,0,0,1,2.78,8.3,8.3,0,0,0,3,2.91,9.44,9.44,0,0,0,4.5,1.07h7.37a11,11,0,0,1-2.33,1.8h0Z"/><path class="cls-1" d="M58.13,34.71,55.31,24a3.27,3.27,0,0,0-1.09-1.74,2.94,2.94,0,0,0-2-.66,2.76,2.76,0,0,0-1.91.66A3.25,3.25,0,0,0,49.25,24l-2.77,10.7L43.05,21.8h-4l4.17,14.14a3.1,3.1,0,0,0,3.14,2.61c1.59,0,1.52-.25,2-.7a3.79,3.79,0,0,0,1.08-1.91l2.82-10.88,2.77,10.88a3.2,3.2,0,0,0,6.29,0L65.5,21.8h-4L58.13,34.71h0Z"/><path class="cls-1" d="M79.39,22.5a9,9,0,0,0-4.55-1.15,8.78,8.78,0,0,0-7.69,4.29,8.65,8.65,0,0,0,3.2,11.91,8.93,8.93,0,0,0,4.49,1.14,9.12,9.12,0,0,0,4.55-1.14,8.76,8.76,0,0,0,3.19-3.15,9,9,0,0,0,0-8.76,8.58,8.58,0,0,0-3.19-3.14Zm-.12,10.18a4.73,4.73,0,0,1-4.36,2.61,5.16,5.16,0,0,1-2.61-.7,4.48,4.48,0,0,1-1.74-1.89A5.86,5.86,0,0,1,69.9,30a5.35,5.35,0,0,1,.66-2.7,4.94,4.94,0,0,1,1.74-1.91,5,5,0,0,1,2.61-.7,5.07,5.07,0,0,1,2.61.7,4.47,4.47,0,0,1,1.75,1.88A5.93,5.93,0,0,1,79.92,30a5.5,5.5,0,0,1-.65,2.7Z"/><path class="cls-1" d="M91.32,22.75A5.2,5.2,0,0,0,89.64,25V21.8H85.89V38.23h3.8V30.91c0-2,.44-3.36,1.4-4.22a5.61,5.61,0,0,1,4-1.3h.09v-3.8H95a6,6,0,0,0-3.69,1.14h0Z"/><path class="cls-1" d="M101.76,34.47a2.83,2.83,0,0,1-.53-1.91v-17h-3.8V33.05a5.3,5.3,0,0,0,1.42,4.06,6.26,6.26,0,0,0,4.33,1.3h.38V35.17a2.4,2.4,0,0,1-1.84-.65h0l0-.05Z"/><path class="cls-1" d="M117.87,15.46v8.39a6.69,6.69,0,0,0-1.4-1.35,7.09,7.09,0,0,0-4.06-1.15,8.68,8.68,0,0,0-4.33,1.1,7.77,7.77,0,0,0-2.94,3.1,10,10,0,0,0,0,8.9,8,8,0,0,0,2.94,3.1,8.46,8.46,0,0,0,4.38,1.1,5.33,5.33,0,0,0,2.82-.54,6,6,0,0,0,2.17-1.51c.16-.17.28-.38.42-.54v2.12h3.8V15.41h-3.75Zm-.59,17.29a4.53,4.53,0,0,1-1.79,1.91,5.21,5.21,0,0,1-2.66.7,4.93,4.93,0,0,1-2.61-.7,4.57,4.57,0,0,1-1.72-1.91,5.89,5.89,0,0,1-.61-2.75,6.2,6.2,0,0,1,.61-2.75,4.27,4.27,0,0,1,1.72-1.91,5.11,5.11,0,0,1,2.61-.7,5.35,5.35,0,0,1,2.66.7,4.66,4.66,0,0,1,1.79,1.91,5.91,5.91,0,0,1,.66,2.75,5.62,5.62,0,0,1-.66,2.75Z"/></g><path class="cls-1" d="M204.53,46c.48.38,1,.73,1.49,1.07a30.43,30.43,0,0,0,2.66,1.67A15.78,15.78,0,0,0,211.26,50c1.36.53,3.62.8,4.69,1.41s2.33,2.37,3.35,3.08a1.33,1.33,0,0,0,1.43.24c1.65-.6,3.33-2.28,4.94-3,1.24-.18,2.5-.27,3.73-.51a30.16,30.16,0,0,0,4.4-1.44A23.12,23.12,0,0,0,238.1,48a27.34,27.34,0,0,0,4.79-3.4,11.92,11.92,0,0,0,2-2.54V40.82c-2.79-5.56-11-4.69-16.15-3.72-.42,0-.91-1-1.36-1.36a10.7,10.7,0,0,0-1.24-.7c-.34-.6.7-2.71,1-3.36l.34.11.33.66.68.08c.21-.9-.3-1.11-.67-1.76,1.19-1.21,5-3.12,3.86-5.24-.93-1.7-2.65-.56-4-.3-.23.05-.31,0-.23-.23.38-1.2,3-3.57,4.05-4.57.23-.23.57-.33.76-.59a2.18,2.18,0,0,0-.59-2.79c-1.68-1.11-3.55.23-4.56,1.6-.11-1.89.29-3.77.16-5.66s-.93-5-2.45-6.35a9.23,9.23,0,0,0-3.64-1.52H218.7c-.27.26-.7.21-1,.38a4,4,0,0,0-2,4.93c1.41,1.51,3.54.28,5.23,0a4,4,0,0,1,.88,1.81c1,3.23.64,7.53.3,10.88-.18,1.78-.61,3.55-.68,5.33-.1.11-1.2-.54-1.48-.63-2.68-.85-5.34,1.63-6.26,4a19.28,19.28,0,0,0-.89,4.61,17.45,17.45,0,0,1-2.16-.63c-2.07-.47-5.84-.75-7.77.09a3.34,3.34,0,0,0-2.17,2.91A3.15,3.15,0,0,0,199,36.05c-2.39-1.19-6.26-.79-8.78-.09a8.11,8.11,0,0,0-1.66.63c0-2.89-.69-6.17-3.22-7.88,0-.92,2.94-2.32,1.78-4.13-.94-1.45-2.62-.3-3.54.51-.67.58-1,1.55-2.12,1.35a1.42,1.42,0,0,1,.08-.68c1.14-3.91,8.54-6.44,8.21-10.91-.16-2.26-3.79-3.72-5.7-2.83-3.46,1.63-3.9,8.9-5.73,11.88-.27.14-.33-.27-.33-.42,0-1.34,1.48-4.69-.84-4.84s-3.23,2.62-3.48,4.5a22,22,0,0,0,0,3,37.41,37.41,0,0,1-.08,3.82c-1,.68-1.31-1.12-1.89-1.69-.94-.95-1.74,0-2,1-.67,2.26.38,5,.77,7.29-3.06-.2-6.15-.42-9.14.42-2.09.59-4,1.68-4.74,3.81V42c1.22,2.31,3.28,3.75,5.4,5.12a3.72,3.72,0,0,1,1.12.48,5,5,0,0,0,.63.38l-.19-.07.08.06.77.32c.5.22,1,.48,1.45.74.81.34,1.72.74,2.08.92l.28.1a2.53,2.53,0,0,1,.37.18c.14.07.29.13.43.21l.06,0c1,.27,2,.57,3.06.77a33.66,33.66,0,0,1,4,.61c.73.29,1.91,1.37,2.72,1.84a9.11,9.11,0,0,0,2.57,1.17c.78,0,2.45-2.05,3.13-2.64,1.73-1.49,3.09-1.26,5.12-2a23,23,0,0,0,5.76-3.19,14.44,14.44,0,0,0,4.33-4.37,6.37,6.37,0,0,0,.87-3.06l.59,1.86a10.42,10.42,0,0,0,2.35,3.56A7.79,7.79,0,0,0,204.53,46ZM187.91,35.33c.13,3.1-2.31,7.78-6,6.35-1.85-.72-.72-1.4-.75-2.63a6.15,6.15,0,0,0-.34-1.44c1.15.09,2.59-.14,2.84-1.48a2.13,2.13,0,1,0-4.2-.55l-1-.45c0-2.83,2.17-8.28,5.79-6.26A8.59,8.59,0,0,1,187.91,35.33Zm-7.49-.26a.64.64,0,0,1,.63-.64.64.64,0,0,1,.64.64.64.64,0,0,1-.64.63A.63.63,0,0,1,180.42,35.07Zm-1.48,6.77c-1.59,1.8-5.33-.06-5.72-2.16-.67-3.66,4-5.9,6.2-2.81a4.15,4.15,0,0,1,.7,2.94c-.31.08-.39-.24-.63-.31A1.21,1.21,0,1,0,178.94,41.84Zm.33-1.44-.25.25-.59-.25.26-.25Zm2.66-12.92a2,2,0,0,1,2.25,0c.33-.73-.85-.49-.67-.93l2-1.58.48.31c.46,1-.85,1.94-1.44,2.63-1.05.09-1.93-.46-3-.09C181.44,27.56,181.75,27.56,181.93,27.48Zm-10.87,1.67,2.05,2.2c.83.12,1.23-.82,1.39-1.48.6-2.62-.78-8.19,1.55-9.95a1.3,1.3,0,0,1,.43-.27l.85.19c.42,1.19-.8,4,0,4.9l.4.27c.87.25,1.33-.15,1.67-.89,1.22-2.71,2.1-9.26,4.55-10.85,1.92-1.25,4.73,0,4.41,2.38-.36,2.74-2.57,3.66-4.36,5.29-1.59,1.44-3.34,3.27-3.63,5.5l-1,.37-.29.47,1.24,0,.39.74a8.67,8.67,0,0,0-3.16,6.85,4.52,4.52,0,0,0-3.38.76c-.75.58-1,1.72-2.08,1.41-.86-.26-1.5-3.43-1.62-4.3C170.35,31.75,170.08,29.7,171.06,29.15Zm27.31,13.59c-2.12,3.52-7.52,6.81-11.57,7.39-.43.06-.17-.22,0-.5,1.71-2.4,4-2.79,5.91-4.91a18.12,18.12,0,0,0,2.82-4.55l.65,0c.19-.18-.84-1.11-1-1.25-1.34-1-4.29-1.61-5.4-.1l2.37-.17c-1.24,6.32-6.83,10.52-10.57,15.41-.5.39-1.76-.63-2.28-1-3.81-2.38-8.89-6.36-11.49-10a13.28,13.28,0,0,1-1.53-2.54c-.09-.49,1.09-.49,1.41-.57s.3.12.26-.33a7,7,0,0,0-7.27,3.3l1.57-.75a21.8,21.8,0,0,0,3.68,3.44c2.7,1.86,5.29,2.21,7.85,4.5a2.25,2.25,0,0,1,.6.67,28.34,28.34,0,0,1-9.93-3.35,21,21,0,0,1-6.23-4.76c-1-1.21-1-1.72.16-2.89,2.9-3,10.32-2.78,14.14-2-.53,3.15,1.83,6,5.07,5.41l-1.27.51h-2.62c.1.28.86.46,1.11.49,1.85.23,4-.12,5.23-1.64,1.32.92,2.63,1.73,4.32,1.49L181,42.18c2.4,1,5,.49,6.4-1.81.65-1.12.63-2.48,1.83-3.08,2-1,7.08-1.48,9.14-.56C200.63,37.75,199.34,41.13,198.37,42.74Zm-9,3.66,1.06-1.64.38-.21.27.67A4.5,4.5,0,0,1,189.34,46.4Zm4.15-3.88-1.69,2-.63-1.1L192.36,42Zm-1-1.61.72-1.93c2.23.22,1.31,1.45.73,2.85C193.74,42,192.57,41.19,192.54,40.91Zm-22.82,6a10.17,10.17,0,0,0-1.59-.78c-.93-.51-1.15-.78-.28-1.58Zm-3.14-4.4.65,1.3L166.59,45c-.4.3-.87-.84-1.36-.77Zm-2.1.84c-.32-.27-1.73-1.61-1.44-2l1.92-.85.76,1.57Zm63-2.27c-1,1.33-3.67,2.15-4.9.76,2.06-.8.54-3.22-1.19-2-.5-1.36.56-3.26,1.74-3.93A3.45,3.45,0,0,1,227.5,41.08Zm-5.07-.43v-.42l.25-.25.25.25v.42Zm.67-16.83a61.46,61.46,0,0,0,.17-6.77,20.56,20.56,0,0,0-1-7.09,4.73,4.73,0,0,1,.87-.53c.19-.13.43,0,.33-.42-1.92,0-3.87,1.32-5.83,1-1.34-.21-1.08-1.9-.43-2.78,1.56-2.1,5.28-1.53,6.94.17,3.19,3.26,2.27,10.56,1.35,14.64.17.18.81-.54.94-.68,1.27-1.4,2.1-3.95,4.38-3.71.9.1,1.11,1.05.61,1.77-1.23,1.72-4.6,4-4.9,6.1-.06.41,0,.84,0,1.26L230,25.43l.5.18.44.9-.13.39c-.52.85-1.45,1.26-2.16,1.9-.37.34-1.36,1.6-1.56,1.71s-2-.31-2.07.83l1.35.26-1.18,3.06-.25.17-1-.26a13.63,13.63,0,0,0-.42-2.62c-.21-.73-.78-1.41-.92-1.95C222.16,28.73,223,25.34,223.1,23.82Zm-9.46,10.67c.24-2,2.51-5.79,4.64-6,3.38-.37,4.47,3.89,4.8,6.5l-1.16.61a2.29,2.29,0,0,0-1.18-2,2.13,2.13,0,1,0-.17,4,4.77,4.77,0,0,0,.16,3.14c-.79,1.28-2.88,1.38-4.17.78C214.36,40.5,213.39,36.72,213.64,34.49Zm7.4.58a.64.64,0,0,1-.64.64.64.64,0,1,1,.64-.64Zm-15.62,1.18c1.64-.13,6.94.26,7.77,1.87.72,1.4.55,2.34,2.05,3.54a4.89,4.89,0,0,0,5.16.52l-1.07.87-2.15,1c1.66.25,3-.74,4.31-1.52,1,1.77,4.1,2,5.88,1.47.18-.06.51-.05.47-.29h-2.79s-.81-.17-.76-.34a4.41,4.41,0,0,0,4.58-5.31l.28-.24c3.74-.93,11.89-1,14.33,2.51.84,1.2.32,1.74-.49,2.7-1.75,2.08-5.34,4.24-7.81,5.39A27.58,27.58,0,0,1,227,50.8l2.88-2.44a21.51,21.51,0,0,0,9.42-6.17l1.57.83a5.25,5.25,0,0,0-3.05-2.79,16.64,16.64,0,0,0-1.77-.59H233.6c-.08.48.09.28.39.36s1.39.1,1.29.55c-.51.75-.92,1.54-1.45,2.28a36.17,36.17,0,0,1-6.75,6.79c-.82.66-6.33,4.66-6.91,4.54a59.4,59.4,0,0,1-4.34-4.63c-2.66-3.14-5.44-6.64-6.59-10.64.11-.55,1.51-.13,1.93-.09.11,0,.77.09.51-.18-1.91-1.46-5.41-.57-6.51,1.52l.83,0a13.81,13.81,0,0,0,5.88,7.06c.41.25.84.24,1.25.62.63.57,1.15,1.64,1.85,2.2a10.58,10.58,0,0,1-3.3-.75c-3.79-1.35-8.64-4.87-9.65-9C201.3,37.34,202.66,36.48,205.42,36.25Zm26.32,10.58,1.94-2.28c.27.19.58.89.39,1.15ZM236.3,44c-.29.23-1.11,1.38-1.51,1.1l-.51-1.1.84-1.44Zm-.64-2.06.92-1.38,1.91.92c.11.37-1.11,1.62-1.45,1.92Zm-23.47,4.68-1.94-1.43.59-.59A11,11,0,0,1,212,46.18C212.05,46.25,212.57,46.25,212.19,46.57Zm-3.93-4.1a2.4,2.4,0,0,1,.89-.47c.95.71,1.61,1.79.25,2.54l-1.35-1.78C208,42.43,208.14,42.56,208.26,42.47Zm-.62-.64c-.77-1-1.61-2.48.19-2.84a1,1,0,0,1,.45,0l.62,1.93Z"/><path class="cls-1" d="M219.38,26.18c-.21-.29-.43-.27-.76-.25-1.3.05-3.94.65-4.14,2.2C215.78,26.6,217.85,27.1,219.38,26.18Z"/><path class="cls-1" d="M219.37,45.32h.69c.61-.39.54-1,.51-1.61C219.84,43.46,218.74,44.88,219.37,45.32Z"/><path class="cls-1" d="M221.75,43.7l-.08,1.35.53.48.52-.18.17-.52C222.71,44.27,222.41,43.72,221.75,43.7Z"/><path class="cls-1" d="M182.06,44.21,181,43.7a1.42,1.42,0,0,0,.25,1.52C181.75,45.77,182.7,45.06,182.06,44.21Z"/><path class="cls-1" d="M178.76,45.32h.68c.72-.46.47-.91.34-1.61C179.12,43.59,178.17,44.91,178.76,45.32Z"/><path class="cls-1" d="M173.68,33.62a9.82,9.82,0,0,1,2-.25c-.48-1.63-4.09-.53-3.55,1.19C172.87,34.66,173.08,33.82,173.68,33.62Z"/></g></svg>