<svg id="Capa_1" data-name="Capa 1" xmlns="http://www.w3.org/2000/svg" viewBox="0 0 290 80"><defs><style>.cls-1{fill:#020c2d;}</style></defs><path class="cls-1" d="M2.17,4.44h14l7.17,47h.1L32,4.44H45.21l8.62,47H54l7.08-47h14L61,73.75h-14L38.71,30.52h-.19L30.28,73.75h-14Z"/><path class="cls-1" d="M140.39,4.44h26.18c12.31,0,19.77,7.17,19.77,19.77,0,9.7-4.36,15.42-11.24,17.36v.19c13.86,3,8.82,29.86,12,31v1H172.58c-2.72-2.91,2.32-24.14-9.5-24.14h-8.73V73.75h-14Zm23.46,30.92c5.63,0,8.53-2.52,8.53-8.33s-2.9-8.34-8.53-8.34h-9.5V35.36Z"/><path class="cls-1" d="M194,4.44h14V59.5h24.72V73.75H194Z"/><path class="cls-1" d="M238.49,4.44h24.62c15.42,0,24.72,12.41,24.72,34.7s-8.53,34.61-23.94,34.61h-25.4ZM261.37,59.5c8.72,0,12.21-7.75,12.21-20.36s-3.49-20.45-12.21-20.45h-8.92V59.5Z"/><path class="cls-1" d="M122.46,11.8a34.52,34.52,0,0,0-34.26,0,34.05,34.05,0,0,0-17,29.6,33.63,33.63,0,0,0,4.56,17.14A34,34,0,0,0,88.2,71a34.52,34.52,0,0,0,34.26,0,34.05,34.05,0,0,0,17-29.61,33.59,33.59,0,0,0-4.56-17.13A34,34,0,0,0,122.46,11.8ZM107.34,53.71A13.24,13.24,0,0,1,98,50.4a10.2,10.2,0,0,1-3.14-5.53h36.86a28.77,28.77,0,0,1-2.65,8.84H107.34ZM94.92,37.93a10.82,10.82,0,0,1,3.14-5.53,13.25,13.25,0,0,1,9.33-3.3h21.8a26.06,26.06,0,0,1,2.65,8.83H94.92ZM82.18,27.74a26.61,26.61,0,0,1,9.7-9.81,26.85,26.85,0,0,1,27,0,25.45,25.45,0,0,1,5.59,4.39H107.28a22,22,0,0,0-10.46,2.49,17.39,17.39,0,0,0-7,6.78A19.49,19.49,0,0,0,87.49,38H79a25.92,25.92,0,0,1,3.31-10.19h-.22v-.11Zm36.6,37.09a26.92,26.92,0,0,1-27,0A26.82,26.82,0,0,1,82.07,55a25.42,25.42,0,0,1-3.31-10.08h8.46a19.57,19.57,0,0,0,2.28,6.45,19.21,19.21,0,0,0,7,6.78A22,22,0,0,0,107,60.65h17.13a25.06,25.06,0,0,1-5.42,4.18h.06Z"/></svg>